G04 #@! TF.GenerationSoftware,KiCad,Pcbnew,(6.0.0)*
G04 #@! TF.CreationDate,2023-01-15T16:22:46+02:00*
G04 #@! TF.ProjectId,Pi HAT,50692048-4154-42e6-9b69-6361645f7063,0.0*
G04 #@! TF.SameCoordinates,Original*
G04 #@! TF.FileFunction,Legend,Top*
G04 #@! TF.FilePolarity,Positive*
%FSLAX46Y46*%
G04 Gerber Fmt 4.6, Leading zero omitted, Abs format (unit mm)*
G04 Created by KiCad (PCBNEW (6.0.0)) date 2023-01-15 16:22:46*
%MOMM*%
%LPD*%
G01*
G04 APERTURE LIST*
%ADD10C,0.130000*%
%ADD11C,0.150000*%
%ADD12C,0.125000*%
%ADD13C,0.120000*%
%ADD14C,0.152400*%
G04 APERTURE END LIST*
D10*
X166918571Y-127489904D02*
X166651904Y-127108952D01*
X166461428Y-127489904D02*
X166461428Y-126689904D01*
X166766190Y-126689904D01*
X166842380Y-126728000D01*
X166880476Y-126766095D01*
X166918571Y-126842285D01*
X166918571Y-126956571D01*
X166880476Y-127032761D01*
X166842380Y-127070857D01*
X166766190Y-127108952D01*
X166461428Y-127108952D01*
X167261428Y-127489904D02*
X167261428Y-126689904D01*
X167566190Y-126689904D01*
X167642380Y-126728000D01*
X167680476Y-126766095D01*
X167718571Y-126842285D01*
X167718571Y-126956571D01*
X167680476Y-127032761D01*
X167642380Y-127070857D01*
X167566190Y-127108952D01*
X167261428Y-127108952D01*
X168061428Y-127489904D02*
X168061428Y-126956571D01*
X168061428Y-126689904D02*
X168023333Y-126728000D01*
X168061428Y-126766095D01*
X168099523Y-126728000D01*
X168061428Y-126689904D01*
X168061428Y-126766095D01*
X168594761Y-126689904D02*
X168670952Y-126689904D01*
X168747142Y-126728000D01*
X168785238Y-126766095D01*
X168823333Y-126842285D01*
X168861428Y-126994666D01*
X168861428Y-127185142D01*
X168823333Y-127337523D01*
X168785238Y-127413714D01*
X168747142Y-127451809D01*
X168670952Y-127489904D01*
X168594761Y-127489904D01*
X168518571Y-127451809D01*
X168480476Y-127413714D01*
X168442380Y-127337523D01*
X168404285Y-127185142D01*
X168404285Y-126994666D01*
X168442380Y-126842285D01*
X168480476Y-126766095D01*
X168518571Y-126728000D01*
X168594761Y-126689904D01*
X169813809Y-127489904D02*
X169813809Y-126689904D01*
X170194761Y-126956571D02*
X170194761Y-127489904D01*
X170194761Y-127032761D02*
X170232857Y-126994666D01*
X170309047Y-126956571D01*
X170423333Y-126956571D01*
X170499523Y-126994666D01*
X170537619Y-127070857D01*
X170537619Y-127489904D01*
X170880476Y-127451809D02*
X170956666Y-127489904D01*
X171109047Y-127489904D01*
X171185238Y-127451809D01*
X171223333Y-127375619D01*
X171223333Y-127337523D01*
X171185238Y-127261333D01*
X171109047Y-127223238D01*
X170994761Y-127223238D01*
X170918571Y-127185142D01*
X170880476Y-127108952D01*
X170880476Y-127070857D01*
X170918571Y-126994666D01*
X170994761Y-126956571D01*
X171109047Y-126956571D01*
X171185238Y-126994666D01*
X171451904Y-126956571D02*
X171756666Y-126956571D01*
X171566190Y-126689904D02*
X171566190Y-127375619D01*
X171604285Y-127451809D01*
X171680476Y-127489904D01*
X171756666Y-127489904D01*
X172023333Y-127489904D02*
X172023333Y-126956571D01*
X172023333Y-127108952D02*
X172061428Y-127032761D01*
X172099523Y-126994666D01*
X172175714Y-126956571D01*
X172251904Y-126956571D01*
X172861428Y-126956571D02*
X172861428Y-127489904D01*
X172518571Y-126956571D02*
X172518571Y-127375619D01*
X172556666Y-127451809D01*
X172632857Y-127489904D01*
X172747142Y-127489904D01*
X172823333Y-127451809D01*
X172861428Y-127413714D01*
X173242380Y-127489904D02*
X173242380Y-126956571D01*
X173242380Y-127032761D02*
X173280476Y-126994666D01*
X173356666Y-126956571D01*
X173470952Y-126956571D01*
X173547142Y-126994666D01*
X173585238Y-127070857D01*
X173585238Y-127489904D01*
X173585238Y-127070857D02*
X173623333Y-126994666D01*
X173699523Y-126956571D01*
X173813809Y-126956571D01*
X173890000Y-126994666D01*
X173928095Y-127070857D01*
X173928095Y-127489904D01*
X174613809Y-127451809D02*
X174537619Y-127489904D01*
X174385238Y-127489904D01*
X174309047Y-127451809D01*
X174270952Y-127375619D01*
X174270952Y-127070857D01*
X174309047Y-126994666D01*
X174385238Y-126956571D01*
X174537619Y-126956571D01*
X174613809Y-126994666D01*
X174651904Y-127070857D01*
X174651904Y-127147047D01*
X174270952Y-127223238D01*
X174994761Y-126956571D02*
X174994761Y-127489904D01*
X174994761Y-127032761D02*
X175032857Y-126994666D01*
X175109047Y-126956571D01*
X175223333Y-126956571D01*
X175299523Y-126994666D01*
X175337619Y-127070857D01*
X175337619Y-127489904D01*
X175604285Y-126956571D02*
X175909047Y-126956571D01*
X175718571Y-126689904D02*
X175718571Y-127375619D01*
X175756666Y-127451809D01*
X175832857Y-127489904D01*
X175909047Y-127489904D01*
X176175714Y-127413714D02*
X176213809Y-127451809D01*
X176175714Y-127489904D01*
X176137619Y-127451809D01*
X176175714Y-127413714D01*
X176175714Y-127489904D01*
X177166190Y-127489904D02*
X177166190Y-126689904D01*
X177166190Y-127070857D02*
X177623333Y-127070857D01*
X177623333Y-127489904D02*
X177623333Y-126689904D01*
X177966190Y-127261333D02*
X178347142Y-127261333D01*
X177890000Y-127489904D02*
X178156666Y-126689904D01*
X178423333Y-127489904D01*
X178575714Y-126689904D02*
X179032857Y-126689904D01*
X178804285Y-127489904D02*
X178804285Y-126689904D01*
X171547142Y-128244571D02*
X171737619Y-128777904D01*
X171928095Y-128244571D01*
X172385238Y-127977904D02*
X172461428Y-127977904D01*
X172537619Y-128016000D01*
X172575714Y-128054095D01*
X172613809Y-128130285D01*
X172651904Y-128282666D01*
X172651904Y-128473142D01*
X172613809Y-128625523D01*
X172575714Y-128701714D01*
X172537619Y-128739809D01*
X172461428Y-128777904D01*
X172385238Y-128777904D01*
X172309047Y-128739809D01*
X172270952Y-128701714D01*
X172232857Y-128625523D01*
X172194761Y-128473142D01*
X172194761Y-128282666D01*
X172232857Y-128130285D01*
X172270952Y-128054095D01*
X172309047Y-128016000D01*
X172385238Y-127977904D01*
X172994761Y-128701714D02*
X173032857Y-128739809D01*
X172994761Y-128777904D01*
X172956666Y-128739809D01*
X172994761Y-128701714D01*
X172994761Y-128777904D01*
X173528095Y-127977904D02*
X173604285Y-127977904D01*
X173680476Y-128016000D01*
X173718571Y-128054095D01*
X173756666Y-128130285D01*
X173794761Y-128282666D01*
X173794761Y-128473142D01*
X173756666Y-128625523D01*
X173718571Y-128701714D01*
X173680476Y-128739809D01*
X173604285Y-128777904D01*
X173528095Y-128777904D01*
X173451904Y-128739809D01*
X173413809Y-128701714D01*
X173375714Y-128625523D01*
X173337619Y-128473142D01*
X173337619Y-128282666D01*
X173375714Y-128130285D01*
X173413809Y-128054095D01*
X173451904Y-128016000D01*
X173528095Y-127977904D01*
X168309047Y-130065904D02*
X168309047Y-129265904D01*
X168575714Y-129837333D01*
X168842380Y-129265904D01*
X168842380Y-130065904D01*
X169337619Y-130065904D02*
X169261428Y-130027809D01*
X169223333Y-129989714D01*
X169185238Y-129913523D01*
X169185238Y-129684952D01*
X169223333Y-129608761D01*
X169261428Y-129570666D01*
X169337619Y-129532571D01*
X169451904Y-129532571D01*
X169528095Y-129570666D01*
X169566190Y-129608761D01*
X169604285Y-129684952D01*
X169604285Y-129913523D01*
X169566190Y-129989714D01*
X169528095Y-130027809D01*
X169451904Y-130065904D01*
X169337619Y-130065904D01*
X169947142Y-129532571D02*
X169947142Y-130065904D01*
X169947142Y-129608761D02*
X169985238Y-129570666D01*
X170061428Y-129532571D01*
X170175714Y-129532571D01*
X170251904Y-129570666D01*
X170290000Y-129646857D01*
X170290000Y-130065904D01*
X170556666Y-129532571D02*
X170861428Y-129532571D01*
X170670952Y-129265904D02*
X170670952Y-129951619D01*
X170709047Y-130027809D01*
X170785238Y-130065904D01*
X170861428Y-130065904D01*
X171090000Y-130027809D02*
X171166190Y-130065904D01*
X171318571Y-130065904D01*
X171394761Y-130027809D01*
X171432857Y-129951619D01*
X171432857Y-129913523D01*
X171394761Y-129837333D01*
X171318571Y-129799238D01*
X171204285Y-129799238D01*
X171128095Y-129761142D01*
X171090000Y-129684952D01*
X171090000Y-129646857D01*
X171128095Y-129570666D01*
X171204285Y-129532571D01*
X171318571Y-129532571D01*
X171394761Y-129570666D01*
X171890000Y-130065904D02*
X171813809Y-130027809D01*
X171775714Y-129989714D01*
X171737619Y-129913523D01*
X171737619Y-129684952D01*
X171775714Y-129608761D01*
X171813809Y-129570666D01*
X171890000Y-129532571D01*
X172004285Y-129532571D01*
X172080476Y-129570666D01*
X172118571Y-129608761D01*
X172156666Y-129684952D01*
X172156666Y-129913523D01*
X172118571Y-129989714D01*
X172080476Y-130027809D01*
X172004285Y-130065904D01*
X171890000Y-130065904D01*
X173109047Y-130065904D02*
X173109047Y-129265904D01*
X173375714Y-129837333D01*
X173642380Y-129265904D01*
X173642380Y-130065904D01*
X174137619Y-130065904D02*
X174061428Y-130027809D01*
X174023333Y-129989714D01*
X173985238Y-129913523D01*
X173985238Y-129684952D01*
X174023333Y-129608761D01*
X174061428Y-129570666D01*
X174137619Y-129532571D01*
X174251904Y-129532571D01*
X174328095Y-129570666D01*
X174366190Y-129608761D01*
X174404285Y-129684952D01*
X174404285Y-129913523D01*
X174366190Y-129989714D01*
X174328095Y-130027809D01*
X174251904Y-130065904D01*
X174137619Y-130065904D01*
X174747142Y-130065904D02*
X174747142Y-129265904D01*
X174823333Y-129761142D02*
X175051904Y-130065904D01*
X175051904Y-129532571D02*
X174747142Y-129837333D01*
X175737619Y-130065904D02*
X175737619Y-129646857D01*
X175699523Y-129570666D01*
X175623333Y-129532571D01*
X175470952Y-129532571D01*
X175394761Y-129570666D01*
X175737619Y-130027809D02*
X175661428Y-130065904D01*
X175470952Y-130065904D01*
X175394761Y-130027809D01*
X175356666Y-129951619D01*
X175356666Y-129875428D01*
X175394761Y-129799238D01*
X175470952Y-129761142D01*
X175661428Y-129761142D01*
X175737619Y-129723047D01*
X176118571Y-130065904D02*
X176118571Y-129265904D01*
X176194761Y-129761142D02*
X176423333Y-130065904D01*
X176423333Y-129532571D02*
X176118571Y-129837333D01*
X177070952Y-130027809D02*
X176994761Y-130065904D01*
X176842380Y-130065904D01*
X176766190Y-130027809D01*
X176728095Y-129951619D01*
X176728095Y-129646857D01*
X176766190Y-129570666D01*
X176842380Y-129532571D01*
X176994761Y-129532571D01*
X177070952Y-129570666D01*
X177109047Y-129646857D01*
X177109047Y-129723047D01*
X176728095Y-129799238D01*
X169413809Y-131353904D02*
X168956666Y-131353904D01*
X169185238Y-131353904D02*
X169185238Y-130553904D01*
X169109047Y-130668190D01*
X169032857Y-130744380D01*
X168956666Y-130782476D01*
X169870952Y-130896761D02*
X169794761Y-130858666D01*
X169756666Y-130820571D01*
X169718571Y-130744380D01*
X169718571Y-130706285D01*
X169756666Y-130630095D01*
X169794761Y-130592000D01*
X169870952Y-130553904D01*
X170023333Y-130553904D01*
X170099523Y-130592000D01*
X170137619Y-130630095D01*
X170175714Y-130706285D01*
X170175714Y-130744380D01*
X170137619Y-130820571D01*
X170099523Y-130858666D01*
X170023333Y-130896761D01*
X169870952Y-130896761D01*
X169794761Y-130934857D01*
X169756666Y-130972952D01*
X169718571Y-131049142D01*
X169718571Y-131201523D01*
X169756666Y-131277714D01*
X169794761Y-131315809D01*
X169870952Y-131353904D01*
X170023333Y-131353904D01*
X170099523Y-131315809D01*
X170137619Y-131277714D01*
X170175714Y-131201523D01*
X170175714Y-131049142D01*
X170137619Y-130972952D01*
X170099523Y-130934857D01*
X170023333Y-130896761D01*
X171090000Y-130515809D02*
X170404285Y-131544380D01*
X171775714Y-131353904D02*
X171318571Y-131353904D01*
X171547142Y-131353904D02*
X171547142Y-130553904D01*
X171470952Y-130668190D01*
X171394761Y-130744380D01*
X171318571Y-130782476D01*
X172080476Y-130630095D02*
X172118571Y-130592000D01*
X172194761Y-130553904D01*
X172385238Y-130553904D01*
X172461428Y-130592000D01*
X172499523Y-130630095D01*
X172537619Y-130706285D01*
X172537619Y-130782476D01*
X172499523Y-130896761D01*
X172042380Y-131353904D01*
X172537619Y-131353904D01*
X173451904Y-130515809D02*
X172766190Y-131544380D01*
X173680476Y-130630095D02*
X173718571Y-130592000D01*
X173794761Y-130553904D01*
X173985238Y-130553904D01*
X174061428Y-130592000D01*
X174099523Y-130630095D01*
X174137619Y-130706285D01*
X174137619Y-130782476D01*
X174099523Y-130896761D01*
X173642380Y-131353904D01*
X174137619Y-131353904D01*
X174632857Y-130553904D02*
X174709047Y-130553904D01*
X174785238Y-130592000D01*
X174823333Y-130630095D01*
X174861428Y-130706285D01*
X174899523Y-130858666D01*
X174899523Y-131049142D01*
X174861428Y-131201523D01*
X174823333Y-131277714D01*
X174785238Y-131315809D01*
X174709047Y-131353904D01*
X174632857Y-131353904D01*
X174556666Y-131315809D01*
X174518571Y-131277714D01*
X174480476Y-131201523D01*
X174442380Y-131049142D01*
X174442380Y-130858666D01*
X174480476Y-130706285D01*
X174518571Y-130630095D01*
X174556666Y-130592000D01*
X174632857Y-130553904D01*
X175204285Y-130630095D02*
X175242380Y-130592000D01*
X175318571Y-130553904D01*
X175509047Y-130553904D01*
X175585238Y-130592000D01*
X175623333Y-130630095D01*
X175661428Y-130706285D01*
X175661428Y-130782476D01*
X175623333Y-130896761D01*
X175166190Y-131353904D01*
X175661428Y-131353904D01*
X175966190Y-130630095D02*
X176004285Y-130592000D01*
X176080476Y-130553904D01*
X176270952Y-130553904D01*
X176347142Y-130592000D01*
X176385238Y-130630095D01*
X176423333Y-130706285D01*
X176423333Y-130782476D01*
X176385238Y-130896761D01*
X175928095Y-131353904D01*
X176423333Y-131353904D01*
D11*
X176126666Y-97442380D02*
X176126666Y-98156666D01*
X176079047Y-98299523D01*
X175983809Y-98394761D01*
X175840952Y-98442380D01*
X175745714Y-98442380D01*
X177126666Y-98442380D02*
X176555238Y-98442380D01*
X176840952Y-98442380D02*
X176840952Y-97442380D01*
X176745714Y-97585238D01*
X176650476Y-97680476D01*
X176555238Y-97728095D01*
X152292904Y-122694380D02*
X152292904Y-121694380D01*
X152531000Y-121694380D01*
X152673857Y-121742000D01*
X152769095Y-121837238D01*
X152816714Y-121932476D01*
X152864333Y-122122952D01*
X152864333Y-122265809D01*
X152816714Y-122456285D01*
X152769095Y-122551523D01*
X152673857Y-122646761D01*
X152531000Y-122694380D01*
X152292904Y-122694380D01*
X153721476Y-122027714D02*
X153721476Y-122694380D01*
X153483380Y-121646761D02*
X153245285Y-122361047D01*
X153864333Y-122361047D01*
X122043333Y-131211904D02*
X122043333Y-131783333D01*
X122005238Y-131897619D01*
X121929047Y-131973809D01*
X121814761Y-132011904D01*
X121738571Y-132011904D01*
X122462380Y-132011904D02*
X122614761Y-132011904D01*
X122690952Y-131973809D01*
X122729047Y-131935714D01*
X122805238Y-131821428D01*
X122843333Y-131669047D01*
X122843333Y-131364285D01*
X122805238Y-131288095D01*
X122767142Y-131250000D01*
X122690952Y-131211904D01*
X122538571Y-131211904D01*
X122462380Y-131250000D01*
X122424285Y-131288095D01*
X122386190Y-131364285D01*
X122386190Y-131554761D01*
X122424285Y-131630952D01*
X122462380Y-131669047D01*
X122538571Y-131707142D01*
X122690952Y-131707142D01*
X122767142Y-131669047D01*
X122805238Y-131630952D01*
X122843333Y-131554761D01*
X170267333Y-114873380D02*
X169934000Y-114397190D01*
X169695904Y-114873380D02*
X169695904Y-113873380D01*
X170076857Y-113873380D01*
X170172095Y-113921000D01*
X170219714Y-113968619D01*
X170267333Y-114063857D01*
X170267333Y-114206714D01*
X170219714Y-114301952D01*
X170172095Y-114349571D01*
X170076857Y-114397190D01*
X169695904Y-114397190D01*
X170648285Y-113968619D02*
X170695904Y-113921000D01*
X170791142Y-113873380D01*
X171029238Y-113873380D01*
X171124476Y-113921000D01*
X171172095Y-113968619D01*
X171219714Y-114063857D01*
X171219714Y-114159095D01*
X171172095Y-114301952D01*
X170600666Y-114873380D01*
X171219714Y-114873380D01*
D12*
X130748571Y-128316190D02*
X130581904Y-128078095D01*
X130462857Y-128316190D02*
X130462857Y-127816190D01*
X130653333Y-127816190D01*
X130700952Y-127840000D01*
X130724761Y-127863809D01*
X130748571Y-127911428D01*
X130748571Y-127982857D01*
X130724761Y-128030476D01*
X130700952Y-128054285D01*
X130653333Y-128078095D01*
X130462857Y-128078095D01*
X131224761Y-128316190D02*
X130939047Y-128316190D01*
X131081904Y-128316190D02*
X131081904Y-127816190D01*
X131034285Y-127887619D01*
X130986666Y-127935238D01*
X130939047Y-127959047D01*
X131391428Y-127816190D02*
X131700952Y-127816190D01*
X131534285Y-128006666D01*
X131605714Y-128006666D01*
X131653333Y-128030476D01*
X131677142Y-128054285D01*
X131700952Y-128101904D01*
X131700952Y-128220952D01*
X131677142Y-128268571D01*
X131653333Y-128292380D01*
X131605714Y-128316190D01*
X131462857Y-128316190D01*
X131415238Y-128292380D01*
X131391428Y-128268571D01*
D11*
X172432333Y-105007142D02*
X172384714Y-105054761D01*
X172241857Y-105102380D01*
X172146619Y-105102380D01*
X172003761Y-105054761D01*
X171908523Y-104959523D01*
X171860904Y-104864285D01*
X171813285Y-104673809D01*
X171813285Y-104530952D01*
X171860904Y-104340476D01*
X171908523Y-104245238D01*
X172003761Y-104150000D01*
X172146619Y-104102380D01*
X172241857Y-104102380D01*
X172384714Y-104150000D01*
X172432333Y-104197619D01*
X172813285Y-104197619D02*
X172860904Y-104150000D01*
X172956142Y-104102380D01*
X173194238Y-104102380D01*
X173289476Y-104150000D01*
X173337095Y-104197619D01*
X173384714Y-104292857D01*
X173384714Y-104388095D01*
X173337095Y-104530952D01*
X172765666Y-105102380D01*
X173384714Y-105102380D01*
X165958809Y-105013380D02*
X165958809Y-104013380D01*
X167006428Y-104918142D02*
X166958809Y-104965761D01*
X166815952Y-105013380D01*
X166720714Y-105013380D01*
X166577857Y-104965761D01*
X166482619Y-104870523D01*
X166435000Y-104775285D01*
X166387380Y-104584809D01*
X166387380Y-104441952D01*
X166435000Y-104251476D01*
X166482619Y-104156238D01*
X166577857Y-104061000D01*
X166720714Y-104013380D01*
X166815952Y-104013380D01*
X166958809Y-104061000D01*
X167006428Y-104108619D01*
X167958809Y-105013380D02*
X167387380Y-105013380D01*
X167673095Y-105013380D02*
X167673095Y-104013380D01*
X167577857Y-104156238D01*
X167482619Y-104251476D01*
X167387380Y-104299095D01*
X170252380Y-116666666D02*
X169776190Y-117000000D01*
X170252380Y-117238095D02*
X169252380Y-117238095D01*
X169252380Y-116857142D01*
X169300000Y-116761904D01*
X169347619Y-116714285D01*
X169442857Y-116666666D01*
X169585714Y-116666666D01*
X169680952Y-116714285D01*
X169728571Y-116761904D01*
X169776190Y-116857142D01*
X169776190Y-117238095D01*
X170252380Y-115714285D02*
X170252380Y-116285714D01*
X170252380Y-116000000D02*
X169252380Y-116000000D01*
X169395238Y-116095238D01*
X169490476Y-116190476D01*
X169538095Y-116285714D01*
X122642380Y-125191904D02*
X123451904Y-125191904D01*
X123547142Y-125144285D01*
X123594761Y-125096666D01*
X123642380Y-125001428D01*
X123642380Y-124810952D01*
X123594761Y-124715714D01*
X123547142Y-124668095D01*
X123451904Y-124620476D01*
X122642380Y-124620476D01*
X122642380Y-123668095D02*
X122642380Y-124144285D01*
X123118571Y-124191904D01*
X123070952Y-124144285D01*
X123023333Y-124049047D01*
X123023333Y-123810952D01*
X123070952Y-123715714D01*
X123118571Y-123668095D01*
X123213809Y-123620476D01*
X123451904Y-123620476D01*
X123547142Y-123668095D01*
X123594761Y-123715714D01*
X123642380Y-123810952D01*
X123642380Y-124049047D01*
X123594761Y-124144285D01*
X123547142Y-124191904D01*
X146751904Y-120292380D02*
X146751904Y-119292380D01*
X147323333Y-120292380D02*
X146894761Y-119720952D01*
X147323333Y-119292380D02*
X146751904Y-119863809D01*
X148275714Y-120292380D02*
X147704285Y-120292380D01*
X147990000Y-120292380D02*
X147990000Y-119292380D01*
X147894761Y-119435238D01*
X147799523Y-119530476D01*
X147704285Y-119578095D01*
X167022333Y-116342142D02*
X166974714Y-116389761D01*
X166831857Y-116437380D01*
X166736619Y-116437380D01*
X166593761Y-116389761D01*
X166498523Y-116294523D01*
X166450904Y-116199285D01*
X166403285Y-116008809D01*
X166403285Y-115865952D01*
X166450904Y-115675476D01*
X166498523Y-115580238D01*
X166593761Y-115485000D01*
X166736619Y-115437380D01*
X166831857Y-115437380D01*
X166974714Y-115485000D01*
X167022333Y-115532619D01*
X167355666Y-115437380D02*
X167974714Y-115437380D01*
X167641380Y-115818333D01*
X167784238Y-115818333D01*
X167879476Y-115865952D01*
X167927095Y-115913571D01*
X167974714Y-116008809D01*
X167974714Y-116246904D01*
X167927095Y-116342142D01*
X167879476Y-116389761D01*
X167784238Y-116437380D01*
X167498523Y-116437380D01*
X167403285Y-116389761D01*
X167355666Y-116342142D01*
X119046666Y-113961904D02*
X118780000Y-113580952D01*
X118589523Y-113961904D02*
X118589523Y-113161904D01*
X118894285Y-113161904D01*
X118970476Y-113200000D01*
X119008571Y-113238095D01*
X119046666Y-113314285D01*
X119046666Y-113428571D01*
X119008571Y-113504761D01*
X118970476Y-113542857D01*
X118894285Y-113580952D01*
X118589523Y-113580952D01*
X119427619Y-113961904D02*
X119580000Y-113961904D01*
X119656190Y-113923809D01*
X119694285Y-113885714D01*
X119770476Y-113771428D01*
X119808571Y-113619047D01*
X119808571Y-113314285D01*
X119770476Y-113238095D01*
X119732380Y-113200000D01*
X119656190Y-113161904D01*
X119503809Y-113161904D01*
X119427619Y-113200000D01*
X119389523Y-113238095D01*
X119351428Y-113314285D01*
X119351428Y-113504761D01*
X119389523Y-113580952D01*
X119427619Y-113619047D01*
X119503809Y-113657142D01*
X119656190Y-113657142D01*
X119732380Y-113619047D01*
X119770476Y-113580952D01*
X119808571Y-113504761D01*
X159023904Y-120662380D02*
X159023904Y-119662380D01*
X159262000Y-119662380D01*
X159404857Y-119710000D01*
X159500095Y-119805238D01*
X159547714Y-119900476D01*
X159595333Y-120090952D01*
X159595333Y-120233809D01*
X159547714Y-120424285D01*
X159500095Y-120519523D01*
X159404857Y-120614761D01*
X159262000Y-120662380D01*
X159023904Y-120662380D01*
X160547714Y-120662380D02*
X159976285Y-120662380D01*
X160262000Y-120662380D02*
X160262000Y-119662380D01*
X160166761Y-119805238D01*
X160071523Y-119900476D01*
X159976285Y-119948095D01*
X142102904Y-120760380D02*
X142102904Y-119760380D01*
X142341000Y-119760380D01*
X142483857Y-119808000D01*
X142579095Y-119903238D01*
X142626714Y-119998476D01*
X142674333Y-120188952D01*
X142674333Y-120331809D01*
X142626714Y-120522285D01*
X142579095Y-120617523D01*
X142483857Y-120712761D01*
X142341000Y-120760380D01*
X142102904Y-120760380D01*
X143055285Y-119855619D02*
X143102904Y-119808000D01*
X143198142Y-119760380D01*
X143436238Y-119760380D01*
X143531476Y-119808000D01*
X143579095Y-119855619D01*
X143626714Y-119950857D01*
X143626714Y-120046095D01*
X143579095Y-120188952D01*
X143007666Y-120760380D01*
X143626714Y-120760380D01*
D12*
X127496666Y-129168571D02*
X127472857Y-129192380D01*
X127401428Y-129216190D01*
X127353809Y-129216190D01*
X127282380Y-129192380D01*
X127234761Y-129144761D01*
X127210952Y-129097142D01*
X127187142Y-129001904D01*
X127187142Y-128930476D01*
X127210952Y-128835238D01*
X127234761Y-128787619D01*
X127282380Y-128740000D01*
X127353809Y-128716190D01*
X127401428Y-128716190D01*
X127472857Y-128740000D01*
X127496666Y-128763809D01*
X127663333Y-128716190D02*
X127996666Y-128716190D01*
X127782380Y-129216190D01*
X130306190Y-120831428D02*
X130068095Y-120998095D01*
X130306190Y-121117142D02*
X129806190Y-121117142D01*
X129806190Y-120926666D01*
X129830000Y-120879047D01*
X129853809Y-120855238D01*
X129901428Y-120831428D01*
X129972857Y-120831428D01*
X130020476Y-120855238D01*
X130044285Y-120879047D01*
X130068095Y-120926666D01*
X130068095Y-121117142D01*
X130306190Y-120355238D02*
X130306190Y-120640952D01*
X130306190Y-120498095D02*
X129806190Y-120498095D01*
X129877619Y-120545714D01*
X129925238Y-120593333D01*
X129949047Y-120640952D01*
X130306190Y-119879047D02*
X130306190Y-120164761D01*
X130306190Y-120021904D02*
X129806190Y-120021904D01*
X129877619Y-120069523D01*
X129925238Y-120117142D01*
X129949047Y-120164761D01*
X124598571Y-117716190D02*
X124431904Y-117478095D01*
X124312857Y-117716190D02*
X124312857Y-117216190D01*
X124503333Y-117216190D01*
X124550952Y-117240000D01*
X124574761Y-117263809D01*
X124598571Y-117311428D01*
X124598571Y-117382857D01*
X124574761Y-117430476D01*
X124550952Y-117454285D01*
X124503333Y-117478095D01*
X124312857Y-117478095D01*
X125074761Y-117716190D02*
X124789047Y-117716190D01*
X124931904Y-117716190D02*
X124931904Y-117216190D01*
X124884285Y-117287619D01*
X124836666Y-117335238D01*
X124789047Y-117359047D01*
X125503333Y-117382857D02*
X125503333Y-117716190D01*
X125384285Y-117192380D02*
X125265238Y-117549523D01*
X125574761Y-117549523D01*
D11*
X125070476Y-114611904D02*
X125070476Y-115259523D01*
X125108571Y-115335714D01*
X125146666Y-115373809D01*
X125222857Y-115411904D01*
X125375238Y-115411904D01*
X125451428Y-115373809D01*
X125489523Y-115335714D01*
X125527619Y-115259523D01*
X125527619Y-114611904D01*
X126251428Y-114878571D02*
X126251428Y-115411904D01*
X126060952Y-114573809D02*
X125870476Y-115145238D01*
X126365714Y-115145238D01*
X150174333Y-128780333D02*
X150107666Y-128747000D01*
X150041000Y-128680333D01*
X149941000Y-128580333D01*
X149874333Y-128547000D01*
X149807666Y-128547000D01*
X149841000Y-128713666D02*
X149774333Y-128680333D01*
X149707666Y-128613666D01*
X149674333Y-128480333D01*
X149674333Y-128247000D01*
X149707666Y-128113666D01*
X149774333Y-128047000D01*
X149841000Y-128013666D01*
X149974333Y-128013666D01*
X150041000Y-128047000D01*
X150107666Y-128113666D01*
X150141000Y-128247000D01*
X150141000Y-128480333D01*
X150107666Y-128613666D01*
X150041000Y-128680333D01*
X149974333Y-128713666D01*
X149841000Y-128713666D01*
X150374333Y-128013666D02*
X150807666Y-128013666D01*
X150574333Y-128280333D01*
X150674333Y-128280333D01*
X150741000Y-128313666D01*
X150774333Y-128347000D01*
X150807666Y-128413666D01*
X150807666Y-128580333D01*
X150774333Y-128647000D01*
X150741000Y-128680333D01*
X150674333Y-128713666D01*
X150474333Y-128713666D01*
X150407666Y-128680333D01*
X150374333Y-128647000D01*
D12*
X127506666Y-105936190D02*
X127340000Y-105698095D01*
X127220952Y-105936190D02*
X127220952Y-105436190D01*
X127411428Y-105436190D01*
X127459047Y-105460000D01*
X127482857Y-105483809D01*
X127506666Y-105531428D01*
X127506666Y-105602857D01*
X127482857Y-105650476D01*
X127459047Y-105674285D01*
X127411428Y-105698095D01*
X127220952Y-105698095D01*
X127959047Y-105436190D02*
X127720952Y-105436190D01*
X127697142Y-105674285D01*
X127720952Y-105650476D01*
X127768571Y-105626666D01*
X127887619Y-105626666D01*
X127935238Y-105650476D01*
X127959047Y-105674285D01*
X127982857Y-105721904D01*
X127982857Y-105840952D01*
X127959047Y-105888571D01*
X127935238Y-105912380D01*
X127887619Y-105936190D01*
X127768571Y-105936190D01*
X127720952Y-105912380D01*
X127697142Y-105888571D01*
X129678571Y-129316190D02*
X129511904Y-129078095D01*
X129392857Y-129316190D02*
X129392857Y-128816190D01*
X129583333Y-128816190D01*
X129630952Y-128840000D01*
X129654761Y-128863809D01*
X129678571Y-128911428D01*
X129678571Y-128982857D01*
X129654761Y-129030476D01*
X129630952Y-129054285D01*
X129583333Y-129078095D01*
X129392857Y-129078095D01*
X130154761Y-129316190D02*
X129869047Y-129316190D01*
X130011904Y-129316190D02*
X130011904Y-128816190D01*
X129964285Y-128887619D01*
X129916666Y-128935238D01*
X129869047Y-128959047D01*
X130345238Y-128863809D02*
X130369047Y-128840000D01*
X130416666Y-128816190D01*
X130535714Y-128816190D01*
X130583333Y-128840000D01*
X130607142Y-128863809D01*
X130630952Y-128911428D01*
X130630952Y-128959047D01*
X130607142Y-129030476D01*
X130321428Y-129316190D01*
X130630952Y-129316190D01*
D11*
X118891904Y-110912976D02*
X118091904Y-110912976D01*
X118091904Y-110722500D01*
X118130000Y-110608214D01*
X118206190Y-110532023D01*
X118282380Y-110493928D01*
X118434761Y-110455833D01*
X118549047Y-110455833D01*
X118701428Y-110493928D01*
X118777619Y-110532023D01*
X118853809Y-110608214D01*
X118891904Y-110722500D01*
X118891904Y-110912976D01*
X118091904Y-110189166D02*
X118091904Y-109693928D01*
X118396666Y-109960595D01*
X118396666Y-109846309D01*
X118434761Y-109770119D01*
X118472857Y-109732023D01*
X118549047Y-109693928D01*
X118739523Y-109693928D01*
X118815714Y-109732023D01*
X118853809Y-109770119D01*
X118891904Y-109846309D01*
X118891904Y-110074880D01*
X118853809Y-110151071D01*
X118815714Y-110189166D01*
X149351904Y-120192380D02*
X149351904Y-119192380D01*
X149923333Y-120192380D02*
X149494761Y-119620952D01*
X149923333Y-119192380D02*
X149351904Y-119763809D01*
X150304285Y-119287619D02*
X150351904Y-119240000D01*
X150447142Y-119192380D01*
X150685238Y-119192380D01*
X150780476Y-119240000D01*
X150828095Y-119287619D01*
X150875714Y-119382857D01*
X150875714Y-119478095D01*
X150828095Y-119620952D01*
X150256666Y-120192380D01*
X150875714Y-120192380D01*
X119442380Y-120641904D02*
X119442380Y-121213333D01*
X119404285Y-121327619D01*
X119328095Y-121403809D01*
X119213809Y-121441904D01*
X119137619Y-121441904D01*
X120242380Y-121441904D02*
X119785238Y-121441904D01*
X120013809Y-121441904D02*
X120013809Y-120641904D01*
X119937619Y-120756190D01*
X119861428Y-120832380D01*
X119785238Y-120870476D01*
X121004285Y-121441904D02*
X120547142Y-121441904D01*
X120775714Y-121441904D02*
X120775714Y-120641904D01*
X120699523Y-120756190D01*
X120623333Y-120832380D01*
X120547142Y-120870476D01*
D12*
X131175066Y-118860371D02*
X131151257Y-118884180D01*
X131079828Y-118907990D01*
X131032209Y-118907990D01*
X130960780Y-118884180D01*
X130913161Y-118836561D01*
X130889352Y-118788942D01*
X130865542Y-118693704D01*
X130865542Y-118622276D01*
X130889352Y-118527038D01*
X130913161Y-118479419D01*
X130960780Y-118431800D01*
X131032209Y-118407990D01*
X131079828Y-118407990D01*
X131151257Y-118431800D01*
X131175066Y-118455609D01*
X131413161Y-118907990D02*
X131508400Y-118907990D01*
X131556019Y-118884180D01*
X131579828Y-118860371D01*
X131627447Y-118788942D01*
X131651257Y-118693704D01*
X131651257Y-118503228D01*
X131627447Y-118455609D01*
X131603638Y-118431800D01*
X131556019Y-118407990D01*
X131460780Y-118407990D01*
X131413161Y-118431800D01*
X131389352Y-118455609D01*
X131365542Y-118503228D01*
X131365542Y-118622276D01*
X131389352Y-118669895D01*
X131413161Y-118693704D01*
X131460780Y-118717514D01*
X131556019Y-118717514D01*
X131603638Y-118693704D01*
X131627447Y-118669895D01*
X131651257Y-118622276D01*
D11*
X131134285Y-116044285D02*
X131105714Y-116072857D01*
X131020000Y-116101428D01*
X130962857Y-116101428D01*
X130877142Y-116072857D01*
X130820000Y-116015714D01*
X130791428Y-115958571D01*
X130762857Y-115844285D01*
X130762857Y-115758571D01*
X130791428Y-115644285D01*
X130820000Y-115587142D01*
X130877142Y-115530000D01*
X130962857Y-115501428D01*
X131020000Y-115501428D01*
X131105714Y-115530000D01*
X131134285Y-115558571D01*
X131705714Y-116101428D02*
X131362857Y-116101428D01*
X131534285Y-116101428D02*
X131534285Y-115501428D01*
X131477142Y-115587142D01*
X131420000Y-115644285D01*
X131362857Y-115672857D01*
X132077142Y-115501428D02*
X132134285Y-115501428D01*
X132191428Y-115530000D01*
X132220000Y-115558571D01*
X132248571Y-115615714D01*
X132277142Y-115730000D01*
X132277142Y-115872857D01*
X132248571Y-115987142D01*
X132220000Y-116044285D01*
X132191428Y-116072857D01*
X132134285Y-116101428D01*
X132077142Y-116101428D01*
X132020000Y-116072857D01*
X131991428Y-116044285D01*
X131962857Y-115987142D01*
X131934285Y-115872857D01*
X131934285Y-115730000D01*
X131962857Y-115615714D01*
X131991428Y-115558571D01*
X132020000Y-115530000D01*
X132077142Y-115501428D01*
D12*
X124598571Y-118828571D02*
X124574761Y-118852380D01*
X124503333Y-118876190D01*
X124455714Y-118876190D01*
X124384285Y-118852380D01*
X124336666Y-118804761D01*
X124312857Y-118757142D01*
X124289047Y-118661904D01*
X124289047Y-118590476D01*
X124312857Y-118495238D01*
X124336666Y-118447619D01*
X124384285Y-118400000D01*
X124455714Y-118376190D01*
X124503333Y-118376190D01*
X124574761Y-118400000D01*
X124598571Y-118423809D01*
X125074761Y-118876190D02*
X124789047Y-118876190D01*
X124931904Y-118876190D02*
X124931904Y-118376190D01*
X124884285Y-118447619D01*
X124836666Y-118495238D01*
X124789047Y-118519047D01*
X125241428Y-118376190D02*
X125550952Y-118376190D01*
X125384285Y-118566666D01*
X125455714Y-118566666D01*
X125503333Y-118590476D01*
X125527142Y-118614285D01*
X125550952Y-118661904D01*
X125550952Y-118780952D01*
X125527142Y-118828571D01*
X125503333Y-118852380D01*
X125455714Y-118876190D01*
X125312857Y-118876190D01*
X125265238Y-118852380D01*
X125241428Y-118828571D01*
D11*
X147760833Y-122414466D02*
X147527500Y-122081133D01*
X147360833Y-122414466D02*
X147360833Y-121714466D01*
X147627500Y-121714466D01*
X147694166Y-121747800D01*
X147727500Y-121781133D01*
X147760833Y-121847800D01*
X147760833Y-121947800D01*
X147727500Y-122014466D01*
X147694166Y-122047800D01*
X147627500Y-122081133D01*
X147360833Y-122081133D01*
X147994166Y-121714466D02*
X148427500Y-121714466D01*
X148194166Y-121981133D01*
X148294166Y-121981133D01*
X148360833Y-122014466D01*
X148394166Y-122047800D01*
X148427500Y-122114466D01*
X148427500Y-122281133D01*
X148394166Y-122347800D01*
X148360833Y-122381133D01*
X148294166Y-122414466D01*
X148094166Y-122414466D01*
X148027500Y-122381133D01*
X147994166Y-122347800D01*
D12*
X128536666Y-129218571D02*
X128512857Y-129242380D01*
X128441428Y-129266190D01*
X128393809Y-129266190D01*
X128322380Y-129242380D01*
X128274761Y-129194761D01*
X128250952Y-129147142D01*
X128227142Y-129051904D01*
X128227142Y-128980476D01*
X128250952Y-128885238D01*
X128274761Y-128837619D01*
X128322380Y-128790000D01*
X128393809Y-128766190D01*
X128441428Y-128766190D01*
X128512857Y-128790000D01*
X128536666Y-128813809D01*
X128822380Y-128980476D02*
X128774761Y-128956666D01*
X128750952Y-128932857D01*
X128727142Y-128885238D01*
X128727142Y-128861428D01*
X128750952Y-128813809D01*
X128774761Y-128790000D01*
X128822380Y-128766190D01*
X128917619Y-128766190D01*
X128965238Y-128790000D01*
X128989047Y-128813809D01*
X129012857Y-128861428D01*
X129012857Y-128885238D01*
X128989047Y-128932857D01*
X128965238Y-128956666D01*
X128917619Y-128980476D01*
X128822380Y-128980476D01*
X128774761Y-129004285D01*
X128750952Y-129028095D01*
X128727142Y-129075714D01*
X128727142Y-129170952D01*
X128750952Y-129218571D01*
X128774761Y-129242380D01*
X128822380Y-129266190D01*
X128917619Y-129266190D01*
X128965238Y-129242380D01*
X128989047Y-129218571D01*
X129012857Y-129170952D01*
X129012857Y-129075714D01*
X128989047Y-129028095D01*
X128965238Y-129004285D01*
X128917619Y-128980476D01*
D11*
X163656666Y-130712380D02*
X163656666Y-131426666D01*
X163609047Y-131569523D01*
X163513809Y-131664761D01*
X163370952Y-131712380D01*
X163275714Y-131712380D01*
X164609047Y-130712380D02*
X164132857Y-130712380D01*
X164085238Y-131188571D01*
X164132857Y-131140952D01*
X164228095Y-131093333D01*
X164466190Y-131093333D01*
X164561428Y-131140952D01*
X164609047Y-131188571D01*
X164656666Y-131283809D01*
X164656666Y-131521904D01*
X164609047Y-131617142D01*
X164561428Y-131664761D01*
X164466190Y-131712380D01*
X164228095Y-131712380D01*
X164132857Y-131664761D01*
X164085238Y-131617142D01*
D12*
X132446666Y-128246190D02*
X132280000Y-128008095D01*
X132160952Y-128246190D02*
X132160952Y-127746190D01*
X132351428Y-127746190D01*
X132399047Y-127770000D01*
X132422857Y-127793809D01*
X132446666Y-127841428D01*
X132446666Y-127912857D01*
X132422857Y-127960476D01*
X132399047Y-127984285D01*
X132351428Y-128008095D01*
X132160952Y-128008095D01*
X132732380Y-127960476D02*
X132684761Y-127936666D01*
X132660952Y-127912857D01*
X132637142Y-127865238D01*
X132637142Y-127841428D01*
X132660952Y-127793809D01*
X132684761Y-127770000D01*
X132732380Y-127746190D01*
X132827619Y-127746190D01*
X132875238Y-127770000D01*
X132899047Y-127793809D01*
X132922857Y-127841428D01*
X132922857Y-127865238D01*
X132899047Y-127912857D01*
X132875238Y-127936666D01*
X132827619Y-127960476D01*
X132732380Y-127960476D01*
X132684761Y-127984285D01*
X132660952Y-128008095D01*
X132637142Y-128055714D01*
X132637142Y-128150952D01*
X132660952Y-128198571D01*
X132684761Y-128222380D01*
X132732380Y-128246190D01*
X132827619Y-128246190D01*
X132875238Y-128222380D01*
X132899047Y-128198571D01*
X132922857Y-128150952D01*
X132922857Y-128055714D01*
X132899047Y-128008095D01*
X132875238Y-127984285D01*
X132827619Y-127960476D01*
X125726666Y-116306190D02*
X125560000Y-116068095D01*
X125440952Y-116306190D02*
X125440952Y-115806190D01*
X125631428Y-115806190D01*
X125679047Y-115830000D01*
X125702857Y-115853809D01*
X125726666Y-115901428D01*
X125726666Y-115972857D01*
X125702857Y-116020476D01*
X125679047Y-116044285D01*
X125631428Y-116068095D01*
X125440952Y-116068095D01*
X126155238Y-115806190D02*
X126060000Y-115806190D01*
X126012380Y-115830000D01*
X125988571Y-115853809D01*
X125940952Y-115925238D01*
X125917142Y-116020476D01*
X125917142Y-116210952D01*
X125940952Y-116258571D01*
X125964761Y-116282380D01*
X126012380Y-116306190D01*
X126107619Y-116306190D01*
X126155238Y-116282380D01*
X126179047Y-116258571D01*
X126202857Y-116210952D01*
X126202857Y-116091904D01*
X126179047Y-116044285D01*
X126155238Y-116020476D01*
X126107619Y-115996666D01*
X126012380Y-115996666D01*
X125964761Y-116020476D01*
X125940952Y-116044285D01*
X125917142Y-116091904D01*
D11*
X133186666Y-130872380D02*
X133186666Y-131586666D01*
X133139047Y-131729523D01*
X133043809Y-131824761D01*
X132900952Y-131872380D01*
X132805714Y-131872380D01*
X134091428Y-130872380D02*
X133900952Y-130872380D01*
X133805714Y-130920000D01*
X133758095Y-130967619D01*
X133662857Y-131110476D01*
X133615238Y-131300952D01*
X133615238Y-131681904D01*
X133662857Y-131777142D01*
X133710476Y-131824761D01*
X133805714Y-131872380D01*
X133996190Y-131872380D01*
X134091428Y-131824761D01*
X134139047Y-131777142D01*
X134186666Y-131681904D01*
X134186666Y-131443809D01*
X134139047Y-131348571D01*
X134091428Y-131300952D01*
X133996190Y-131253333D01*
X133805714Y-131253333D01*
X133710476Y-131300952D01*
X133662857Y-131348571D01*
X133615238Y-131443809D01*
X131010476Y-121671904D02*
X131010476Y-122319523D01*
X131048571Y-122395714D01*
X131086666Y-122433809D01*
X131162857Y-122471904D01*
X131315238Y-122471904D01*
X131391428Y-122433809D01*
X131429523Y-122395714D01*
X131467619Y-122319523D01*
X131467619Y-121671904D01*
X131810476Y-121748095D02*
X131848571Y-121710000D01*
X131924761Y-121671904D01*
X132115238Y-121671904D01*
X132191428Y-121710000D01*
X132229523Y-121748095D01*
X132267619Y-121824285D01*
X132267619Y-121900476D01*
X132229523Y-122014761D01*
X131772380Y-122471904D01*
X132267619Y-122471904D01*
D12*
X130966666Y-117136190D02*
X130800000Y-116898095D01*
X130680952Y-117136190D02*
X130680952Y-116636190D01*
X130871428Y-116636190D01*
X130919047Y-116660000D01*
X130942857Y-116683809D01*
X130966666Y-116731428D01*
X130966666Y-116802857D01*
X130942857Y-116850476D01*
X130919047Y-116874285D01*
X130871428Y-116898095D01*
X130680952Y-116898095D01*
X131133333Y-116636190D02*
X131466666Y-116636190D01*
X131252380Y-117136190D01*
X128156666Y-117128571D02*
X128132857Y-117152380D01*
X128061428Y-117176190D01*
X128013809Y-117176190D01*
X127942380Y-117152380D01*
X127894761Y-117104761D01*
X127870952Y-117057142D01*
X127847142Y-116961904D01*
X127847142Y-116890476D01*
X127870952Y-116795238D01*
X127894761Y-116747619D01*
X127942380Y-116700000D01*
X128013809Y-116676190D01*
X128061428Y-116676190D01*
X128132857Y-116700000D01*
X128156666Y-116723809D01*
X128585238Y-116842857D02*
X128585238Y-117176190D01*
X128466190Y-116652380D02*
X128347142Y-117009523D01*
X128656666Y-117009523D01*
D11*
X142960142Y-122538380D02*
X142626809Y-122062190D01*
X142388714Y-122538380D02*
X142388714Y-121538380D01*
X142769666Y-121538380D01*
X142864904Y-121586000D01*
X142912523Y-121633619D01*
X142960142Y-121728857D01*
X142960142Y-121871714D01*
X142912523Y-121966952D01*
X142864904Y-122014571D01*
X142769666Y-122062190D01*
X142388714Y-122062190D01*
X143912523Y-122538380D02*
X143341095Y-122538380D01*
X143626809Y-122538380D02*
X143626809Y-121538380D01*
X143531571Y-121681238D01*
X143436333Y-121776476D01*
X143341095Y-121824095D01*
X144245857Y-121538380D02*
X144912523Y-121538380D01*
X144483952Y-122538380D01*
D12*
X131176971Y-117887990D02*
X131010304Y-117649895D01*
X130891257Y-117887990D02*
X130891257Y-117387990D01*
X131081733Y-117387990D01*
X131129352Y-117411800D01*
X131153161Y-117435609D01*
X131176971Y-117483228D01*
X131176971Y-117554657D01*
X131153161Y-117602276D01*
X131129352Y-117626085D01*
X131081733Y-117649895D01*
X130891257Y-117649895D01*
X131653161Y-117887990D02*
X131367447Y-117887990D01*
X131510304Y-117887990D02*
X131510304Y-117387990D01*
X131462685Y-117459419D01*
X131415066Y-117507038D01*
X131367447Y-117530847D01*
X132105542Y-117387990D02*
X131867447Y-117387990D01*
X131843638Y-117626085D01*
X131867447Y-117602276D01*
X131915066Y-117578466D01*
X132034114Y-117578466D01*
X132081733Y-117602276D01*
X132105542Y-117626085D01*
X132129352Y-117673704D01*
X132129352Y-117792752D01*
X132105542Y-117840371D01*
X132081733Y-117864180D01*
X132034114Y-117887990D01*
X131915066Y-117887990D01*
X131867447Y-117864180D01*
X131843638Y-117840371D01*
D11*
X135485904Y-122714380D02*
X135485904Y-121714380D01*
X135724000Y-121714380D01*
X135866857Y-121762000D01*
X135962095Y-121857238D01*
X136009714Y-121952476D01*
X136057333Y-122142952D01*
X136057333Y-122285809D01*
X136009714Y-122476285D01*
X135962095Y-122571523D01*
X135866857Y-122666761D01*
X135724000Y-122714380D01*
X135485904Y-122714380D01*
X136962095Y-121714380D02*
X136485904Y-121714380D01*
X136438285Y-122190571D01*
X136485904Y-122142952D01*
X136581142Y-122095333D01*
X136819238Y-122095333D01*
X136914476Y-122142952D01*
X136962095Y-122190571D01*
X137009714Y-122285809D01*
X137009714Y-122523904D01*
X136962095Y-122619142D01*
X136914476Y-122666761D01*
X136819238Y-122714380D01*
X136581142Y-122714380D01*
X136485904Y-122666761D01*
X136438285Y-122619142D01*
X130486666Y-107685714D02*
X130448571Y-107723809D01*
X130334285Y-107761904D01*
X130258095Y-107761904D01*
X130143809Y-107723809D01*
X130067619Y-107647619D01*
X130029523Y-107571428D01*
X129991428Y-107419047D01*
X129991428Y-107304761D01*
X130029523Y-107152380D01*
X130067619Y-107076190D01*
X130143809Y-107000000D01*
X130258095Y-106961904D01*
X130334285Y-106961904D01*
X130448571Y-107000000D01*
X130486666Y-107038095D01*
X131172380Y-106961904D02*
X131020000Y-106961904D01*
X130943809Y-107000000D01*
X130905714Y-107038095D01*
X130829523Y-107152380D01*
X130791428Y-107304761D01*
X130791428Y-107609523D01*
X130829523Y-107685714D01*
X130867619Y-107723809D01*
X130943809Y-107761904D01*
X131096190Y-107761904D01*
X131172380Y-107723809D01*
X131210476Y-107685714D01*
X131248571Y-107609523D01*
X131248571Y-107419047D01*
X131210476Y-107342857D01*
X131172380Y-107304761D01*
X131096190Y-107266666D01*
X130943809Y-107266666D01*
X130867619Y-107304761D01*
X130829523Y-107342857D01*
X130791428Y-107419047D01*
D12*
X123028571Y-127288571D02*
X123004761Y-127312380D01*
X122933333Y-127336190D01*
X122885714Y-127336190D01*
X122814285Y-127312380D01*
X122766666Y-127264761D01*
X122742857Y-127217142D01*
X122719047Y-127121904D01*
X122719047Y-127050476D01*
X122742857Y-126955238D01*
X122766666Y-126907619D01*
X122814285Y-126860000D01*
X122885714Y-126836190D01*
X122933333Y-126836190D01*
X123004761Y-126860000D01*
X123028571Y-126883809D01*
X123504761Y-127336190D02*
X123219047Y-127336190D01*
X123361904Y-127336190D02*
X123361904Y-126836190D01*
X123314285Y-126907619D01*
X123266666Y-126955238D01*
X123219047Y-126979047D01*
X123980952Y-127336190D02*
X123695238Y-127336190D01*
X123838095Y-127336190D02*
X123838095Y-126836190D01*
X123790476Y-126907619D01*
X123742857Y-126955238D01*
X123695238Y-126979047D01*
D11*
X150047333Y-123370133D02*
X149980666Y-123336800D01*
X149914000Y-123270133D01*
X149814000Y-123170133D01*
X149747333Y-123136800D01*
X149680666Y-123136800D01*
X149714000Y-123303466D02*
X149647333Y-123270133D01*
X149580666Y-123203466D01*
X149547333Y-123070133D01*
X149547333Y-122836800D01*
X149580666Y-122703466D01*
X149647333Y-122636800D01*
X149714000Y-122603466D01*
X149847333Y-122603466D01*
X149914000Y-122636800D01*
X149980666Y-122703466D01*
X150014000Y-122836800D01*
X150014000Y-123070133D01*
X149980666Y-123203466D01*
X149914000Y-123270133D01*
X149847333Y-123303466D01*
X149714000Y-123303466D01*
X150280666Y-122670133D02*
X150314000Y-122636800D01*
X150380666Y-122603466D01*
X150547333Y-122603466D01*
X150614000Y-122636800D01*
X150647333Y-122670133D01*
X150680666Y-122736800D01*
X150680666Y-122803466D01*
X150647333Y-122903466D01*
X150247333Y-123303466D01*
X150680666Y-123303466D01*
X118163333Y-96901904D02*
X118163333Y-97473333D01*
X118125238Y-97587619D01*
X118049047Y-97663809D01*
X117934761Y-97701904D01*
X117858571Y-97701904D01*
X118887142Y-97168571D02*
X118887142Y-97701904D01*
X118696666Y-96863809D02*
X118506190Y-97435238D01*
X119001428Y-97435238D01*
X174783761Y-115482619D02*
X174688523Y-115435000D01*
X174593285Y-115339761D01*
X174450428Y-115196904D01*
X174355190Y-115149285D01*
X174259952Y-115149285D01*
X174307571Y-115387380D02*
X174212333Y-115339761D01*
X174117095Y-115244523D01*
X174069476Y-115054047D01*
X174069476Y-114720714D01*
X174117095Y-114530238D01*
X174212333Y-114435000D01*
X174307571Y-114387380D01*
X174498047Y-114387380D01*
X174593285Y-114435000D01*
X174688523Y-114530238D01*
X174736142Y-114720714D01*
X174736142Y-115054047D01*
X174688523Y-115244523D01*
X174593285Y-115339761D01*
X174498047Y-115387380D01*
X174307571Y-115387380D01*
X175688523Y-115387380D02*
X175117095Y-115387380D01*
X175402809Y-115387380D02*
X175402809Y-114387380D01*
X175307571Y-114530238D01*
X175212333Y-114625476D01*
X175117095Y-114673095D01*
X165500476Y-97751904D02*
X165500476Y-98399523D01*
X165538571Y-98475714D01*
X165576666Y-98513809D01*
X165652857Y-98551904D01*
X165805238Y-98551904D01*
X165881428Y-98513809D01*
X165919523Y-98475714D01*
X165957619Y-98399523D01*
X165957619Y-97751904D01*
X166757619Y-98551904D02*
X166300476Y-98551904D01*
X166529047Y-98551904D02*
X166529047Y-97751904D01*
X166452857Y-97866190D01*
X166376666Y-97942380D01*
X166300476Y-97980476D01*
X122110476Y-109661904D02*
X122110476Y-110309523D01*
X122148571Y-110385714D01*
X122186666Y-110423809D01*
X122262857Y-110461904D01*
X122415238Y-110461904D01*
X122491428Y-110423809D01*
X122529523Y-110385714D01*
X122567619Y-110309523D01*
X122567619Y-109661904D01*
X122872380Y-109661904D02*
X123367619Y-109661904D01*
X123100952Y-109966666D01*
X123215238Y-109966666D01*
X123291428Y-110004761D01*
X123329523Y-110042857D01*
X123367619Y-110119047D01*
X123367619Y-110309523D01*
X123329523Y-110385714D01*
X123291428Y-110423809D01*
X123215238Y-110461904D01*
X122986666Y-110461904D01*
X122910476Y-110423809D01*
X122872380Y-110385714D01*
D12*
X174315666Y-110985714D02*
X174277571Y-111023809D01*
X174163285Y-111061904D01*
X174087095Y-111061904D01*
X173972809Y-111023809D01*
X173896619Y-110947619D01*
X173858523Y-110871428D01*
X173820428Y-110719047D01*
X173820428Y-110604761D01*
X173858523Y-110452380D01*
X173896619Y-110376190D01*
X173972809Y-110300000D01*
X174087095Y-110261904D01*
X174163285Y-110261904D01*
X174277571Y-110300000D01*
X174315666Y-110338095D01*
X175077571Y-111061904D02*
X174620428Y-111061904D01*
X174849000Y-111061904D02*
X174849000Y-110261904D01*
X174772809Y-110376190D01*
X174696619Y-110452380D01*
X174620428Y-110490476D01*
D11*
X159881142Y-122440380D02*
X159547809Y-121964190D01*
X159309714Y-122440380D02*
X159309714Y-121440380D01*
X159690666Y-121440380D01*
X159785904Y-121488000D01*
X159833523Y-121535619D01*
X159881142Y-121630857D01*
X159881142Y-121773714D01*
X159833523Y-121868952D01*
X159785904Y-121916571D01*
X159690666Y-121964190D01*
X159309714Y-121964190D01*
X160833523Y-122440380D02*
X160262095Y-122440380D01*
X160547809Y-122440380D02*
X160547809Y-121440380D01*
X160452571Y-121583238D01*
X160357333Y-121678476D01*
X160262095Y-121726095D01*
X161690666Y-121440380D02*
X161500190Y-121440380D01*
X161404952Y-121488000D01*
X161357333Y-121535619D01*
X161262095Y-121678476D01*
X161214476Y-121868952D01*
X161214476Y-122249904D01*
X161262095Y-122345142D01*
X161309714Y-122392761D01*
X161404952Y-122440380D01*
X161595428Y-122440380D01*
X161690666Y-122392761D01*
X161738285Y-122345142D01*
X161785904Y-122249904D01*
X161785904Y-122011809D01*
X161738285Y-121916571D01*
X161690666Y-121868952D01*
X161595428Y-121821333D01*
X161404952Y-121821333D01*
X161309714Y-121868952D01*
X161262095Y-121916571D01*
X161214476Y-122011809D01*
D12*
X125788571Y-129236190D02*
X125621904Y-128998095D01*
X125502857Y-129236190D02*
X125502857Y-128736190D01*
X125693333Y-128736190D01*
X125740952Y-128760000D01*
X125764761Y-128783809D01*
X125788571Y-128831428D01*
X125788571Y-128902857D01*
X125764761Y-128950476D01*
X125740952Y-128974285D01*
X125693333Y-128998095D01*
X125502857Y-128998095D01*
X126264761Y-129236190D02*
X125979047Y-129236190D01*
X126121904Y-129236190D02*
X126121904Y-128736190D01*
X126074285Y-128807619D01*
X126026666Y-128855238D01*
X125979047Y-128879047D01*
X126574285Y-128736190D02*
X126621904Y-128736190D01*
X126669523Y-128760000D01*
X126693333Y-128783809D01*
X126717142Y-128831428D01*
X126740952Y-128926666D01*
X126740952Y-129045714D01*
X126717142Y-129140952D01*
X126693333Y-129188571D01*
X126669523Y-129212380D01*
X126621904Y-129236190D01*
X126574285Y-129236190D01*
X126526666Y-129212380D01*
X126502857Y-129188571D01*
X126479047Y-129140952D01*
X126455238Y-129045714D01*
X126455238Y-128926666D01*
X126479047Y-128831428D01*
X126502857Y-128783809D01*
X126526666Y-128760000D01*
X126574285Y-128736190D01*
D11*
X148092333Y-127824666D02*
X147859000Y-127491333D01*
X147692333Y-127824666D02*
X147692333Y-127124666D01*
X147959000Y-127124666D01*
X148025666Y-127158000D01*
X148059000Y-127191333D01*
X148092333Y-127258000D01*
X148092333Y-127358000D01*
X148059000Y-127424666D01*
X148025666Y-127458000D01*
X147959000Y-127491333D01*
X147692333Y-127491333D01*
X148692333Y-127358000D02*
X148692333Y-127824666D01*
X148525666Y-127091333D02*
X148359000Y-127591333D01*
X148792333Y-127591333D01*
D12*
X123076571Y-128292571D02*
X123052761Y-128316380D01*
X122981333Y-128340190D01*
X122933714Y-128340190D01*
X122862285Y-128316380D01*
X122814666Y-128268761D01*
X122790857Y-128221142D01*
X122767047Y-128125904D01*
X122767047Y-128054476D01*
X122790857Y-127959238D01*
X122814666Y-127911619D01*
X122862285Y-127864000D01*
X122933714Y-127840190D01*
X122981333Y-127840190D01*
X123052761Y-127864000D01*
X123076571Y-127887809D01*
X123552761Y-128340190D02*
X123267047Y-128340190D01*
X123409904Y-128340190D02*
X123409904Y-127840190D01*
X123362285Y-127911619D01*
X123314666Y-127959238D01*
X123267047Y-127983047D01*
X123743238Y-127887809D02*
X123767047Y-127864000D01*
X123814666Y-127840190D01*
X123933714Y-127840190D01*
X123981333Y-127864000D01*
X124005142Y-127887809D01*
X124028952Y-127935428D01*
X124028952Y-127983047D01*
X124005142Y-128054476D01*
X123719428Y-128340190D01*
X124028952Y-128340190D01*
X130338571Y-121963333D02*
X130362380Y-121987142D01*
X130386190Y-122058571D01*
X130386190Y-122106190D01*
X130362380Y-122177619D01*
X130314761Y-122225238D01*
X130267142Y-122249047D01*
X130171904Y-122272857D01*
X130100476Y-122272857D01*
X130005238Y-122249047D01*
X129957619Y-122225238D01*
X129910000Y-122177619D01*
X129886190Y-122106190D01*
X129886190Y-122058571D01*
X129910000Y-121987142D01*
X129933809Y-121963333D01*
X129886190Y-121510952D02*
X129886190Y-121749047D01*
X130124285Y-121772857D01*
X130100476Y-121749047D01*
X130076666Y-121701428D01*
X130076666Y-121582380D01*
X130100476Y-121534761D01*
X130124285Y-121510952D01*
X130171904Y-121487142D01*
X130290952Y-121487142D01*
X130338571Y-121510952D01*
X130362380Y-121534761D01*
X130386190Y-121582380D01*
X130386190Y-121701428D01*
X130362380Y-121749047D01*
X130338571Y-121772857D01*
D13*
X180265000Y-109095000D02*
X180393000Y-109224000D01*
X180505000Y-101925000D02*
X180598000Y-102019000D01*
X183484000Y-113500000D02*
X184124000Y-113500000D01*
X178255000Y-106675000D02*
X178383000Y-106804000D01*
X178049000Y-106880000D02*
X178143000Y-106974000D01*
X178049000Y-103380000D02*
X178143000Y-103474000D01*
X180265000Y-105595000D02*
X180393000Y-105724000D01*
X183424000Y-113260000D02*
X183424000Y-99140000D01*
X180265000Y-102095000D02*
X180393000Y-102224000D01*
X182324000Y-113260000D02*
X182324000Y-99140000D01*
X178049000Y-99880000D02*
X178143000Y-99974000D01*
X184124000Y-113500000D02*
X184124000Y-113100000D01*
X176164000Y-113260000D02*
X183884000Y-113260000D01*
X183884000Y-113260000D02*
X183884000Y-99140000D01*
X176164000Y-99140000D02*
X183884000Y-99140000D01*
X178255000Y-99675000D02*
X178383000Y-99804000D01*
X180505000Y-108925000D02*
X180598000Y-109019000D01*
X180505000Y-105425000D02*
X180598000Y-105519000D01*
X176164000Y-113260000D02*
X176164000Y-99140000D01*
X178255000Y-103175000D02*
X178383000Y-103304000D01*
X177883999Y-110584000D02*
G75*
G03*
X177898642Y-112339894I1439999J-866000D01*
G01*
X178458000Y-112890001D02*
G75*
G03*
X180213894Y-112875358I866000J1439999D01*
G01*
X180764000Y-112316000D02*
G75*
G03*
X181004099Y-111421326I-1440014J866003D01*
G01*
X181004000Y-111450000D02*
G75*
G03*
X180748721Y-110559736I-1679990J3D01*
G01*
X180215000Y-110025000D02*
G75*
G03*
X178433807Y-110024496I-891000J-1425003D01*
G01*
X181004000Y-100950000D02*
G75*
G03*
X181004000Y-100950000I-1680000J0D01*
G01*
X181004000Y-104450000D02*
G75*
G03*
X181004000Y-104450000I-1680000J0D01*
G01*
X181004000Y-107950000D02*
G75*
G03*
X181004000Y-107950000I-1680000J0D01*
G01*
X156430000Y-121507000D02*
X154145000Y-121507000D01*
X154145000Y-122977000D02*
X156430000Y-122977000D01*
X154145000Y-121507000D02*
X154145000Y-122977000D01*
X124985000Y-131790000D02*
X123655000Y-131790000D01*
X123655000Y-131790000D02*
X123655000Y-130460000D01*
X172633641Y-113914000D02*
X172326359Y-113914000D01*
X172633641Y-114674000D02*
X172326359Y-114674000D01*
X130859559Y-126721600D02*
X131166841Y-126721600D01*
X130859559Y-127481600D02*
X131166841Y-127481600D01*
X174850000Y-105426420D02*
X174850000Y-105707580D01*
X173830000Y-105426420D02*
X173830000Y-105707580D01*
X169560000Y-105479000D02*
X167360000Y-105479000D01*
X169560000Y-113549000D02*
X167360000Y-113549000D01*
X169560000Y-113549000D02*
X173160000Y-113549000D01*
X169560000Y-105479000D02*
X171760000Y-105479000D01*
X171703000Y-116739641D02*
X171703000Y-116432359D01*
X170943000Y-116739641D02*
X170943000Y-116432359D01*
D11*
X123879800Y-126236400D02*
X123879800Y-120536400D01*
X129404800Y-120511400D02*
X129379800Y-120511400D01*
X129404800Y-125161400D02*
X129404800Y-120511400D01*
X129404800Y-125161400D02*
X129379800Y-125161400D01*
X123879800Y-120536400D02*
X123979800Y-120536400D01*
D13*
X136132000Y-114574605D02*
X138582000Y-114574605D01*
X138482000Y-108474605D02*
X142082000Y-104474605D01*
X140282000Y-109874605D02*
X136682000Y-109874605D01*
X134282000Y-103974605D02*
X134282000Y-106474605D01*
X140282000Y-103074605D02*
X136682000Y-103074605D01*
X146282000Y-106474605D02*
X142082000Y-106474605D01*
X140282000Y-111374605D02*
X142782000Y-115974605D01*
X142082000Y-104474605D02*
X142082000Y-108474605D01*
X138482000Y-108474605D02*
X138482000Y-104474605D01*
X138482000Y-106474605D02*
X134282000Y-106474605D01*
X148132000Y-99024605D02*
X141532000Y-99024605D01*
X148132000Y-118824605D02*
X132532000Y-118824605D01*
X140282000Y-109874605D02*
X140282000Y-111374605D01*
X148132000Y-99024605D02*
X148132000Y-118824605D01*
X144532000Y-114574605D02*
X142032000Y-114574605D01*
X142082000Y-108474605D02*
X138482000Y-108474605D01*
X138482000Y-104474605D02*
X142082000Y-104474605D01*
X139132000Y-99024605D02*
X132532000Y-99024605D01*
X140282000Y-103074605D02*
X140282000Y-102274605D01*
X136682000Y-109874605D02*
X136682000Y-103074605D01*
X132532000Y-118824605D02*
X132532000Y-99024605D01*
X146282000Y-106474605D02*
X146282000Y-103974605D01*
X167019420Y-115064000D02*
X167300580Y-115064000D01*
X167019420Y-114044000D02*
X167300580Y-114044000D01*
X119523641Y-112100000D02*
X119216359Y-112100000D01*
X119523641Y-112860000D02*
X119216359Y-112860000D01*
X158710000Y-121210000D02*
X154810000Y-121210000D01*
X158710000Y-121210000D02*
X158710000Y-119210000D01*
X158710000Y-119210000D02*
X154810000Y-119210000D01*
X141789000Y-119308000D02*
X137889000Y-119308000D01*
X141789000Y-121308000D02*
X141789000Y-119308000D01*
X141789000Y-121308000D02*
X137889000Y-121308000D01*
X127275000Y-127450964D02*
X127275000Y-127666636D01*
X127995000Y-127450964D02*
X127995000Y-127666636D01*
X130555000Y-123417359D02*
X130555000Y-123724641D01*
X129795000Y-123417359D02*
X129795000Y-123724641D01*
X126541559Y-117171200D02*
X126848841Y-117171200D01*
X126541559Y-117931200D02*
X126848841Y-117931200D01*
X128651000Y-109149200D02*
X125201000Y-109149200D01*
X128651000Y-109149200D02*
X130601000Y-109149200D01*
X128651000Y-114269200D02*
X126701000Y-114269200D01*
X128651000Y-114269200D02*
X130601000Y-114269200D01*
X148973300Y-132217600D02*
X148323300Y-132217600D01*
X148973300Y-129097600D02*
X147298300Y-129097600D01*
X148973300Y-132217600D02*
X149623300Y-132217600D01*
X148973300Y-129097600D02*
X149623300Y-129097600D01*
X127366359Y-107030000D02*
X127673641Y-107030000D01*
X127366359Y-106270000D02*
X127673641Y-106270000D01*
X129210800Y-127712441D02*
X129210800Y-127405159D01*
X129970800Y-127712441D02*
X129970800Y-127405159D01*
G36*
X169194659Y-125456201D02*
G01*
X169187377Y-125463483D01*
X169180095Y-125456201D01*
X169187377Y-125448919D01*
X169194659Y-125456201D01*
G37*
G36*
X169194659Y-123548288D02*
G01*
X169187377Y-123555570D01*
X169180095Y-123548288D01*
X169187377Y-123541006D01*
X169194659Y-123548288D01*
G37*
G36*
X169146112Y-123749760D02*
G01*
X169144113Y-123758418D01*
X169136402Y-123759470D01*
X169124414Y-123754141D01*
X169126693Y-123749760D01*
X169143977Y-123748017D01*
X169146112Y-123749760D01*
G37*
G36*
X169482107Y-122792576D02*
G01*
X169471379Y-122812795D01*
X169460068Y-122826443D01*
X169457087Y-122813326D01*
X169457038Y-122810014D01*
X169464460Y-122783680D01*
X169471379Y-122776385D01*
X169484245Y-122775209D01*
X169482107Y-122792576D01*
G37*
G36*
X169233497Y-123487604D02*
G01*
X169235240Y-123504888D01*
X169233497Y-123507023D01*
X169224839Y-123505024D01*
X169223788Y-123497314D01*
X169229116Y-123485326D01*
X169233497Y-123487604D01*
G37*
G36*
X169087855Y-124215815D02*
G01*
X169085856Y-124224473D01*
X169078145Y-124225525D01*
X169066157Y-124220196D01*
X169068436Y-124215815D01*
X169085720Y-124214072D01*
X169087855Y-124215815D01*
G37*
G36*
X169191919Y-123766439D02*
G01*
X169188168Y-123773395D01*
X169181663Y-123774034D01*
X169170145Y-123781770D01*
X169171870Y-123787072D01*
X169167870Y-123802405D01*
X169157409Y-123808751D01*
X169142444Y-123809724D01*
X169143787Y-123802995D01*
X169141085Y-123789553D01*
X169133621Y-123787675D01*
X169130581Y-123782760D01*
X169149440Y-123772798D01*
X169178216Y-123764914D01*
X169191919Y-123766439D01*
G37*
G36*
X169252916Y-125310559D02*
G01*
X169245634Y-125317841D01*
X169238352Y-125310559D01*
X169245634Y-125303277D01*
X169252916Y-125310559D01*
G37*
G36*
X169116983Y-125118797D02*
G01*
X169118726Y-125136081D01*
X169116983Y-125138216D01*
X169108325Y-125136216D01*
X169107274Y-125128506D01*
X169112603Y-125116518D01*
X169116983Y-125118797D01*
G37*
G36*
X169121838Y-124014343D02*
G01*
X169114556Y-124021625D01*
X169107274Y-124014343D01*
X169114556Y-124007061D01*
X169121838Y-124014343D01*
G37*
G36*
X169105024Y-124173159D02*
G01*
X169120536Y-124186698D01*
X169121838Y-124189974D01*
X169114926Y-124195960D01*
X169100536Y-124182546D01*
X169098601Y-124179582D01*
X169096884Y-124169615D01*
X169105024Y-124173159D01*
G37*
G36*
X169252916Y-123533724D02*
G01*
X169245634Y-123541006D01*
X169238352Y-123533724D01*
X169245634Y-123526442D01*
X169252916Y-123533724D01*
G37*
G36*
X169238352Y-123723059D02*
G01*
X169231070Y-123730341D01*
X169223788Y-123723059D01*
X169231070Y-123715777D01*
X169238352Y-123723059D01*
G37*
G36*
X169311173Y-123184183D02*
G01*
X169303891Y-123191465D01*
X169296609Y-123184183D01*
X169303891Y-123176901D01*
X169311173Y-123184183D01*
G37*
G36*
X169121838Y-124786247D02*
G01*
X169114556Y-124793529D01*
X169107274Y-124786247D01*
X169114556Y-124778965D01*
X169121838Y-124786247D01*
G37*
G36*
X169165531Y-124159986D02*
G01*
X169158249Y-124167268D01*
X169150966Y-124159986D01*
X169158249Y-124152703D01*
X169165531Y-124159986D01*
G37*
G36*
X169150966Y-125237738D02*
G01*
X169143684Y-125245020D01*
X169136402Y-125237738D01*
X169143684Y-125230456D01*
X169150966Y-125237738D01*
G37*
G36*
X169194659Y-123854137D02*
G01*
X169187377Y-123861419D01*
X169180095Y-123854137D01*
X169187377Y-123846855D01*
X169194659Y-123854137D01*
G37*
G36*
X169065044Y-124271656D02*
G01*
X169066765Y-124297526D01*
X169067590Y-124341151D01*
X169067597Y-124396853D01*
X169066859Y-124458953D01*
X169065452Y-124521775D01*
X169063451Y-124579640D01*
X169060933Y-124626872D01*
X169057971Y-124657792D01*
X169057139Y-124662451D01*
X169055378Y-124657151D01*
X169053877Y-124627328D01*
X169052772Y-124577588D01*
X169052201Y-124512537D01*
X169052158Y-124494963D01*
X169052853Y-124420350D01*
X169054922Y-124353532D01*
X169058055Y-124301390D01*
X169061940Y-124270810D01*
X169062353Y-124269217D01*
X169065044Y-124271656D01*
G37*
G36*
X169641295Y-125774187D02*
G01*
X169639296Y-125782845D01*
X169631586Y-125783896D01*
X169619598Y-125778567D01*
X169621876Y-125774187D01*
X169639161Y-125772444D01*
X169641295Y-125774187D01*
G37*
G36*
X169303209Y-123219697D02*
G01*
X169299642Y-123224091D01*
X169288115Y-123243677D01*
X169298771Y-123254082D01*
X169299642Y-123254438D01*
X169310132Y-123261115D01*
X169298466Y-123263136D01*
X169285885Y-123267521D01*
X169293922Y-123283143D01*
X169298466Y-123288859D01*
X169310690Y-123306399D01*
X169301644Y-123306962D01*
X169293353Y-123304028D01*
X169264890Y-123306692D01*
X169252606Y-123319507D01*
X169242662Y-123332774D01*
X169243414Y-123321433D01*
X169246901Y-123307979D01*
X169257575Y-123277819D01*
X169265802Y-123264286D01*
X169274062Y-123244917D01*
X169274762Y-123236371D01*
X169286597Y-123214135D01*
X169296609Y-123208515D01*
X169310651Y-123206409D01*
X169303209Y-123219697D01*
G37*
G36*
X169233497Y-125555723D02*
G01*
X169231498Y-125564382D01*
X169223788Y-125565433D01*
X169211800Y-125560104D01*
X169214078Y-125555723D01*
X169231362Y-125553980D01*
X169233497Y-125555723D01*
G37*
G36*
X169160676Y-123866274D02*
G01*
X169158677Y-123874932D01*
X169150966Y-123875983D01*
X169138978Y-123870654D01*
X169141257Y-123866274D01*
X169158541Y-123864531D01*
X169160676Y-123866274D01*
G37*
G36*
X169164950Y-125277166D02*
G01*
X169182463Y-125294630D01*
X169177866Y-125304654D01*
X169172427Y-125316790D01*
X169182088Y-125323360D01*
X169193487Y-125333636D01*
X169184554Y-125340628D01*
X169173470Y-125359000D01*
X169175189Y-125369757D01*
X169177776Y-125388056D01*
X169174648Y-125390662D01*
X169165114Y-125378394D01*
X169157155Y-125355079D01*
X169153743Y-125321993D01*
X169157737Y-125304105D01*
X169157345Y-125290097D01*
X169151826Y-125288713D01*
X169136996Y-125278054D01*
X169136402Y-125274025D01*
X169146300Y-125268620D01*
X169164950Y-125277166D01*
G37*
G36*
X172762893Y-121684068D02*
G01*
X172755611Y-121691350D01*
X172748329Y-121684068D01*
X172755611Y-121676786D01*
X172762893Y-121684068D01*
G37*
G36*
X169383994Y-123038541D02*
G01*
X169376712Y-123045823D01*
X169369430Y-123038541D01*
X169376712Y-123031258D01*
X169383994Y-123038541D01*
G37*
G36*
X169073291Y-124172122D02*
G01*
X169075034Y-124189407D01*
X169073291Y-124191541D01*
X169064632Y-124189542D01*
X169063581Y-124181832D01*
X169068910Y-124169844D01*
X169073291Y-124172122D01*
G37*
G36*
X169116983Y-124055609D02*
G01*
X169114984Y-124064267D01*
X169107274Y-124065318D01*
X169095286Y-124059989D01*
X169097564Y-124055609D01*
X169114849Y-124053866D01*
X169116983Y-124055609D01*
G37*
G36*
X169136402Y-124829940D02*
G01*
X169129120Y-124837222D01*
X169121838Y-124829940D01*
X169129120Y-124822658D01*
X169136402Y-124829940D01*
G37*
G36*
X169209223Y-123475467D02*
G01*
X169201941Y-123482749D01*
X169194659Y-123475467D01*
X169201941Y-123468185D01*
X169209223Y-123475467D01*
G37*
G36*
X169145075Y-125014243D02*
G01*
X169146898Y-125024110D01*
X169137024Y-125019659D01*
X169114449Y-125019654D01*
X169105869Y-125028332D01*
X169095662Y-125039121D01*
X169092933Y-125022916D01*
X169102925Y-125002107D01*
X169124761Y-124998714D01*
X169145075Y-125014243D01*
G37*
G36*
X169282044Y-123504596D02*
G01*
X169274762Y-123511878D01*
X169267480Y-123504596D01*
X169274762Y-123497314D01*
X169282044Y-123504596D01*
G37*
G36*
X169281601Y-123435092D02*
G01*
X169287070Y-123445711D01*
X169290797Y-123466232D01*
X169281013Y-123462249D01*
X169274163Y-123452652D01*
X169269687Y-123433590D01*
X169271505Y-123430177D01*
X169281601Y-123435092D01*
G37*
G36*
X169720085Y-122391161D02*
G01*
X169723448Y-122409360D01*
X169726079Y-122423202D01*
X169722891Y-122445417D01*
X169707552Y-122445366D01*
X169696340Y-122432856D01*
X169696351Y-122410191D01*
X169702763Y-122400815D01*
X169717395Y-122390056D01*
X169720085Y-122391161D01*
G37*
G36*
X169257081Y-123464219D02*
G01*
X169260198Y-123468185D01*
X169265324Y-123481284D01*
X169251545Y-123476351D01*
X169238352Y-123468185D01*
X169227155Y-123456493D01*
X169233851Y-123453844D01*
X169257081Y-123464219D01*
G37*
G36*
X169145656Y-125145924D02*
G01*
X169167726Y-125129908D01*
X169175037Y-125138590D01*
X169172857Y-125157404D01*
X169179202Y-125188208D01*
X169191899Y-125200654D01*
X169207524Y-125211954D01*
X169197482Y-125215353D01*
X169194255Y-125215449D01*
X169167873Y-125205547D01*
X169149507Y-125189617D01*
X169135221Y-125166172D01*
X169135785Y-125164917D01*
X169150966Y-125164917D01*
X169158249Y-125172199D01*
X169165531Y-125164917D01*
X169158249Y-125157635D01*
X169150966Y-125164917D01*
X169135785Y-125164917D01*
X169143287Y-125148223D01*
X169145656Y-125145924D01*
G37*
G36*
X169165531Y-123723059D02*
G01*
X169158249Y-123730341D01*
X169150966Y-123723059D01*
X169158249Y-123715777D01*
X169165531Y-123723059D01*
G37*
G36*
X169136402Y-125194045D02*
G01*
X169129120Y-125201327D01*
X169121838Y-125194045D01*
X169129120Y-125186763D01*
X169136402Y-125194045D01*
G37*
G36*
X169180095Y-125106660D02*
G01*
X169172813Y-125113942D01*
X169165531Y-125106660D01*
X169172813Y-125099378D01*
X169180095Y-125106660D01*
G37*
G36*
X169078145Y-124713426D02*
G01*
X169092039Y-124726513D01*
X169092710Y-124728850D01*
X169081441Y-124735105D01*
X169078145Y-124735272D01*
X169064141Y-124724076D01*
X169063581Y-124719848D01*
X169072504Y-124711150D01*
X169078145Y-124713426D01*
G37*
G36*
X169209223Y-125499894D02*
G01*
X169201941Y-125507176D01*
X169194659Y-125499894D01*
X169201941Y-125492612D01*
X169209223Y-125499894D01*
G37*
G36*
X169150966Y-124859068D02*
G01*
X169143684Y-124866350D01*
X169136402Y-124859068D01*
X169143684Y-124851786D01*
X169150966Y-124859068D01*
G37*
G36*
X169160524Y-123914034D02*
G01*
X169158249Y-123919676D01*
X169145161Y-123933570D01*
X169142825Y-123934240D01*
X169136569Y-123922972D01*
X169136402Y-123919676D01*
X169147599Y-123905671D01*
X169151826Y-123905112D01*
X169160524Y-123914034D01*
G37*
G36*
X169130699Y-124901343D02*
G01*
X169152713Y-124919920D01*
X169160044Y-124927065D01*
X169183782Y-124959546D01*
X169186420Y-124984692D01*
X169167878Y-124996839D01*
X169161030Y-124997205D01*
X169155210Y-124991652D01*
X169165336Y-124983293D01*
X169177343Y-124970619D01*
X169169198Y-124954015D01*
X169154412Y-124939256D01*
X169131382Y-124914847D01*
X169121838Y-124898883D01*
X169130699Y-124901343D01*
G37*
G36*
X169311173Y-125601843D02*
G01*
X169303891Y-125609125D01*
X169296609Y-125601843D01*
X169303891Y-125594561D01*
X169311173Y-125601843D01*
G37*
G36*
X169143239Y-124956119D02*
G01*
X169142957Y-124963556D01*
X169136402Y-124968300D01*
X169107163Y-124981712D01*
X169088995Y-124973408D01*
X169085427Y-124968300D01*
X169090845Y-124957812D01*
X169117337Y-124953959D01*
X169143239Y-124956119D01*
G37*
G36*
X169078145Y-124130857D02*
G01*
X169070863Y-124138139D01*
X169063581Y-124130857D01*
X169070863Y-124123575D01*
X169078145Y-124130857D01*
G37*
G36*
X172767672Y-121705109D02*
G01*
X172783148Y-121725261D01*
X172804368Y-121758465D01*
X172828518Y-121800593D01*
X172852781Y-121847517D01*
X172855104Y-121852313D01*
X172946636Y-122073825D01*
X173015895Y-122309568D01*
X173061528Y-122553506D01*
X173082182Y-122799600D01*
X173083306Y-122870693D01*
X173081708Y-122942451D01*
X173077417Y-122991838D01*
X173071191Y-123017531D01*
X173063785Y-123018209D01*
X173055955Y-122992550D01*
X173048458Y-122939231D01*
X173047799Y-122932773D01*
X173036229Y-122838554D01*
X173018791Y-122725713D01*
X172997072Y-122603784D01*
X172973258Y-122485100D01*
X172961109Y-122426953D01*
X172950478Y-122374133D01*
X172943920Y-122339458D01*
X172935349Y-122299009D01*
X172922420Y-122246866D01*
X172915949Y-122222944D01*
X172900148Y-122166086D01*
X172881885Y-122099929D01*
X172871673Y-122062738D01*
X172856913Y-122011203D01*
X172837086Y-121945098D01*
X172814978Y-121873381D01*
X172793377Y-121805015D01*
X172775070Y-121748958D01*
X172765213Y-121720479D01*
X172760756Y-121702139D01*
X172767672Y-121705109D01*
G37*
G36*
X169287888Y-123355065D02*
G01*
X169290726Y-123362409D01*
X169267919Y-123372182D01*
X169256783Y-123373332D01*
X169232937Y-123383287D01*
X169227469Y-123391723D01*
X169231011Y-123408189D01*
X169237138Y-123409928D01*
X169252269Y-123401706D01*
X169252916Y-123398463D01*
X169265311Y-123388812D01*
X169285686Y-123385180D01*
X169301239Y-123386524D01*
X169292416Y-123394870D01*
X169267480Y-123407541D01*
X169231663Y-123426844D01*
X169208114Y-123443725D01*
X169205805Y-123446312D01*
X169195878Y-123454432D01*
X169194882Y-123452153D01*
X169199090Y-123433656D01*
X169209619Y-123400509D01*
X169210648Y-123397537D01*
X169228348Y-123363994D01*
X169254557Y-123352126D01*
X169264050Y-123351671D01*
X169287888Y-123355065D01*
G37*
G36*
X169255288Y-125501300D02*
G01*
X169284072Y-125521256D01*
X169302535Y-125540813D01*
X169301635Y-125550247D01*
X169300250Y-125550384D01*
X169283351Y-125541674D01*
X169282044Y-125536304D01*
X169271296Y-125522160D01*
X169267937Y-125521740D01*
X169259924Y-125532416D01*
X169262213Y-125543586D01*
X169282292Y-125562972D01*
X169294526Y-125565656D01*
X169310368Y-125567969D01*
X169299678Y-125577991D01*
X169296609Y-125579997D01*
X169265436Y-125592521D01*
X169252916Y-125594115D01*
X169240140Y-125590652D01*
X169248506Y-125583031D01*
X169257953Y-125564803D01*
X169244376Y-125543944D01*
X169223788Y-125532356D01*
X169213523Y-125525601D01*
X169231070Y-125522667D01*
X169250248Y-125519432D01*
X169242450Y-125509899D01*
X169238352Y-125507176D01*
X169227552Y-125495591D01*
X169233097Y-125492835D01*
X169255288Y-125501300D01*
G37*
G36*
X169277415Y-125617942D02*
G01*
X169275444Y-125622587D01*
X169279849Y-125636668D01*
X169292789Y-125642744D01*
X169308696Y-125648267D01*
X169296829Y-125651399D01*
X169289327Y-125652152D01*
X169260198Y-125654865D01*
X169289327Y-125667382D01*
X169308420Y-125676801D01*
X169300739Y-125680192D01*
X169284127Y-125680923D01*
X169259373Y-125676498D01*
X169258183Y-125660100D01*
X169258081Y-125641367D01*
X169251599Y-125638254D01*
X169243327Y-125629304D01*
X169245634Y-125623690D01*
X169264927Y-125609669D01*
X169269199Y-125609125D01*
X169277415Y-125617942D01*
G37*
G36*
X169194659Y-125028333D02*
G01*
X169183416Y-125040641D01*
X169179235Y-125041121D01*
X169170989Y-125050241D01*
X169173777Y-125057245D01*
X169172624Y-125067167D01*
X169152790Y-125063546D01*
X169128140Y-125062844D01*
X169122019Y-125074724D01*
X169139196Y-125089383D01*
X169140043Y-125089732D01*
X169148577Y-125096664D01*
X169141827Y-125098228D01*
X169119101Y-125089246D01*
X169109591Y-125080324D01*
X169105132Y-125064705D01*
X169122820Y-125049076D01*
X169144218Y-125038407D01*
X169176198Y-125026830D01*
X169193598Y-125026206D01*
X169194659Y-125028333D01*
G37*
G36*
X169187935Y-123579622D02*
G01*
X169180095Y-123599263D01*
X169171894Y-123622103D01*
X169183043Y-123628612D01*
X169183224Y-123628615D01*
X169192060Y-123633036D01*
X169180095Y-123643179D01*
X169166203Y-123657385D01*
X169177675Y-123670057D01*
X169188422Y-123682162D01*
X169173278Y-123691737D01*
X169157240Y-123693394D01*
X169158352Y-123686482D01*
X169156551Y-123673203D01*
X169150966Y-123672084D01*
X169142365Y-123663046D01*
X169146081Y-123653879D01*
X169157799Y-123627815D01*
X169159286Y-123621109D01*
X169162711Y-123593266D01*
X169163312Y-123588340D01*
X169175018Y-123571367D01*
X169180607Y-123570135D01*
X169187935Y-123579622D01*
G37*
G36*
X169433876Y-126098086D02*
G01*
X169432811Y-126094599D01*
X169461670Y-126094599D01*
X169463669Y-126103258D01*
X169471379Y-126104309D01*
X169483367Y-126098980D01*
X169481089Y-126094599D01*
X169463804Y-126092856D01*
X169461670Y-126094599D01*
X169432811Y-126094599D01*
X169426188Y-126072919D01*
X169430311Y-126067491D01*
X169435455Y-126067534D01*
X169421262Y-126054414D01*
X169404914Y-126037481D01*
X169406698Y-126031265D01*
X169410949Y-126025072D01*
X169405840Y-126020342D01*
X169390732Y-126001020D01*
X169386071Y-125992650D01*
X169403413Y-125992650D01*
X169405412Y-126001308D01*
X169413122Y-126002359D01*
X169425110Y-125997031D01*
X169422832Y-125992650D01*
X169405548Y-125990907D01*
X169403413Y-125992650D01*
X169386071Y-125992650D01*
X169371516Y-125966514D01*
X169366858Y-125956774D01*
X169365011Y-125952449D01*
X169379136Y-125952449D01*
X169395944Y-125971864D01*
X169415941Y-125964696D01*
X169420405Y-125958667D01*
X169416784Y-125946464D01*
X169404917Y-125944103D01*
X169388726Y-125940953D01*
X169394416Y-125926536D01*
X169400416Y-125918615D01*
X169412991Y-125901381D01*
X169405664Y-125904802D01*
X169395783Y-125912398D01*
X169379228Y-125936371D01*
X169379136Y-125952449D01*
X169365011Y-125952449D01*
X169352186Y-125922409D01*
X169351197Y-125904291D01*
X169364942Y-125892417D01*
X169374140Y-125887517D01*
X169395144Y-125876018D01*
X169389926Y-125874898D01*
X169369430Y-125879241D01*
X169344295Y-125883920D01*
X169345208Y-125877796D01*
X169362148Y-125863247D01*
X169364754Y-125860981D01*
X169534114Y-125860981D01*
X169549594Y-125870087D01*
X169553910Y-125870132D01*
X169569310Y-125866815D01*
X169560758Y-125861086D01*
X169548191Y-125851914D01*
X169560758Y-125839281D01*
X169572861Y-125829089D01*
X169559675Y-125831031D01*
X169538003Y-125844373D01*
X169534114Y-125860981D01*
X169364754Y-125860981D01*
X169381966Y-125846016D01*
X169378532Y-125843294D01*
X169359394Y-125848629D01*
X169328922Y-125848295D01*
X169312060Y-125829246D01*
X169298660Y-125798478D01*
X169299975Y-125787236D01*
X169314848Y-125798600D01*
X169320878Y-125805742D01*
X169336882Y-125824284D01*
X169338766Y-125820012D01*
X169336223Y-125812076D01*
X169387565Y-125812076D01*
X169389557Y-125813025D01*
X169402848Y-125802772D01*
X169402943Y-125802635D01*
X169575677Y-125802635D01*
X169579220Y-125810774D01*
X169593885Y-125826410D01*
X169602316Y-125823202D01*
X169602457Y-125821166D01*
X169592113Y-125808848D01*
X169585643Y-125804352D01*
X169575677Y-125802635D01*
X169402943Y-125802635D01*
X169405840Y-125798460D01*
X169408487Y-125788751D01*
X169534491Y-125788751D01*
X169536490Y-125797409D01*
X169544200Y-125798460D01*
X169556188Y-125793132D01*
X169553910Y-125788751D01*
X169536626Y-125787008D01*
X169534491Y-125788751D01*
X169408487Y-125788751D01*
X169409552Y-125784844D01*
X169407559Y-125783896D01*
X169394268Y-125794149D01*
X169391276Y-125798460D01*
X169387565Y-125812076D01*
X169336223Y-125812076D01*
X169334979Y-125808192D01*
X169326971Y-125774697D01*
X169326408Y-125768384D01*
X169576900Y-125768384D01*
X169578892Y-125769332D01*
X169592183Y-125759079D01*
X169595175Y-125754768D01*
X169598886Y-125741152D01*
X169596894Y-125740203D01*
X169583603Y-125750456D01*
X169580611Y-125754768D01*
X169576900Y-125768384D01*
X169326408Y-125768384D01*
X169325737Y-125760859D01*
X169314349Y-125742310D01*
X169305449Y-125740203D01*
X169354866Y-125740203D01*
X169359835Y-125754389D01*
X169361288Y-125754768D01*
X169373119Y-125745058D01*
X169534491Y-125745058D01*
X169536490Y-125753717D01*
X169544200Y-125754768D01*
X169556188Y-125749439D01*
X169553910Y-125745058D01*
X169536626Y-125743315D01*
X169534491Y-125745058D01*
X169373119Y-125745058D01*
X169373723Y-125744562D01*
X169376712Y-125740203D01*
X169375876Y-125730494D01*
X169621876Y-125730494D01*
X169623875Y-125739152D01*
X169631586Y-125740203D01*
X169643574Y-125734875D01*
X169641295Y-125730494D01*
X169624011Y-125728751D01*
X169621876Y-125730494D01*
X169375876Y-125730494D01*
X169375557Y-125726783D01*
X169370289Y-125725639D01*
X169355458Y-125736212D01*
X169354866Y-125740203D01*
X169305449Y-125740203D01*
X169283041Y-125728441D01*
X169276855Y-125718357D01*
X169660714Y-125718357D01*
X169667996Y-125725639D01*
X169675278Y-125718357D01*
X169667996Y-125711075D01*
X169660714Y-125718357D01*
X169276855Y-125718357D01*
X169276648Y-125718020D01*
X169274571Y-125703563D01*
X169290316Y-125707818D01*
X169296936Y-125711250D01*
X169302079Y-125713580D01*
X169306572Y-125713486D01*
X169310462Y-125709143D01*
X169313795Y-125698727D01*
X169315258Y-125689229D01*
X169660714Y-125689229D01*
X169667996Y-125696511D01*
X169675278Y-125689229D01*
X169667996Y-125681947D01*
X169660714Y-125689229D01*
X169315258Y-125689229D01*
X169316616Y-125680413D01*
X169317303Y-125672237D01*
X169709262Y-125672237D01*
X169711261Y-125680895D01*
X169718971Y-125681947D01*
X169730959Y-125676618D01*
X169728681Y-125672237D01*
X169711396Y-125670494D01*
X169709262Y-125672237D01*
X169317303Y-125672237D01*
X169318058Y-125663256D01*
X169764140Y-125663256D01*
X169778734Y-125660201D01*
X169781497Y-125659164D01*
X169799332Y-125647626D01*
X169799460Y-125641067D01*
X169784053Y-125642700D01*
X169773344Y-125651011D01*
X169764140Y-125663256D01*
X169318058Y-125663256D01*
X169318973Y-125652378D01*
X169318998Y-125651870D01*
X169664285Y-125651870D01*
X169666277Y-125652818D01*
X169667506Y-125651870D01*
X169737106Y-125651870D01*
X169739098Y-125652818D01*
X169752389Y-125642565D01*
X169755382Y-125638254D01*
X169759093Y-125624638D01*
X169757101Y-125623690D01*
X169743810Y-125633943D01*
X169740817Y-125638254D01*
X169737106Y-125651870D01*
X169667506Y-125651870D01*
X169679568Y-125642565D01*
X169682561Y-125638254D01*
X169684546Y-125630972D01*
X169704407Y-125630972D01*
X169711689Y-125638254D01*
X169718971Y-125630972D01*
X169711689Y-125623690D01*
X169704407Y-125630972D01*
X169684546Y-125630972D01*
X169686272Y-125624638D01*
X169684280Y-125623690D01*
X169670989Y-125633943D01*
X169667996Y-125638254D01*
X169664285Y-125651870D01*
X169318998Y-125651870D01*
X169320911Y-125612798D01*
X169321666Y-125587279D01*
X169879177Y-125587279D01*
X169886460Y-125594561D01*
X169893742Y-125587279D01*
X169886460Y-125579997D01*
X169879177Y-125587279D01*
X169321666Y-125587279D01*
X169322168Y-125570288D01*
X169956853Y-125570288D01*
X169958853Y-125578946D01*
X169966563Y-125579997D01*
X169978551Y-125574668D01*
X169976272Y-125570288D01*
X169958988Y-125568544D01*
X169956853Y-125570288D01*
X169322168Y-125570288D01*
X169322477Y-125559847D01*
X169322773Y-125543586D01*
X169937434Y-125543586D01*
X169944716Y-125550869D01*
X169951999Y-125543586D01*
X169944716Y-125536304D01*
X169937434Y-125543586D01*
X169322773Y-125543586D01*
X169323302Y-125514458D01*
X169951999Y-125514458D01*
X169959281Y-125521740D01*
X169966563Y-125514458D01*
X169963456Y-125511351D01*
X170027167Y-125511351D01*
X170030711Y-125519490D01*
X170045376Y-125535125D01*
X170053806Y-125531918D01*
X170053948Y-125529882D01*
X170043603Y-125517563D01*
X170037134Y-125513067D01*
X170027167Y-125511351D01*
X169963456Y-125511351D01*
X169959281Y-125507176D01*
X169951999Y-125514458D01*
X169323302Y-125514458D01*
X169323716Y-125491702D01*
X169324444Y-125427073D01*
X170039384Y-125427073D01*
X170046666Y-125434355D01*
X170053948Y-125427073D01*
X170046666Y-125419791D01*
X170039384Y-125427073D01*
X169324444Y-125427073D01*
X169324675Y-125406538D01*
X169325399Y-125302532D01*
X169325936Y-125177858D01*
X169325971Y-125164917D01*
X170461746Y-125164917D01*
X170469028Y-125172199D01*
X170476311Y-125164917D01*
X170469028Y-125157635D01*
X170461746Y-125164917D01*
X169325971Y-125164917D01*
X169326330Y-125030694D01*
X169326629Y-124859213D01*
X169326877Y-124661593D01*
X169327031Y-124520962D01*
X169327137Y-124419714D01*
X169767518Y-124419714D01*
X169769518Y-124428373D01*
X169777228Y-124429424D01*
X169789216Y-124424095D01*
X169786937Y-124419714D01*
X169769653Y-124417971D01*
X169767518Y-124419714D01*
X169327137Y-124419714D01*
X169327181Y-124378449D01*
X169791792Y-124378449D01*
X169799074Y-124385731D01*
X169806356Y-124378449D01*
X169799074Y-124371167D01*
X169791792Y-124378449D01*
X169327181Y-124378449D01*
X169327271Y-124292796D01*
X169327306Y-124255041D01*
X169531242Y-124255041D01*
X169531505Y-124268680D01*
X169537337Y-124286902D01*
X169555816Y-124301012D01*
X169587328Y-124306304D01*
X169616677Y-124301155D01*
X169624064Y-124296163D01*
X169622768Y-124281725D01*
X169615740Y-124275707D01*
X169604870Y-124272958D01*
X169609313Y-124283091D01*
X169608081Y-124293097D01*
X169590661Y-124292348D01*
X169566681Y-124283580D01*
X169545767Y-124269529D01*
X169540782Y-124263613D01*
X169531242Y-124255041D01*
X169327306Y-124255041D01*
X169327327Y-124231720D01*
X169531739Y-124231720D01*
X169535173Y-124239320D01*
X169543341Y-124240089D01*
X169563090Y-124229511D01*
X169565944Y-124225691D01*
X169563599Y-124217415D01*
X169552239Y-124219967D01*
X169531739Y-124231720D01*
X169327327Y-124231720D01*
X169327456Y-124091980D01*
X169327482Y-124050883D01*
X169535730Y-124050883D01*
X169535853Y-124058036D01*
X169538380Y-124111675D01*
X169543128Y-124154761D01*
X169549074Y-124178064D01*
X169549151Y-124178191D01*
X169563803Y-124195942D01*
X169567512Y-124190195D01*
X169557731Y-124165344D01*
X169557189Y-124164323D01*
X169547363Y-124138548D01*
X169556216Y-124126920D01*
X169558324Y-124126149D01*
X169568459Y-124117867D01*
X169564178Y-124114165D01*
X169592129Y-124114165D01*
X169595742Y-124176786D01*
X169602623Y-124215298D01*
X169605161Y-124240774D01*
X169604909Y-124243730D01*
X169612492Y-124254633D01*
X169613380Y-124254671D01*
X169632015Y-124264168D01*
X169667715Y-124290574D01*
X169716364Y-124330805D01*
X169725277Y-124338494D01*
X169754101Y-124347936D01*
X169799449Y-124347470D01*
X169850976Y-124338447D01*
X169898343Y-124322217D01*
X169914107Y-124313825D01*
X169921591Y-124307461D01*
X171961861Y-124307461D01*
X171962090Y-124445178D01*
X171962836Y-124556131D01*
X171964187Y-124642682D01*
X171966232Y-124707192D01*
X171969059Y-124752025D01*
X171972756Y-124779540D01*
X171977413Y-124792100D01*
X171980066Y-124793510D01*
X171992579Y-124780763D01*
X172012089Y-124746334D01*
X172035634Y-124695911D01*
X172053969Y-124651509D01*
X172072249Y-124605286D01*
X172249602Y-124605286D01*
X172251336Y-124638183D01*
X172258877Y-124666836D01*
X172275302Y-124672905D01*
X172287747Y-124669951D01*
X172316199Y-124662168D01*
X172363830Y-124650071D01*
X172421458Y-124635982D01*
X172435198Y-124632695D01*
X172600519Y-124608018D01*
X172775940Y-124610091D01*
X172960204Y-124638839D01*
X173079665Y-124670430D01*
X173094875Y-124673974D01*
X173104456Y-124669981D01*
X173109707Y-124653385D01*
X173111931Y-124619120D01*
X173112428Y-124562118D01*
X173112434Y-124542815D01*
X173111931Y-124478204D01*
X173109547Y-124436538D01*
X173103973Y-124411638D01*
X173093898Y-124397328D01*
X173079665Y-124388275D01*
X173042390Y-124374535D01*
X172983905Y-124359293D01*
X172911966Y-124344154D01*
X172834325Y-124330723D01*
X172758737Y-124320605D01*
X172746591Y-124319324D01*
X172682990Y-124317978D01*
X172601005Y-124323405D01*
X172510249Y-124334344D01*
X172420335Y-124349532D01*
X172340877Y-124367709D01*
X172311402Y-124376427D01*
X172284719Y-124386211D01*
X172268943Y-124398778D01*
X172260452Y-124421500D01*
X172255621Y-124461752D01*
X172253145Y-124494963D01*
X172250190Y-124553140D01*
X172249602Y-124605286D01*
X172072249Y-124605286D01*
X172078631Y-124589147D01*
X172100588Y-124534533D01*
X172116901Y-124494931D01*
X172123217Y-124480398D01*
X172134632Y-124454186D01*
X172153593Y-124408955D01*
X172176761Y-124352704D01*
X172187041Y-124327474D01*
X172209005Y-124274409D01*
X172226373Y-124234376D01*
X172236705Y-124212902D01*
X172238498Y-124210960D01*
X172241110Y-124228721D01*
X172246168Y-124264051D01*
X172247935Y-124276499D01*
X172253802Y-124313823D01*
X172258383Y-124335960D01*
X172259262Y-124338138D01*
X172273595Y-124335911D01*
X172308550Y-124326901D01*
X172356934Y-124312981D01*
X172363331Y-124311061D01*
X172448760Y-124292622D01*
X172553376Y-124281230D01*
X172668100Y-124276899D01*
X172783852Y-124279642D01*
X172891552Y-124289473D01*
X172982121Y-124306404D01*
X172995628Y-124310126D01*
X173047456Y-124325171D01*
X173087020Y-124336398D01*
X173107299Y-124341821D01*
X173108501Y-124342038D01*
X173111120Y-124329228D01*
X173112407Y-124297802D01*
X173112434Y-124291923D01*
X173115765Y-124256039D01*
X173123900Y-124234933D01*
X173125062Y-124234004D01*
X173129825Y-124234706D01*
X173136922Y-124243389D01*
X173147459Y-124262571D01*
X173162540Y-124294766D01*
X173183271Y-124342491D01*
X173210757Y-124408261D01*
X173246105Y-124494591D01*
X173290419Y-124603999D01*
X173321324Y-124680656D01*
X173341943Y-124730465D01*
X173358813Y-124766461D01*
X173372307Y-124786996D01*
X173382798Y-124790418D01*
X173390658Y-124775077D01*
X173396260Y-124739324D01*
X173399976Y-124681507D01*
X173402178Y-124599977D01*
X173403241Y-124493083D01*
X173403535Y-124359176D01*
X173403535Y-124355683D01*
X173935898Y-124355683D01*
X173938039Y-124365737D01*
X173955754Y-124380070D01*
X173984454Y-124382778D01*
X174011111Y-124375023D01*
X174022698Y-124358190D01*
X174011591Y-124334185D01*
X173998432Y-124322624D01*
X173969890Y-124317423D01*
X173945515Y-124330963D01*
X173935898Y-124355683D01*
X173403535Y-124355683D01*
X173403531Y-124316551D01*
X173403519Y-124184568D01*
X173403224Y-124077418D01*
X173402081Y-123990807D01*
X173399526Y-123920440D01*
X173394996Y-123862024D01*
X173387927Y-123811263D01*
X173377754Y-123763865D01*
X173363915Y-123715534D01*
X173345846Y-123661976D01*
X173329127Y-123615851D01*
X174369253Y-123615851D01*
X174369791Y-123634544D01*
X174390087Y-123653671D01*
X174420989Y-123655421D01*
X174449330Y-123639251D01*
X174450508Y-123637884D01*
X174457292Y-123617836D01*
X174440605Y-123594605D01*
X174437274Y-123591524D01*
X174413953Y-123573888D01*
X174397227Y-123576645D01*
X174384359Y-123588184D01*
X174369253Y-123615851D01*
X173329127Y-123615851D01*
X173322982Y-123598898D01*
X173308971Y-123560773D01*
X174702508Y-123560773D01*
X174709711Y-123578282D01*
X174732671Y-123585160D01*
X174759962Y-123581247D01*
X174780162Y-123566387D01*
X174782429Y-123561874D01*
X174781261Y-123532943D01*
X174774288Y-123522149D01*
X174749921Y-123514633D01*
X174722998Y-123527148D01*
X174704362Y-123553861D01*
X174702508Y-123560773D01*
X173308971Y-123560773D01*
X173301707Y-123541006D01*
X173283460Y-123489017D01*
X173270655Y-123444531D01*
X173262632Y-123402461D01*
X175331391Y-123402461D01*
X175351050Y-123420030D01*
X175380909Y-123423697D01*
X175404917Y-123411892D01*
X175406380Y-123409798D01*
X175410237Y-123383646D01*
X175400536Y-123354975D01*
X175382797Y-123337908D01*
X175377972Y-123337107D01*
X175350477Y-123349108D01*
X175332163Y-123376209D01*
X175331391Y-123402461D01*
X173262632Y-123402461D01*
X173262161Y-123399991D01*
X173256845Y-123347839D01*
X173253577Y-123280516D01*
X173251571Y-123206029D01*
X173235732Y-122908915D01*
X173230722Y-122865844D01*
X173813276Y-122865844D01*
X173821879Y-122908326D01*
X173835020Y-122943766D01*
X173874805Y-123007998D01*
X173931192Y-123051209D01*
X173998579Y-123071232D01*
X174071366Y-123065900D01*
X174112346Y-123051055D01*
X174168585Y-123011542D01*
X174214981Y-122955607D01*
X174241765Y-122895908D01*
X174242320Y-122845978D01*
X174227715Y-122792507D01*
X174729063Y-122792507D01*
X174739027Y-122819804D01*
X174763045Y-122827698D01*
X174792304Y-122814828D01*
X174803192Y-122803937D01*
X174814443Y-122782944D01*
X174801794Y-122765432D01*
X174796277Y-122761245D01*
X174762502Y-122748335D01*
X174737939Y-122760548D01*
X174729063Y-122792507D01*
X174227715Y-122792507D01*
X174227085Y-122790199D01*
X174190748Y-122731535D01*
X174135654Y-122685235D01*
X174070789Y-122657596D01*
X174030684Y-122652589D01*
X173964607Y-122665877D01*
X173902456Y-122701666D01*
X173853613Y-122753846D01*
X173840647Y-122776382D01*
X173819379Y-122826424D01*
X173813276Y-122865844D01*
X173230722Y-122865844D01*
X173202303Y-122621517D01*
X173151988Y-122347586D01*
X173085490Y-122090875D01*
X173003516Y-121855134D01*
X172994784Y-121833616D01*
X174265955Y-121833616D01*
X174283270Y-121864342D01*
X174285079Y-121866369D01*
X174322834Y-121890350D01*
X174363285Y-121888360D01*
X174398672Y-121861616D01*
X174408191Y-121847065D01*
X174421333Y-121818575D01*
X174418199Y-121799092D01*
X174395809Y-121775999D01*
X174390258Y-121771141D01*
X174347413Y-121747373D01*
X174308795Y-121750935D01*
X174279044Y-121780776D01*
X174271275Y-121798094D01*
X174265955Y-121833616D01*
X172994784Y-121833616D01*
X172993199Y-121829710D01*
X172954709Y-121742686D01*
X172911218Y-121654912D01*
X172865077Y-121570103D01*
X172818636Y-121491974D01*
X172774245Y-121424237D01*
X172734253Y-121370608D01*
X172701010Y-121334799D01*
X172676868Y-121320526D01*
X172671410Y-121321129D01*
X172654414Y-121336350D01*
X172628077Y-121368705D01*
X172602857Y-121404240D01*
X172574983Y-121445070D01*
X172553261Y-121475378D01*
X172543459Y-121487451D01*
X172537078Y-121495245D01*
X172526630Y-121512547D01*
X172510269Y-121542853D01*
X172486149Y-121589658D01*
X172452425Y-121656458D01*
X172419323Y-121722577D01*
X172368803Y-121835675D01*
X172318736Y-121969602D01*
X172271160Y-122116935D01*
X172228116Y-122270253D01*
X172191643Y-122422133D01*
X172163779Y-122565153D01*
X172146564Y-122691890D01*
X172143796Y-122725410D01*
X172141116Y-122763206D01*
X172136728Y-122822994D01*
X172131156Y-122897721D01*
X172124922Y-122980335D01*
X172122215Y-123015925D01*
X172116740Y-123099017D01*
X172113201Y-123176546D01*
X172111797Y-123241695D01*
X172112725Y-123287650D01*
X172113925Y-123300037D01*
X172115665Y-123327772D01*
X172112160Y-123361233D01*
X172102229Y-123405206D01*
X172084691Y-123464478D01*
X172058368Y-123543833D01*
X172042327Y-123590283D01*
X171961861Y-123821393D01*
X171961861Y-124307461D01*
X169921591Y-124307461D01*
X169974705Y-124262299D01*
X170012285Y-124199700D01*
X170017083Y-124174550D01*
X170039384Y-124174550D01*
X170046666Y-124181832D01*
X170053948Y-124174550D01*
X170083077Y-124174550D01*
X170090359Y-124181832D01*
X170097641Y-124174550D01*
X170090359Y-124167268D01*
X170083077Y-124174550D01*
X170053948Y-124174550D01*
X170046666Y-124167268D01*
X170039384Y-124174550D01*
X170017083Y-124174550D01*
X170022640Y-124145421D01*
X170053948Y-124145421D01*
X170061230Y-124152703D01*
X170068512Y-124145421D01*
X170061230Y-124138139D01*
X170053948Y-124145421D01*
X170022640Y-124145421D01*
X170025347Y-124131231D01*
X170012389Y-124062092D01*
X169996121Y-124029603D01*
X169950878Y-123970504D01*
X169899965Y-123935988D01*
X169835837Y-123922162D01*
X169787938Y-123922174D01*
X169734432Y-123926807D01*
X169699503Y-123936312D01*
X169672617Y-123954578D01*
X169656621Y-123970651D01*
X169611946Y-124038157D01*
X169592129Y-124114165D01*
X169564178Y-124114165D01*
X169556843Y-124107823D01*
X169546564Y-124095099D01*
X169559719Y-124078265D01*
X169566118Y-124073140D01*
X169580804Y-124059057D01*
X169572809Y-124058361D01*
X169554486Y-124055313D01*
X169550442Y-124036550D01*
X169558519Y-124012727D01*
X169570027Y-124007061D01*
X169581931Y-124015823D01*
X169579220Y-124023876D01*
X169577484Y-124033826D01*
X169585880Y-124030152D01*
X169596060Y-124012914D01*
X169584574Y-123996956D01*
X169566401Y-123992497D01*
X169547326Y-123982788D01*
X169607312Y-123982788D01*
X169609311Y-123991446D01*
X169617022Y-123992497D01*
X169629010Y-123987168D01*
X169626731Y-123982788D01*
X169609447Y-123981044D01*
X169607312Y-123982788D01*
X169547326Y-123982788D01*
X169544132Y-123981162D01*
X169540258Y-123974292D01*
X169537420Y-123978317D01*
X169535811Y-124005749D01*
X169535730Y-124050883D01*
X169327482Y-124050883D01*
X169327565Y-123916736D01*
X169327565Y-123912394D01*
X169660714Y-123912394D01*
X169667996Y-123919676D01*
X169675278Y-123912394D01*
X169667996Y-123905112D01*
X169660714Y-123912394D01*
X169327565Y-123912394D01*
X169327566Y-123897830D01*
X169689843Y-123897830D01*
X169697125Y-123905112D01*
X169704407Y-123897830D01*
X169701299Y-123894722D01*
X169721319Y-123894722D01*
X169724862Y-123902861D01*
X169739527Y-123918497D01*
X169747958Y-123915289D01*
X169748100Y-123913253D01*
X169747379Y-123912394D01*
X169922870Y-123912394D01*
X169930152Y-123919676D01*
X169937434Y-123912394D01*
X169930152Y-123905112D01*
X169922870Y-123912394D01*
X169747379Y-123912394D01*
X169737755Y-123900935D01*
X169731285Y-123896439D01*
X169725266Y-123895402D01*
X169767518Y-123895402D01*
X169769518Y-123904061D01*
X169777228Y-123905112D01*
X169789216Y-123899783D01*
X169788200Y-123897830D01*
X169879177Y-123897830D01*
X169886460Y-123905112D01*
X169893742Y-123897830D01*
X169995691Y-123897830D01*
X170002973Y-123905112D01*
X170010255Y-123897830D01*
X170002973Y-123890547D01*
X169995691Y-123897830D01*
X169893742Y-123897830D01*
X169886460Y-123890547D01*
X169879177Y-123897830D01*
X169788200Y-123897830D01*
X169786937Y-123895402D01*
X169769653Y-123893659D01*
X169767518Y-123895402D01*
X169725266Y-123895402D01*
X169721319Y-123894722D01*
X169701299Y-123894722D01*
X169697125Y-123890547D01*
X169689843Y-123897830D01*
X169327566Y-123897830D01*
X169327577Y-123765287D01*
X169327470Y-123635854D01*
X169327280Y-123551350D01*
X171117136Y-123551350D01*
X171129813Y-123588946D01*
X171161316Y-123616020D01*
X171201848Y-123627472D01*
X171241617Y-123618204D01*
X171243418Y-123617099D01*
X171266350Y-123587316D01*
X171271149Y-123546726D01*
X171257177Y-123507811D01*
X171249476Y-123498576D01*
X171221397Y-123476501D01*
X171199986Y-123468185D01*
X171172043Y-123479407D01*
X171142074Y-123505770D01*
X171120992Y-123536318D01*
X171117136Y-123551350D01*
X169327280Y-123551350D01*
X169327224Y-123526659D01*
X169326817Y-123435925D01*
X169326228Y-123361873D01*
X169325799Y-123329825D01*
X169354866Y-123329825D01*
X169362148Y-123337107D01*
X169369430Y-123329825D01*
X169362148Y-123322543D01*
X169354866Y-123329825D01*
X169325799Y-123329825D01*
X169325436Y-123302726D01*
X169324427Y-123257004D01*
X169398558Y-123257004D01*
X169405840Y-123264286D01*
X169413122Y-123257004D01*
X169405840Y-123249722D01*
X169398558Y-123257004D01*
X169324427Y-123257004D01*
X169324420Y-123256705D01*
X169323158Y-123222032D01*
X169321629Y-123196930D01*
X169319812Y-123179619D01*
X169317686Y-123168324D01*
X169315230Y-123161264D01*
X169312423Y-123156663D01*
X169310746Y-123154566D01*
X169309695Y-123150418D01*
X169320090Y-123150418D01*
X169336823Y-123161648D01*
X169352484Y-123157128D01*
X169354866Y-123149792D01*
X169367231Y-123142435D01*
X169394917Y-123142712D01*
X169420252Y-123145245D01*
X169418999Y-123141064D01*
X169405840Y-123134433D01*
X169385679Y-123123852D01*
X169391674Y-123120327D01*
X169404627Y-123119667D01*
X169423618Y-123115290D01*
X169423922Y-123110025D01*
X169406409Y-123108178D01*
X169376753Y-123115623D01*
X169345649Y-123128200D01*
X169323787Y-123141748D01*
X169320090Y-123150418D01*
X169309695Y-123150418D01*
X169304852Y-123131304D01*
X169325800Y-123111367D01*
X169371329Y-123096853D01*
X169373265Y-123096483D01*
X169411129Y-123086162D01*
X169435115Y-123073710D01*
X169437302Y-123071176D01*
X169432789Y-123063508D01*
X169407269Y-123065822D01*
X169366769Y-123077259D01*
X169348771Y-123083793D01*
X169335841Y-123086165D01*
X169332320Y-123077396D01*
X169339226Y-123053569D01*
X169345300Y-123039400D01*
X169354866Y-123039400D01*
X169364029Y-123058796D01*
X169384086Y-123055000D01*
X169387845Y-123051681D01*
X169391966Y-123033804D01*
X169383544Y-123015022D01*
X169369446Y-123009568D01*
X169367904Y-123010355D01*
X169355931Y-123030457D01*
X169354866Y-123039400D01*
X169345300Y-123039400D01*
X169357575Y-123010768D01*
X169371299Y-122981368D01*
X169393319Y-122981368D01*
X169401625Y-122993379D01*
X169420754Y-123008150D01*
X169427261Y-123002965D01*
X169421003Y-122988535D01*
X169402088Y-122973788D01*
X169397124Y-122973002D01*
X169393319Y-122981368D01*
X169371299Y-122981368D01*
X169380435Y-122961796D01*
X169385932Y-122951155D01*
X169413122Y-122951155D01*
X169420405Y-122958437D01*
X169427687Y-122951155D01*
X169420405Y-122943873D01*
X169413122Y-122951155D01*
X169385932Y-122951155D01*
X169399015Y-122925827D01*
X169434003Y-122925827D01*
X169448319Y-122928159D01*
X169467209Y-122925481D01*
X169467435Y-122920510D01*
X169447942Y-122917033D01*
X169439520Y-122919360D01*
X169434003Y-122925827D01*
X169399015Y-122925827D01*
X169406475Y-122911385D01*
X169410371Y-122905563D01*
X169491177Y-122905563D01*
X169502928Y-122916549D01*
X169520656Y-122927499D01*
X169523568Y-122929086D01*
X169524667Y-122917492D01*
X169524781Y-122908851D01*
X169514678Y-122894954D01*
X169504141Y-122896314D01*
X169491177Y-122905563D01*
X169410371Y-122905563D01*
X169426697Y-122881169D01*
X169439161Y-122873576D01*
X169442251Y-122884445D01*
X169453239Y-122891461D01*
X169478661Y-122882966D01*
X169505429Y-122866233D01*
X169515072Y-122852367D01*
X169506282Y-122848323D01*
X169493864Y-122855958D01*
X169468624Y-122870150D01*
X169457250Y-122864435D01*
X169461207Y-122845265D01*
X169481177Y-122820077D01*
X169515072Y-122820077D01*
X169522354Y-122827359D01*
X169529636Y-122820077D01*
X169522354Y-122812795D01*
X169515072Y-122820077D01*
X169481177Y-122820077D01*
X169481960Y-122819089D01*
X169484889Y-122816445D01*
X169511346Y-122790430D01*
X169516861Y-122774241D01*
X169507040Y-122762877D01*
X169495720Y-122749189D01*
X169496491Y-122744829D01*
X169505363Y-122744829D01*
X169507362Y-122753487D01*
X169515072Y-122754538D01*
X169527060Y-122749209D01*
X169524781Y-122744829D01*
X169507497Y-122743086D01*
X169505363Y-122744829D01*
X169496491Y-122744829D01*
X169499224Y-122729375D01*
X169506992Y-122715700D01*
X169519927Y-122715700D01*
X169521926Y-122724359D01*
X169529636Y-122725410D01*
X169541624Y-122720081D01*
X169539346Y-122715700D01*
X169522061Y-122713957D01*
X169519927Y-122715700D01*
X169506992Y-122715700D01*
X169518022Y-122696281D01*
X169520600Y-122692012D01*
X169535460Y-122692012D01*
X169540634Y-122696281D01*
X169555555Y-122688999D01*
X169631586Y-122688999D01*
X169638868Y-122696281D01*
X169646150Y-122688999D01*
X169638868Y-122681717D01*
X169631586Y-122688999D01*
X169555555Y-122688999D01*
X169561206Y-122686241D01*
X169573329Y-122674435D01*
X169602457Y-122674435D01*
X169609739Y-122681717D01*
X169617022Y-122674435D01*
X169609739Y-122667153D01*
X169602457Y-122674435D01*
X169573329Y-122674435D01*
X169582069Y-122656859D01*
X169576895Y-122652589D01*
X169556324Y-122662630D01*
X169544200Y-122674435D01*
X169535460Y-122692012D01*
X169520600Y-122692012D01*
X169538205Y-122662853D01*
X169549795Y-122641050D01*
X169550813Y-122638025D01*
X169559285Y-122616618D01*
X169589881Y-122616618D01*
X169592744Y-122630041D01*
X169602879Y-122638593D01*
X169626336Y-122651238D01*
X169627787Y-122645131D01*
X169616729Y-122630390D01*
X169598205Y-122615874D01*
X169589881Y-122616618D01*
X169559285Y-122616618D01*
X169559687Y-122615602D01*
X169577650Y-122585677D01*
X169592214Y-122585677D01*
X169602457Y-122594332D01*
X169625696Y-122607431D01*
X169628792Y-122602498D01*
X169624304Y-122594332D01*
X169603034Y-122580485D01*
X169597957Y-122579991D01*
X169592214Y-122585677D01*
X169577650Y-122585677D01*
X169579068Y-122583315D01*
X169602314Y-122550703D01*
X169622783Y-122527303D01*
X169631954Y-122521511D01*
X169641486Y-122512852D01*
X169639594Y-122508121D01*
X169641747Y-122488403D01*
X169652605Y-122473444D01*
X169666048Y-122452660D01*
X169664875Y-122443141D01*
X169666228Y-122434518D01*
X169669938Y-122434125D01*
X169692102Y-122443323D01*
X169699059Y-122449167D01*
X169723900Y-122457431D01*
X169738905Y-122454690D01*
X169755002Y-122445263D01*
X169752697Y-122429687D01*
X169741176Y-122410782D01*
X169730132Y-122390588D01*
X169729382Y-122371869D01*
X169741209Y-122346770D01*
X169767892Y-122307432D01*
X169773423Y-122299668D01*
X169776251Y-122295765D01*
X169835485Y-122295765D01*
X169842767Y-122303047D01*
X169850049Y-122295765D01*
X169842767Y-122288483D01*
X169835485Y-122295765D01*
X169776251Y-122295765D01*
X169797355Y-122266637D01*
X169850049Y-122266637D01*
X169857331Y-122273919D01*
X169864613Y-122266637D01*
X169857331Y-122259355D01*
X169850049Y-122266637D01*
X169797355Y-122266637D01*
X169814271Y-122243290D01*
X169830228Y-122222944D01*
X169951999Y-122222944D01*
X169959281Y-122230226D01*
X169966563Y-122222944D01*
X169959281Y-122215662D01*
X169951999Y-122222944D01*
X169830228Y-122222944D01*
X169842616Y-122207148D01*
X169862342Y-122187395D01*
X169877329Y-122180182D01*
X169891461Y-122181663D01*
X169892242Y-122181904D01*
X169906480Y-122184613D01*
X169896575Y-122175626D01*
X169897932Y-122159950D01*
X169900748Y-122155272D01*
X170772524Y-122155272D01*
X170774455Y-122191606D01*
X170789042Y-122215221D01*
X170827928Y-122240212D01*
X170871228Y-122241288D01*
X170904915Y-122221904D01*
X170925145Y-122184319D01*
X170922830Y-122142944D01*
X170898729Y-122109582D01*
X170897629Y-122108795D01*
X170857983Y-122094262D01*
X170820065Y-122100938D01*
X170789653Y-122123163D01*
X170772524Y-122155272D01*
X169900748Y-122155272D01*
X169917309Y-122127765D01*
X169951593Y-122082607D01*
X169958119Y-122074875D01*
X169985982Y-122074875D01*
X169987981Y-122083533D01*
X169995691Y-122084584D01*
X170007679Y-122079255D01*
X170005401Y-122074875D01*
X169988116Y-122073132D01*
X169985982Y-122074875D01*
X169958119Y-122074875D01*
X169997672Y-122028016D01*
X170045350Y-121975353D01*
X170083077Y-121975353D01*
X170090359Y-121982635D01*
X170097641Y-121975353D01*
X170090359Y-121968070D01*
X170083077Y-121975353D01*
X170045350Y-121975353D01*
X170052434Y-121967528D01*
X170112766Y-121904680D01*
X170175555Y-121843011D01*
X170237689Y-121786058D01*
X170244839Y-121779808D01*
X170292600Y-121738001D01*
X170332768Y-121702302D01*
X170359731Y-121677726D01*
X170367079Y-121670576D01*
X170388938Y-121651555D01*
X170429820Y-121619805D01*
X170484657Y-121578969D01*
X170548381Y-121532691D01*
X170615923Y-121484615D01*
X170682216Y-121438384D01*
X170742190Y-121397641D01*
X170790338Y-121366305D01*
X170909516Y-121296761D01*
X171047588Y-121224947D01*
X171195137Y-121155430D01*
X171342742Y-121092778D01*
X171401139Y-121070117D01*
X171706095Y-120970513D01*
X172015598Y-120898781D01*
X172327821Y-120854575D01*
X172640938Y-120837551D01*
X172953121Y-120847362D01*
X173262545Y-120883666D01*
X173567382Y-120946115D01*
X173865806Y-121034365D01*
X174155990Y-121148071D01*
X174436107Y-121286889D01*
X174704331Y-121450472D01*
X174958835Y-121638475D01*
X175113673Y-121771453D01*
X175342101Y-121997759D01*
X175549112Y-122240771D01*
X175733396Y-122498371D01*
X175893644Y-122768444D01*
X176028545Y-123048873D01*
X176136790Y-123337541D01*
X176185965Y-123504596D01*
X176220685Y-123639021D01*
X176248288Y-123756164D01*
X176269549Y-123862367D01*
X176285244Y-123963972D01*
X176296145Y-124067322D01*
X176303029Y-124178758D01*
X176306670Y-124304624D01*
X176307843Y-124451262D01*
X176307826Y-124502245D01*
X176307168Y-124632115D01*
X176305566Y-124736911D01*
X176302820Y-124820679D01*
X176298730Y-124887462D01*
X176293096Y-124941306D01*
X176285720Y-124986255D01*
X176283395Y-124997428D01*
X176269738Y-125061220D01*
X176253053Y-125140592D01*
X176236060Y-125222566D01*
X176228478Y-125259584D01*
X176208853Y-125345113D01*
X176183496Y-125440810D01*
X176156857Y-125530234D01*
X176147665Y-125558151D01*
X176127090Y-125620289D01*
X176110683Y-125673236D01*
X176100459Y-125710280D01*
X176098057Y-125723391D01*
X176092347Y-125743474D01*
X176076846Y-125784252D01*
X176054049Y-125840012D01*
X176026452Y-125905036D01*
X175996549Y-125973611D01*
X175966835Y-126040021D01*
X175939807Y-126098552D01*
X175917958Y-126143487D01*
X175903784Y-126169113D01*
X175902926Y-126170336D01*
X175890620Y-126182511D01*
X175878180Y-126178238D01*
X175860268Y-126153834D01*
X175846837Y-126131658D01*
X175770696Y-126030675D01*
X175673470Y-125945930D01*
X175560400Y-125881198D01*
X175444626Y-125842034D01*
X175384494Y-125833372D01*
X175314651Y-125831103D01*
X175246612Y-125834929D01*
X175191894Y-125844552D01*
X175178771Y-125848930D01*
X175162424Y-125850581D01*
X175160427Y-125832117D01*
X175162238Y-125821281D01*
X175164337Y-125737272D01*
X175141376Y-125655383D01*
X175097257Y-125580834D01*
X175035886Y-125518846D01*
X174961163Y-125474638D01*
X174888110Y-125454673D01*
X174819514Y-125445573D01*
X174827277Y-125359954D01*
X174824603Y-125264175D01*
X174796713Y-125181011D01*
X174741960Y-125106216D01*
X174720903Y-125085560D01*
X174669748Y-125042305D01*
X174624213Y-125015871D01*
X174573397Y-125001981D01*
X174506402Y-124996356D01*
X174492504Y-124995911D01*
X174397533Y-125004397D01*
X174316916Y-125036923D01*
X174245915Y-125095530D01*
X174236110Y-125106344D01*
X174184058Y-125178580D01*
X174155936Y-125253405D01*
X174148420Y-125340518D01*
X174149096Y-125360245D01*
X174151034Y-125410861D01*
X174148593Y-125440058D01*
X174139000Y-125455499D01*
X174119480Y-125464849D01*
X174110083Y-125468003D01*
X174050933Y-125499269D01*
X173991646Y-125550216D01*
X173939754Y-125612427D01*
X173902788Y-125677481D01*
X173891294Y-125712561D01*
X173882766Y-125751387D01*
X173785244Y-125709779D01*
X173669676Y-125675653D01*
X173547033Y-125666519D01*
X173424045Y-125681722D01*
X173307444Y-125720606D01*
X173229776Y-125763871D01*
X173197907Y-125783889D01*
X173178079Y-125793567D01*
X173175540Y-125793600D01*
X173172935Y-125778371D01*
X173168784Y-125739762D01*
X173163639Y-125683447D01*
X173158051Y-125615097D01*
X173157525Y-125608292D01*
X173148591Y-125502027D01*
X173138853Y-125403489D01*
X173128815Y-125316485D01*
X173118981Y-125244824D01*
X173109854Y-125192314D01*
X173101936Y-125162762D01*
X173097964Y-125157635D01*
X173092556Y-125171234D01*
X173085377Y-125208415D01*
X173077304Y-125263750D01*
X173069212Y-125331812D01*
X173067994Y-125343328D01*
X173048685Y-125529022D01*
X173023095Y-125325123D01*
X173013424Y-125241830D01*
X173005300Y-125160046D01*
X172999499Y-125088466D01*
X172996801Y-125035780D01*
X172996713Y-125030198D01*
X172994387Y-124976947D01*
X172987874Y-124948120D01*
X172976125Y-124939180D01*
X172975632Y-124939171D01*
X172956315Y-124947258D01*
X172944320Y-124974073D01*
X172938513Y-125023448D01*
X172937520Y-125067799D01*
X172935643Y-125111405D01*
X172930568Y-125176515D01*
X172922972Y-125255761D01*
X172913532Y-125341778D01*
X172908535Y-125383380D01*
X172898547Y-125467855D01*
X172890039Y-125546990D01*
X172883669Y-125614111D01*
X172880090Y-125662546D01*
X172879551Y-125678306D01*
X172878676Y-125719235D01*
X172872506Y-125736296D01*
X172855343Y-125734748D01*
X172830238Y-125723812D01*
X172815145Y-125716212D01*
X172803458Y-125706366D01*
X172794254Y-125690328D01*
X172786611Y-125664152D01*
X172779607Y-125623892D01*
X172772320Y-125565602D01*
X172763829Y-125485337D01*
X172755805Y-125405226D01*
X172739364Y-125243893D01*
X172724346Y-125104525D01*
X172710904Y-124988322D01*
X172699189Y-124896481D01*
X172689354Y-124830198D01*
X172681550Y-124790672D01*
X172676372Y-124778965D01*
X172671352Y-124792547D01*
X172664326Y-124829615D01*
X172655964Y-124884648D01*
X172646937Y-124952125D01*
X172637917Y-125026526D01*
X172629572Y-125102332D01*
X172622575Y-125174022D01*
X172617595Y-125236076D01*
X172615335Y-125281431D01*
X172613699Y-125354252D01*
X172602531Y-125274148D01*
X172595534Y-125216940D01*
X172588301Y-125146730D01*
X172582896Y-125084814D01*
X172574209Y-124979829D01*
X172566341Y-124901338D01*
X172558891Y-124846734D01*
X172551456Y-124813408D01*
X172543635Y-124798752D01*
X172538661Y-124797810D01*
X172529096Y-124814102D01*
X172521598Y-124850384D01*
X172518769Y-124882059D01*
X172515781Y-124923354D01*
X172509976Y-124986730D01*
X172502034Y-125065351D01*
X172492637Y-125152382D01*
X172485999Y-125210846D01*
X172476187Y-125299558D01*
X172467670Y-125384248D01*
X172461070Y-125458117D01*
X172457009Y-125514367D01*
X172456021Y-125538541D01*
X172453136Y-125588690D01*
X172446909Y-125630470D01*
X172442480Y-125645536D01*
X172429963Y-125674664D01*
X172428080Y-125645536D01*
X172425000Y-125603236D01*
X172420662Y-125554178D01*
X172414518Y-125492925D01*
X172406022Y-125414038D01*
X172394626Y-125312082D01*
X172393631Y-125303277D01*
X172383885Y-125215783D01*
X172374273Y-125127134D01*
X172365812Y-125046850D01*
X172359518Y-124984451D01*
X172358776Y-124976721D01*
X172350032Y-124909837D01*
X172339692Y-124869431D01*
X172328805Y-124856044D01*
X172318419Y-124870218D01*
X172309585Y-124912495D01*
X172305653Y-124949296D01*
X172301342Y-124999356D01*
X172295023Y-125070405D01*
X172287420Y-125154434D01*
X172279253Y-125243432D01*
X172275729Y-125281431D01*
X172267393Y-125372911D01*
X172259251Y-125465600D01*
X172252070Y-125550548D01*
X172246618Y-125618805D01*
X172245176Y-125638254D01*
X172240286Y-125698836D01*
X172234357Y-125737881D01*
X172224624Y-125762929D01*
X172208324Y-125781519D01*
X172186440Y-125798460D01*
X172124749Y-125857611D01*
X172068683Y-125937258D01*
X172022600Y-126028794D01*
X171990859Y-126123615D01*
X171977912Y-126210143D01*
X171973310Y-126274875D01*
X171963580Y-126311884D01*
X171946276Y-126322449D01*
X171918955Y-126307851D01*
X171879172Y-126269370D01*
X171874476Y-126264324D01*
X171829820Y-126225042D01*
X171775687Y-126197650D01*
X171732475Y-126183734D01*
X171641448Y-126158243D01*
X171641448Y-126100035D01*
X171632591Y-126045734D01*
X171608824Y-125978158D01*
X171574358Y-125906008D01*
X171533401Y-125837985D01*
X171490161Y-125782791D01*
X171485789Y-125778227D01*
X171421335Y-125717331D01*
X171361981Y-125673913D01*
X171297130Y-125640916D01*
X171255055Y-125624572D01*
X171203416Y-125603676D01*
X171170480Y-125582179D01*
X171146641Y-125552618D01*
X171134161Y-125530659D01*
X171060402Y-125421288D01*
X170966930Y-125333068D01*
X170855115Y-125267052D01*
X170739230Y-125227319D01*
X170612456Y-125210678D01*
X170486467Y-125221527D01*
X170366312Y-125259007D01*
X170281256Y-125305268D01*
X170222984Y-125351705D01*
X170161661Y-125413195D01*
X170106215Y-125479850D01*
X170065576Y-125541784D01*
X170062726Y-125547228D01*
X170037573Y-125582450D01*
X170005813Y-125595248D01*
X169998958Y-125595676D01*
X169957196Y-125599396D01*
X169930152Y-125604424D01*
X169890063Y-125611994D01*
X169869468Y-125614233D01*
X169847188Y-125618274D01*
X169844139Y-125622635D01*
X169835780Y-125632680D01*
X169808029Y-125653735D01*
X169766399Y-125681698D01*
X169755065Y-125688912D01*
X169711566Y-125718430D01*
X169681510Y-125742963D01*
X169670092Y-125758137D01*
X169670718Y-125759917D01*
X169669412Y-125764904D01*
X169657327Y-125761529D01*
X169628441Y-125758150D01*
X169610892Y-125768703D01*
X169613293Y-125787749D01*
X169614097Y-125788834D01*
X169614955Y-125808108D01*
X169603636Y-125836977D01*
X169585751Y-125866278D01*
X169566912Y-125886845D01*
X169552729Y-125889513D01*
X169552557Y-125889348D01*
X169548529Y-125891707D01*
X169552271Y-125904495D01*
X169553361Y-125925382D01*
X169545759Y-125929538D01*
X169531620Y-125937086D01*
X169531361Y-125940461D01*
X169531801Y-125978326D01*
X169520222Y-125997068D01*
X169507790Y-125996636D01*
X169474326Y-125984003D01*
X169460456Y-125979139D01*
X169443879Y-125974794D01*
X169453174Y-125983554D01*
X169456815Y-125986198D01*
X169468894Y-125999186D01*
X169460456Y-126002136D01*
X169443888Y-126011109D01*
X169446397Y-126031326D01*
X169466185Y-126053715D01*
X169471379Y-126057236D01*
X169493266Y-126079269D01*
X169500100Y-126102735D01*
X169490128Y-126117703D01*
X169482302Y-126119096D01*
X169472519Y-126122698D01*
X169483469Y-126131600D01*
X169496521Y-126153970D01*
X169498033Y-126180686D01*
X169493942Y-126197789D01*
X169486210Y-126196725D01*
X169471765Y-126174605D01*
X169461537Y-126155284D01*
X169471379Y-126155284D01*
X169478661Y-126162566D01*
X169485944Y-126155284D01*
X169478661Y-126148002D01*
X169471379Y-126155284D01*
X169461537Y-126155284D01*
X169452157Y-126137566D01*
X169433876Y-126098086D01*
G37*
G36*
X169189982Y-123824182D02*
G01*
X169180095Y-123832291D01*
X169153544Y-123844615D01*
X169143684Y-123846409D01*
X169141079Y-123840399D01*
X169150966Y-123832291D01*
X169177517Y-123819967D01*
X169187377Y-123818172D01*
X169189982Y-123824182D01*
G37*
G36*
X169194659Y-125427073D02*
G01*
X169187377Y-125434355D01*
X169180095Y-125427073D01*
X169187377Y-125419791D01*
X169194659Y-125427073D01*
G37*
G36*
X169471941Y-126009294D02*
G01*
X169494154Y-126007236D01*
X169506401Y-126023576D01*
X169502257Y-126043222D01*
X169489112Y-126053961D01*
X169473028Y-126040756D01*
X169465205Y-126024206D01*
X169485944Y-126024206D01*
X169493226Y-126031488D01*
X169500508Y-126024206D01*
X169493226Y-126016924D01*
X169485944Y-126024206D01*
X169465205Y-126024206D01*
X169463147Y-126019853D01*
X169471941Y-126009294D01*
G37*
G36*
X169311173Y-125762050D02*
G01*
X169303891Y-125769332D01*
X169296609Y-125762050D01*
X169303891Y-125754768D01*
X169311173Y-125762050D01*
G37*
G36*
X169288570Y-123316986D02*
G01*
X169309070Y-123328739D01*
X169305636Y-123336338D01*
X169297468Y-123337107D01*
X169277719Y-123326529D01*
X169274865Y-123322710D01*
X169277210Y-123314434D01*
X169288570Y-123316986D01*
G37*
G36*
X169209223Y-123504596D02*
G01*
X169201941Y-123511878D01*
X169194659Y-123504596D01*
X169201941Y-123497314D01*
X169209223Y-123504596D01*
G37*
G36*
X169077638Y-124771683D02*
G01*
X169086955Y-124806406D01*
X169091636Y-124850484D01*
X169091686Y-124852514D01*
X169097040Y-124892231D01*
X169108730Y-124920063D01*
X169110187Y-124921694D01*
X169119228Y-124935923D01*
X169105332Y-124939171D01*
X169085654Y-124929574D01*
X169082966Y-124920966D01*
X169081376Y-124897052D01*
X169077325Y-124855128D01*
X169073773Y-124822658D01*
X169070193Y-124779970D01*
X169072217Y-124764437D01*
X169077638Y-124771683D01*
G37*
G36*
X169188445Y-125242287D02*
G01*
X169189804Y-125252302D01*
X169188114Y-125272094D01*
X169178873Y-125267996D01*
X169175240Y-125264439D01*
X169165872Y-125244551D01*
X169173520Y-125231099D01*
X169177668Y-125230456D01*
X169188445Y-125242287D01*
G37*
G36*
X169117289Y-123881991D02*
G01*
X169117014Y-123924999D01*
X169122565Y-123946697D01*
X169137064Y-123954777D01*
X169147325Y-123956019D01*
X169173760Y-123950438D01*
X169180095Y-123938229D01*
X169188431Y-123925541D01*
X169195928Y-123927742D01*
X169203782Y-123942504D01*
X169196156Y-123953134D01*
X169164256Y-123968456D01*
X169124841Y-123969382D01*
X169105904Y-123962522D01*
X169096846Y-123947099D01*
X169098165Y-123914425D01*
X169104494Y-123881249D01*
X169120023Y-123810444D01*
X169117289Y-123881991D01*
G37*
X120535000Y-111765000D02*
X120535000Y-109480000D01*
X119065000Y-109480000D02*
X119065000Y-111765000D01*
X119065000Y-111765000D02*
X120535000Y-111765000D01*
X155382000Y-104507000D02*
X158982000Y-104507000D01*
X161432000Y-114607000D02*
X158932000Y-114607000D01*
X157182000Y-103107000D02*
X157182000Y-102307000D01*
X157182000Y-109907000D02*
X157182000Y-111407000D01*
X158982000Y-108507000D02*
X155382000Y-108507000D01*
X157182000Y-111407000D02*
X159682000Y-116007000D01*
X157182000Y-103107000D02*
X153582000Y-103107000D01*
X156032000Y-99057000D02*
X149432000Y-99057000D01*
X163182000Y-106507000D02*
X158982000Y-106507000D01*
X157182000Y-109907000D02*
X153582000Y-109907000D01*
X163182000Y-106507000D02*
X163182000Y-104007000D01*
X153582000Y-109907000D02*
X153582000Y-103107000D01*
X165032000Y-118857000D02*
X149432000Y-118857000D01*
X165032000Y-99057000D02*
X165032000Y-118857000D01*
X158982000Y-104507000D02*
X158982000Y-108507000D01*
X155382000Y-106507000D02*
X151182000Y-106507000D01*
X153032000Y-114607000D02*
X155482000Y-114607000D01*
X155382000Y-108507000D02*
X155382000Y-104507000D01*
X155382000Y-108507000D02*
X158982000Y-104507000D01*
X151182000Y-104007000D02*
X151182000Y-106507000D01*
X149432000Y-118857000D02*
X149432000Y-99057000D01*
X165032000Y-99057000D02*
X158432000Y-99057000D01*
X119370000Y-124645000D02*
X119370000Y-127245000D01*
X119370000Y-124645000D02*
X122030000Y-124645000D01*
X119370000Y-127245000D02*
X122030000Y-127245000D01*
X122030000Y-124645000D02*
X122030000Y-127245000D01*
X119370000Y-122045000D02*
X120700000Y-122045000D01*
X119370000Y-123375000D02*
X119370000Y-122045000D01*
X129657564Y-118249800D02*
X129873236Y-118249800D01*
X129657564Y-118969800D02*
X129873236Y-118969800D01*
X130692164Y-115260000D02*
X130907836Y-115260000D01*
X130692164Y-114540000D02*
X130907836Y-114540000D01*
X126587364Y-118978000D02*
X126803036Y-118978000D01*
X126587364Y-118258000D02*
X126803036Y-118258000D01*
X148056359Y-122657600D02*
X148363641Y-122657600D01*
X148056359Y-123417600D02*
X148363641Y-123417600D01*
X128247900Y-127450964D02*
X128247900Y-127666636D01*
X128967900Y-127450964D02*
X128967900Y-127666636D01*
X151890000Y-131375000D02*
X162510000Y-131375000D01*
X151650000Y-132075000D02*
X152050000Y-132075000D01*
X151890000Y-124115000D02*
X151890000Y-131835000D01*
X159725000Y-128456000D02*
X159631000Y-128549000D01*
X156055000Y-128216000D02*
X155926000Y-128344000D01*
X151890000Y-124115000D02*
X162510000Y-124115000D01*
X156225000Y-128456000D02*
X156131000Y-128549000D01*
X162510000Y-124115000D02*
X162510000Y-131835000D01*
X151890000Y-130275000D02*
X162510000Y-130275000D01*
X161975000Y-126206000D02*
X161846000Y-126334000D01*
X151650000Y-131435000D02*
X151650000Y-132075000D01*
X158475000Y-126206000D02*
X158346000Y-126334000D01*
X158270000Y-126000000D02*
X158176000Y-126094000D01*
X151890000Y-131835000D02*
X162510000Y-131835000D01*
X161770000Y-126000000D02*
X161676000Y-126094000D01*
X159555000Y-128216000D02*
X159426000Y-128344000D01*
X152834000Y-128715000D02*
G75*
G03*
X153728674Y-128955099I866003J1440014D01*
G01*
X154566000Y-125834999D02*
G75*
G03*
X152810106Y-125849642I-866000J-1439999D01*
G01*
X153700000Y-128955000D02*
G75*
G03*
X154590264Y-128699721I3J1679990D01*
G01*
X152259999Y-126409000D02*
G75*
G03*
X152274642Y-128164894I1439999J-866000D01*
G01*
X155125000Y-128166000D02*
G75*
G03*
X155125504Y-126384807I-1425003J891000D01*
G01*
X162380000Y-127275000D02*
G75*
G03*
X162380000Y-127275000I-1680000J0D01*
G01*
X158880000Y-127275000D02*
G75*
G03*
X158880000Y-127275000I-1680000J0D01*
G01*
X133148041Y-126721600D02*
X132840759Y-126721600D01*
X133148041Y-127481600D02*
X132840759Y-127481600D01*
X127146359Y-115720000D02*
X127453641Y-115720000D01*
X127146359Y-116480000D02*
X127453641Y-116480000D01*
X134990000Y-131415000D02*
X145610000Y-131415000D01*
X134990000Y-131875000D02*
X145610000Y-131875000D01*
X134750000Y-132115000D02*
X135150000Y-132115000D01*
X145610000Y-124155000D02*
X145610000Y-131875000D01*
X134750000Y-131475000D02*
X134750000Y-132115000D01*
X134990000Y-124155000D02*
X134990000Y-131875000D01*
X139325000Y-128496000D02*
X139231000Y-128589000D01*
X145075000Y-126246000D02*
X144946000Y-126374000D01*
X134990000Y-124155000D02*
X145610000Y-124155000D01*
X139155000Y-128256000D02*
X139026000Y-128384000D01*
X144870000Y-126040000D02*
X144776000Y-126134000D01*
X134990000Y-130315000D02*
X145610000Y-130315000D01*
X142655000Y-128256000D02*
X142526000Y-128384000D01*
X142825000Y-128496000D02*
X142731000Y-128589000D01*
X141370000Y-126040000D02*
X141276000Y-126134000D01*
X141575000Y-126246000D02*
X141446000Y-126374000D01*
X135359999Y-126449000D02*
G75*
G03*
X135374642Y-128204894I1439999J-866000D01*
G01*
X138225000Y-128206000D02*
G75*
G03*
X138225504Y-126424807I-1425003J891000D01*
G01*
X137666000Y-125874999D02*
G75*
G03*
X135910106Y-125889642I-866000J-1439999D01*
G01*
X136800000Y-128995000D02*
G75*
G03*
X137690264Y-128739721I3J1679990D01*
G01*
X135934000Y-128755000D02*
G75*
G03*
X136828674Y-128995099I866003J1440014D01*
G01*
X145480000Y-127315000D02*
G75*
G03*
X145480000Y-127315000I-1680000J0D01*
G01*
X141980000Y-127315000D02*
G75*
G03*
X141980000Y-127315000I-1680000J0D01*
G01*
X130824800Y-124561600D02*
X130824800Y-126236600D01*
X133944800Y-124561600D02*
X133944800Y-123911600D01*
X130824800Y-124561600D02*
X130824800Y-123911600D01*
X133944800Y-124561600D02*
X133944800Y-125211600D01*
X129546359Y-115720000D02*
X129853641Y-115720000D01*
X129546359Y-116480000D02*
X129853641Y-116480000D01*
X127910000Y-118344836D02*
X127910000Y-118129164D01*
X128630000Y-118344836D02*
X128630000Y-118129164D01*
X141036359Y-121660000D02*
X141343641Y-121660000D01*
X141036359Y-122420000D02*
X141343641Y-122420000D01*
X129586359Y-117240000D02*
X129893641Y-117240000D01*
X129586359Y-118000000D02*
X129893641Y-118000000D01*
X139496000Y-121527000D02*
X137211000Y-121527000D01*
X137211000Y-122997000D02*
X139496000Y-122997000D01*
X137211000Y-121527000D02*
X137211000Y-122997000D01*
X130807836Y-108868800D02*
X130592164Y-108868800D01*
X130807836Y-108148800D02*
X130592164Y-108148800D01*
X125114164Y-127461600D02*
X125329836Y-127461600D01*
X125114164Y-126741600D02*
X125329836Y-126741600D01*
X148873700Y-126782000D02*
X148223700Y-126782000D01*
X148873700Y-123662000D02*
X149523700Y-123662000D01*
X148873700Y-126782000D02*
X149523700Y-126782000D01*
X148873700Y-123662000D02*
X147198700Y-123662000D01*
X112361000Y-107058000D02*
X112361000Y-98058000D01*
X126561000Y-98058000D02*
X126561000Y-100958000D01*
X121661000Y-107058000D02*
X112361000Y-107058000D01*
X112361000Y-98058000D02*
X126561000Y-98058000D01*
X126561000Y-104158000D02*
X126561000Y-107058000D01*
X126561000Y-107058000D02*
X124961000Y-107058000D01*
X173863000Y-115788000D02*
X174513000Y-115788000D01*
X173863000Y-118908000D02*
X174513000Y-118908000D01*
X173863000Y-118908000D02*
X173213000Y-118908000D01*
X173863000Y-115788000D02*
X172188000Y-115788000D01*
D14*
X170583800Y-98560000D02*
X169974200Y-98560000D01*
X169974200Y-98560000D02*
X168018400Y-98560000D01*
X172539600Y-98560000D02*
X170583800Y-98560000D01*
X168018400Y-103640000D02*
X172539600Y-103640000D01*
X169974200Y-98560000D02*
G75*
G03*
X170583800Y-98560000I304800J0D01*
G01*
D13*
X124560000Y-113000000D02*
X124560000Y-111600000D01*
X122240000Y-111600000D02*
X122240000Y-113500000D01*
X173830000Y-108755580D02*
X173830000Y-108474420D01*
X174850000Y-108755580D02*
X174850000Y-108474420D01*
X157957359Y-121562000D02*
X158264641Y-121562000D01*
X157957359Y-122322000D02*
X158264641Y-122322000D01*
X126999000Y-127788641D02*
X126999000Y-127481359D01*
X126239000Y-127788641D02*
X126239000Y-127481359D01*
X148413259Y-128853200D02*
X148720541Y-128853200D01*
X148413259Y-128093200D02*
X148720541Y-128093200D01*
X125112164Y-127720000D02*
X125327836Y-127720000D01*
X125112164Y-128440000D02*
X125327836Y-128440000D01*
X130560400Y-125634636D02*
X130560400Y-125418964D01*
X129840400Y-125634636D02*
X129840400Y-125418964D01*
M02*
