G04 #@! TF.GenerationSoftware,KiCad,Pcbnew,(6.0.0)*
G04 #@! TF.CreationDate,2023-01-15T16:22:46+02:00*
G04 #@! TF.ProjectId,Pi HAT,50692048-4154-42e6-9b69-6361645f7063,0.0*
G04 #@! TF.SameCoordinates,Original*
G04 #@! TF.FileFunction,Legend,Bot*
G04 #@! TF.FilePolarity,Positive*
%FSLAX46Y46*%
G04 Gerber Fmt 4.6, Leading zero omitted, Abs format (unit mm)*
G04 Created by KiCad (PCBNEW (6.0.0)) date 2023-01-15 16:22:46*
%MOMM*%
%LPD*%
G01*
G04 APERTURE LIST*
%ADD10C,0.150000*%
%ADD11C,0.120000*%
G04 APERTURE END LIST*
D10*
X167891904Y-114524380D02*
X167320476Y-114524380D01*
X167606190Y-115524380D02*
X167606190Y-114524380D01*
X166987142Y-115524380D02*
X166987142Y-114524380D01*
X166606190Y-114524380D01*
X166510952Y-114572000D01*
X166463333Y-114619619D01*
X166415714Y-114714857D01*
X166415714Y-114857714D01*
X166463333Y-114952952D01*
X166510952Y-115000571D01*
X166606190Y-115048190D01*
X166987142Y-115048190D01*
X166082380Y-114524380D02*
X165415714Y-114524380D01*
X165844285Y-115524380D01*
X172391904Y-114464380D02*
X171820476Y-114464380D01*
X172106190Y-115464380D02*
X172106190Y-114464380D01*
X171487142Y-115464380D02*
X171487142Y-114464380D01*
X171106190Y-114464380D01*
X171010952Y-114512000D01*
X170963333Y-114559619D01*
X170915714Y-114654857D01*
X170915714Y-114797714D01*
X170963333Y-114892952D01*
X171010952Y-114940571D01*
X171106190Y-114988190D01*
X171487142Y-114988190D01*
X170058571Y-114464380D02*
X170249047Y-114464380D01*
X170344285Y-114512000D01*
X170391904Y-114559619D01*
X170487142Y-114702476D01*
X170534761Y-114892952D01*
X170534761Y-115273904D01*
X170487142Y-115369142D01*
X170439523Y-115416761D01*
X170344285Y-115464380D01*
X170153809Y-115464380D01*
X170058571Y-115416761D01*
X170010952Y-115369142D01*
X169963333Y-115273904D01*
X169963333Y-115035809D01*
X170010952Y-114940571D01*
X170058571Y-114892952D01*
X170153809Y-114845333D01*
X170344285Y-114845333D01*
X170439523Y-114892952D01*
X170487142Y-114940571D01*
X170534761Y-115035809D01*
X148835880Y-108017666D02*
X149550166Y-108017666D01*
X149693023Y-107970047D01*
X149788261Y-107874809D01*
X149835880Y-107731952D01*
X149835880Y-107636714D01*
X149835880Y-108493857D02*
X148835880Y-108493857D01*
X148835880Y-108874809D01*
X148883500Y-108970047D01*
X148931119Y-109017666D01*
X149026357Y-109065285D01*
X149169214Y-109065285D01*
X149264452Y-109017666D01*
X149312071Y-108970047D01*
X149359690Y-108874809D01*
X149359690Y-108493857D01*
X148835880Y-109398619D02*
X148835880Y-110017666D01*
X149216833Y-109684333D01*
X149216833Y-109827190D01*
X149264452Y-109922428D01*
X149312071Y-109970047D01*
X149407309Y-110017666D01*
X149645404Y-110017666D01*
X149740642Y-109970047D01*
X149788261Y-109922428D01*
X149835880Y-109827190D01*
X149835880Y-109541476D01*
X149788261Y-109446238D01*
X149740642Y-109398619D01*
X131243333Y-125412380D02*
X131243333Y-126126666D01*
X131290952Y-126269523D01*
X131386190Y-126364761D01*
X131529047Y-126412380D01*
X131624285Y-126412380D01*
X130767142Y-126412380D02*
X130767142Y-125412380D01*
X130386190Y-125412380D01*
X130290952Y-125460000D01*
X130243333Y-125507619D01*
X130195714Y-125602857D01*
X130195714Y-125745714D01*
X130243333Y-125840952D01*
X130290952Y-125888571D01*
X130386190Y-125936190D01*
X130767142Y-125936190D01*
X129290952Y-125412380D02*
X129767142Y-125412380D01*
X129814761Y-125888571D01*
X129767142Y-125840952D01*
X129671904Y-125793333D01*
X129433809Y-125793333D01*
X129338571Y-125840952D01*
X129290952Y-125888571D01*
X129243333Y-125983809D01*
X129243333Y-126221904D01*
X129290952Y-126317142D01*
X129338571Y-126364761D01*
X129433809Y-126412380D01*
X129671904Y-126412380D01*
X129767142Y-126364761D01*
X129814761Y-126317142D01*
X155582380Y-108036666D02*
X156296666Y-108036666D01*
X156439523Y-107989047D01*
X156534761Y-107893809D01*
X156582380Y-107750952D01*
X156582380Y-107655714D01*
X156582380Y-108512857D02*
X155582380Y-108512857D01*
X155582380Y-108893809D01*
X155630000Y-108989047D01*
X155677619Y-109036666D01*
X155772857Y-109084285D01*
X155915714Y-109084285D01*
X156010952Y-109036666D01*
X156058571Y-108989047D01*
X156106190Y-108893809D01*
X156106190Y-108512857D01*
X156582380Y-110036666D02*
X156582380Y-109465238D01*
X156582380Y-109750952D02*
X155582380Y-109750952D01*
X155725238Y-109655714D01*
X155820476Y-109560476D01*
X155868095Y-109465238D01*
X171451904Y-118134380D02*
X170880476Y-118134380D01*
X171166190Y-119134380D02*
X171166190Y-118134380D01*
X170547142Y-119134380D02*
X170547142Y-118134380D01*
X170166190Y-118134380D01*
X170070952Y-118182000D01*
X170023333Y-118229619D01*
X169975714Y-118324857D01*
X169975714Y-118467714D01*
X170023333Y-118562952D01*
X170070952Y-118610571D01*
X170166190Y-118658190D01*
X170547142Y-118658190D01*
X169404285Y-118562952D02*
X169499523Y-118515333D01*
X169547142Y-118467714D01*
X169594761Y-118372476D01*
X169594761Y-118324857D01*
X169547142Y-118229619D01*
X169499523Y-118182000D01*
X169404285Y-118134380D01*
X169213809Y-118134380D01*
X169118571Y-118182000D01*
X169070952Y-118229619D01*
X169023333Y-118324857D01*
X169023333Y-118372476D01*
X169070952Y-118467714D01*
X169118571Y-118515333D01*
X169213809Y-118562952D01*
X169404285Y-118562952D01*
X169499523Y-118610571D01*
X169547142Y-118658190D01*
X169594761Y-118753428D01*
X169594761Y-118943904D01*
X169547142Y-119039142D01*
X169499523Y-119086761D01*
X169404285Y-119134380D01*
X169213809Y-119134380D01*
X169118571Y-119086761D01*
X169070952Y-119039142D01*
X169023333Y-118943904D01*
X169023333Y-118753428D01*
X169070952Y-118658190D01*
X169118571Y-118610571D01*
X169213809Y-118562952D01*
X122584380Y-94234666D02*
X123298666Y-94234666D01*
X123441523Y-94187047D01*
X123536761Y-94091809D01*
X123584380Y-93948952D01*
X123584380Y-93853714D01*
X122584380Y-94615619D02*
X122584380Y-95282285D01*
X123584380Y-94853714D01*
X124777380Y-123541666D02*
X125491666Y-123541666D01*
X125634523Y-123494047D01*
X125729761Y-123398809D01*
X125777380Y-123255952D01*
X125777380Y-123160714D01*
X125777380Y-124017857D02*
X124777380Y-124017857D01*
X124777380Y-124398809D01*
X124825000Y-124494047D01*
X124872619Y-124541666D01*
X124967857Y-124589285D01*
X125110714Y-124589285D01*
X125205952Y-124541666D01*
X125253571Y-124494047D01*
X125301190Y-124398809D01*
X125301190Y-124017857D01*
X124777380Y-124922619D02*
X124777380Y-125589285D01*
X125777380Y-125160714D01*
X138435458Y-108015543D02*
X139149744Y-108015543D01*
X139292601Y-107967924D01*
X139387839Y-107872686D01*
X139435458Y-107729829D01*
X139435458Y-107634591D01*
X139435458Y-108491734D02*
X138435458Y-108491734D01*
X138435458Y-108872686D01*
X138483078Y-108967924D01*
X138530697Y-109015543D01*
X138625935Y-109063162D01*
X138768792Y-109063162D01*
X138864030Y-109015543D01*
X138911649Y-108967924D01*
X138959268Y-108872686D01*
X138959268Y-108491734D01*
X138530697Y-109444115D02*
X138483078Y-109491734D01*
X138435458Y-109586972D01*
X138435458Y-109825067D01*
X138483078Y-109920305D01*
X138530697Y-109967924D01*
X138625935Y-110015543D01*
X138721173Y-110015543D01*
X138864030Y-109967924D01*
X139435458Y-109396496D01*
X139435458Y-110015543D01*
X167891904Y-118074380D02*
X167320476Y-118074380D01*
X167606190Y-119074380D02*
X167606190Y-118074380D01*
X166987142Y-119074380D02*
X166987142Y-118074380D01*
X166606190Y-118074380D01*
X166510952Y-118122000D01*
X166463333Y-118169619D01*
X166415714Y-118264857D01*
X166415714Y-118407714D01*
X166463333Y-118502952D01*
X166510952Y-118550571D01*
X166606190Y-118598190D01*
X166987142Y-118598190D01*
X165510952Y-118074380D02*
X165987142Y-118074380D01*
X166034761Y-118550571D01*
X165987142Y-118502952D01*
X165891904Y-118455333D01*
X165653809Y-118455333D01*
X165558571Y-118502952D01*
X165510952Y-118550571D01*
X165463333Y-118645809D01*
X165463333Y-118883904D01*
X165510952Y-118979142D01*
X165558571Y-119026761D01*
X165653809Y-119074380D01*
X165891904Y-119074380D01*
X165987142Y-119026761D01*
X166034761Y-118979142D01*
X131932380Y-108026666D02*
X132646666Y-108026666D01*
X132789523Y-107979047D01*
X132884761Y-107883809D01*
X132932380Y-107740952D01*
X132932380Y-107645714D01*
X132932380Y-108502857D02*
X131932380Y-108502857D01*
X131932380Y-108883809D01*
X131980000Y-108979047D01*
X132027619Y-109026666D01*
X132122857Y-109074285D01*
X132265714Y-109074285D01*
X132360952Y-109026666D01*
X132408571Y-108979047D01*
X132456190Y-108883809D01*
X132456190Y-108502857D01*
X132265714Y-109931428D02*
X132932380Y-109931428D01*
X131884761Y-109693333D02*
X132599047Y-109455238D01*
X132599047Y-110074285D01*
X125622380Y-109506666D02*
X126336666Y-109506666D01*
X126479523Y-109459047D01*
X126574761Y-109363809D01*
X126622380Y-109220952D01*
X126622380Y-109125714D01*
X126622380Y-109982857D02*
X125622380Y-109982857D01*
X125622380Y-110363809D01*
X125670000Y-110459047D01*
X125717619Y-110506666D01*
X125812857Y-110554285D01*
X125955714Y-110554285D01*
X126050952Y-110506666D01*
X126098571Y-110459047D01*
X126146190Y-110363809D01*
X126146190Y-109982857D01*
X125622380Y-111411428D02*
X125622380Y-111220952D01*
X125670000Y-111125714D01*
X125717619Y-111078095D01*
X125860476Y-110982857D01*
X126050952Y-110935238D01*
X126431904Y-110935238D01*
X126527142Y-110982857D01*
X126574761Y-111030476D01*
X126622380Y-111125714D01*
X126622380Y-111316190D01*
X126574761Y-111411428D01*
X126527142Y-111459047D01*
X126431904Y-111506666D01*
X126193809Y-111506666D01*
X126098571Y-111459047D01*
X126050952Y-111411428D01*
X126003333Y-111316190D01*
X126003333Y-111125714D01*
X126050952Y-111030476D01*
X126098571Y-110982857D01*
X126193809Y-110935238D01*
D11*
X167580000Y-116720000D02*
G75*
G03*
X167580000Y-116720000I-950000J0D01*
G01*
X172080000Y-116660000D02*
G75*
G03*
X172080000Y-116660000I-950000J0D01*
G01*
X150327500Y-111600000D02*
X152277500Y-111600000D01*
X152827500Y-107750000D02*
X152527500Y-107450000D01*
X152277500Y-111600000D02*
X152277500Y-106100000D01*
X152277500Y-106100000D02*
X150327500Y-106100000D01*
X152527500Y-107450000D02*
X152827500Y-107150000D01*
X150327500Y-106100000D02*
X150327500Y-111600000D01*
X152827500Y-107150000D02*
X152827500Y-107750000D01*
X128851200Y-127411200D02*
X128851200Y-128011200D01*
X130951200Y-126711200D02*
X129551200Y-126711200D01*
X129551200Y-128711200D02*
X130951200Y-128711200D01*
X131651200Y-128011200D02*
X131651200Y-127411200D01*
X131651200Y-127411200D02*
G75*
G03*
X130951200Y-126711200I-699999J1D01*
G01*
X130951200Y-128711200D02*
G75*
G03*
X131651200Y-128011200I1J699999D01*
G01*
X128851200Y-128011200D02*
G75*
G03*
X129551200Y-128711200I699999J-1D01*
G01*
X129551200Y-126711200D02*
G75*
G03*
X128851200Y-127411200I-1J-699999D01*
G01*
X154934000Y-111589000D02*
X154934000Y-106089000D01*
X155484000Y-107139000D02*
X155484000Y-107739000D01*
X152984000Y-106089000D02*
X152984000Y-111589000D01*
X155484000Y-107739000D02*
X155184000Y-107439000D01*
X155184000Y-107439000D02*
X155484000Y-107139000D01*
X154934000Y-106089000D02*
X152984000Y-106089000D01*
X152984000Y-111589000D02*
X154934000Y-111589000D01*
X171140000Y-120330000D02*
G75*
G03*
X171140000Y-120330000I-950000J0D01*
G01*
X124572000Y-94568000D02*
X127172000Y-94568000D01*
X175492000Y-91968000D02*
X175492000Y-97168000D01*
X124572000Y-91968000D02*
X124572000Y-94568000D01*
X124572000Y-91968000D02*
X175492000Y-91968000D01*
X127172000Y-97168000D02*
X175492000Y-97168000D01*
X127172000Y-94568000D02*
X127172000Y-97168000D01*
X124572000Y-97168000D02*
X125902000Y-97168000D01*
X124572000Y-95838000D02*
X124572000Y-97168000D01*
X122050000Y-126200000D02*
X122350000Y-126500000D01*
X122350000Y-126500000D02*
X122050000Y-126800000D01*
X122600000Y-127850000D02*
X124550000Y-127850000D01*
X122600000Y-122350000D02*
X122600000Y-127850000D01*
X122050000Y-126800000D02*
X122050000Y-126200000D01*
X124550000Y-127850000D02*
X124550000Y-122350000D01*
X124550000Y-122350000D02*
X122600000Y-122350000D01*
X138000000Y-111580000D02*
X138000000Y-106080000D01*
X138000000Y-106080000D02*
X136050000Y-106080000D01*
X136050000Y-106080000D02*
X136050000Y-111580000D01*
X138550000Y-107730000D02*
X138250000Y-107430000D01*
X136050000Y-111580000D02*
X138000000Y-111580000D01*
X138550000Y-107130000D02*
X138550000Y-107730000D01*
X138250000Y-107430000D02*
X138550000Y-107130000D01*
X167580000Y-120270000D02*
G75*
G03*
X167580000Y-120270000I-950000J0D01*
G01*
X135566000Y-107439000D02*
X135866000Y-107139000D01*
X135316000Y-106089000D02*
X133366000Y-106089000D01*
X135866000Y-107139000D02*
X135866000Y-107739000D01*
X135316000Y-111589000D02*
X135316000Y-106089000D01*
X133366000Y-111589000D02*
X135316000Y-111589000D01*
X135866000Y-107739000D02*
X135566000Y-107439000D01*
X133366000Y-106089000D02*
X133366000Y-111589000D01*
X127800000Y-111750000D02*
X128400000Y-111750000D01*
X128400000Y-108950000D02*
X127800000Y-108950000D01*
X127100000Y-109650000D02*
X127100000Y-111050000D01*
X129100000Y-111050000D02*
X129100000Y-109650000D01*
X129100000Y-109650000D02*
G75*
G03*
X128400000Y-108950000I-699999J1D01*
G01*
X127800000Y-108950000D02*
G75*
G03*
X127100000Y-109650000I-1J-699999D01*
G01*
X128400000Y-111750000D02*
G75*
G03*
X129100000Y-111050000I1J699999D01*
G01*
X127100000Y-111050000D02*
G75*
G03*
X127800000Y-111750000I699999J-1D01*
G01*
M02*
