M48
METRIC,TZ
T1C0.250
T2C0.300
T3C0.800
T4C1.000
T5C1.200
T6C1.300
%
G90
G05
T1
X174820Y-100000
T2
X118500Y-99850
X118600Y-105250
X118730Y-113670
X118730Y-114420
X119480Y-113670
X119480Y-114420
X119650Y-105250
X119750Y-99850
X120240Y-129380
X120240Y-130130
X120990Y-129380
X120990Y-130130
X121740Y-129380
X121740Y-130130
X123400Y-112300
X123550Y-128060
X124050Y-114480
X124200Y-92000
X124360Y-100920
X124360Y-104240
X124405Y-121230
X124560Y-116860
X124560Y-117770
X124560Y-118830
X125200Y-124400
X125580Y-116290
X125700Y-128970
X126600Y-121150
X127260Y-107820
X127270Y-114810
X127643Y-121256
X127750Y-123850
X128140Y-114980
X128401Y-121000
X129010Y-114490
X130000Y-120150
X131050Y-119600
X131200Y-122000
X131530Y-100280
X132000Y-106700
X132500Y-99400
X132500Y-100290
X132930Y-129670
X133050Y-110800
X133100Y-106700
X133480Y-128180
X135390Y-130440
X135390Y-131190
X135880Y-98890
X136030Y-116300
X136030Y-117050
X136100Y-118250
X136140Y-130440
X136140Y-131190
X136890Y-130440
X136890Y-131190
X137640Y-130440
X137640Y-131190
X138100Y-118200
X138390Y-130440
X138390Y-131190
X140332Y-115748
X140332Y-116938
X140332Y-118068
X144660Y-110860
X149340Y-108860
X150290Y-121130
X150330Y-128460
X155070Y-113470
X159450Y-103770
X162290Y-106600
X162900Y-97591
X162900Y-109740
X162910Y-111330
X162920Y-110550
X163800Y-100090
X164180Y-117580
X164500Y-124330
X164500Y-125330
X164500Y-126330
X164500Y-127330
X164500Y-128330
X164650Y-118115
X165070Y-111210
X165090Y-103950
X165100Y-106260
X165120Y-118650
X165500Y-124330
X165500Y-125330
X165500Y-126330
X165500Y-127330
X165500Y-128330
X165870Y-101760
X165990Y-103800
X166950Y-104300
X168559Y-107570
X168850Y-113450
X168890Y-101630
X169080Y-98340
X169330Y-99280
X169900Y-110380
X170040Y-113090
X170370Y-111360
X170700Y-100150
X170830Y-108980
X171083Y-106553
X171083Y-107696
X171150Y-103460
X171450Y-102235
X172340Y-120480
X172860Y-119990
X173370Y-119480
X174072Y-115252
X174550Y-111670
X174560Y-114770
X174580Y-110720
X174669Y-101098
X175047Y-114277
X175310Y-104810
X176070Y-111650
T4
X120700Y-123375
X120700Y-125915
X124985Y-130460
X125902Y-93298
X125902Y-95838
X127525Y-130460
X128442Y-93298
X128442Y-95838
X130065Y-130460
X130982Y-93298
X130982Y-95838
X133522Y-93298
X133522Y-95838
X134282Y-102375
X136062Y-93298
X136062Y-95838
X138602Y-93298
X138602Y-95838
X141142Y-93298
X141142Y-95838
X143682Y-93298
X143682Y-95838
X146222Y-93298
X146222Y-95838
X146282Y-102375
X148762Y-93298
X148762Y-95838
X151182Y-102407
X151302Y-93298
X151302Y-95838
X153842Y-93298
X153842Y-95838
X156382Y-93298
X156382Y-95838
X158922Y-93298
X158922Y-95838
X161462Y-93298
X161462Y-95838
X163182Y-102407
X164002Y-93298
X164002Y-95838
X166542Y-93298
X166542Y-95838
X169082Y-93298
X169082Y-95838
X171622Y-93298
X171622Y-95838
X174162Y-93298
X174162Y-95838
T5
X136800Y-127315
X140300Y-127315
X143800Y-127315
X153700Y-127275
X157200Y-127275
X160700Y-127275
X179324Y-100950
X179324Y-104450
X179324Y-107950
X179324Y-111450
T6
X134282Y-114575
X140332Y-100425
X146332Y-114625
X151182Y-114607
X157232Y-100457
X163232Y-114657
T3
G00X119261Y-102908
M15
G01X119261Y-102208
M16
G05
G00X123711Y-107258
M15
G01X123011Y-107258
M16
G05
G00X125911Y-102908
M15
G01X125911Y-102208
M16
G05
T0
M30
