M48
; DRILL file {KiCad 7.0.9} date Thu Dec 14 14:46:39 2023
; FORMAT={-:-/ absolute / inch / decimal}
; #@! TF.CreationDate,2023-12-14T14:46:39+02:00
; #@! TF.GenerationSoftware,Kicad,Pcbnew,7.0.9
; #@! TF.FileFunction,Plated,1,2,PTH
FMAT,2
INCH
; #@! TA.AperFunction,Plated,PTH,ViaDrill
T1C0.0118
; #@! TA.AperFunction,Plated,PTH,ComponentDrill
T2C0.0315
; #@! TA.AperFunction,Plated,PTH,ComponentDrill
T3C0.0394
; #@! TA.AperFunction,Plated,PTH,ComponentDrill
T4C0.0472
; #@! TA.AperFunction,Plated,PTH,ComponentDrill
T5C0.0512
%
G90
G05
T1
X4.656Y-4.468
X4.656Y-4.5028
X4.6654Y-3.9311
X4.6693Y-4.1437
X4.6855Y-5.092
X4.6855Y-5.1392
X4.6939Y-4.468
X4.6939Y-4.5028
X4.724Y-3.9311
X4.724Y-4.1437
X4.7328Y-5.092
X4.7328Y-5.1392
X4.78Y-5.092
X4.78Y-5.1392
X4.8583Y-4.4213
X4.8642Y-5.0417
X4.8839Y-4.5071
X4.8898Y-3.622
X4.8961Y-3.9732
X4.8961Y-4.1039
X4.8978Y-4.7728
X4.9039Y-4.587
X4.9039Y-4.6264
X4.9039Y-4.663
X4.9291Y-4.8976
X4.9441Y-4.5783
X4.9488Y-5.0776
X4.9866Y-4.7959
X5.0057Y-4.5152
X5.0102Y-4.2449
X5.026Y-4.7864
X5.0453Y-4.5339
X5.0551Y-4.8789
X5.0551Y-4.7744
X5.0791Y-4.5075
X5.1181Y-4.7303
X5.1594Y-4.7087
X5.1654Y-4.8031
X5.1783Y-3.948
X5.1969Y-4.2008
X5.21Y-5.142
X5.2165Y-3.9484
X5.2382Y-4.3622
X5.2402Y-4.2008
X5.2539Y-3.948
X5.2551Y-5.0465
X5.27Y-5.142
X5.3083Y-5.186
X5.3454Y-5.186
X5.3496Y-3.8933
X5.3555Y-4.572
X5.3555Y-4.6083
X5.3583Y-4.6555
X5.3809Y-5.186
X5.4145Y-5.186
X5.437Y-4.6535
X5.45Y-5.186
X5.4834Y-5.186
X5.5205Y-5.186
X5.5249Y-4.2402
X5.5249Y-4.2846
X5.5249Y-4.3209
X5.5249Y-4.557
X5.5249Y-4.6039
X5.5249Y-4.6483
X5.556Y-5.186
X5.6417Y-3.9213
X5.6929Y-3.9213
X5.6953Y-4.3646
X5.724Y-5.1
X5.792Y-5.0579
X5.9169Y-4.7689
X5.9185Y-5.0575
X6.002Y-5.1417
X6.0571Y-5.1417
X6.1299Y-4.2028
X6.1299Y-4.3602
X6.1299Y-4.439
X6.1299Y-4.5177
X6.4213Y-4.7081
X6.4213Y-4.7717
X6.435Y-3.8839
X6.445Y-4.3281
X6.4587Y-4.6181
X6.4587Y-4.813
X6.4587Y-4.8602
X6.4587Y-4.9075
X6.4587Y-4.9547
X6.4587Y-5.002
X6.4665Y-4.1398
X6.4813Y-3.8504
X6.494Y-4.38
X6.4941Y-4.2795
X6.502Y-4.6181
X6.5059Y-4.0374
X6.506Y-4.192
X6.512Y-4.106
X6.53Y-4.324
X6.5394Y-3.966
X6.542Y-4.282
X6.5846Y-4.5669
X6.5896Y-3.8716
X6.6024Y-5.0886
X6.6467Y-4.6661
X6.6476Y-4.8022
X6.6535Y-4.8435
X6.6568Y-3.884
X6.6831Y-4.5394
X6.6831Y-4.5945
X6.69Y-4.4419
X6.7Y-4.03
X6.7058Y-4.1822
X6.7067Y-3.9331
X6.7165Y-4.4193
X6.722Y-5.142
X6.728Y-3.978
X6.736Y-4.168
X6.763Y-4.053
X6.766Y-4.21
X6.7825Y-4.5413
X6.8081Y-4.498
X6.812Y-4.6024
X6.8654Y-4.056
X6.9065Y-4.811
X6.922Y-5.142
X6.935Y-4.3012
X6.9626Y-4.4173
X6.9646Y-4.2736
X6.9783Y-5.0138
X7.1Y-4.84
X7.1Y-4.8755
X7.1Y-4.9126
X7.1Y-4.946
X7.1Y-4.9815
X7.1Y-5.0151
X7.1Y-5.0506
X7.1Y-5.0877
X7.146Y-4.84
X7.146Y-4.8755
X7.146Y-4.9126
X7.146Y-4.946
X7.146Y-4.9815
X7.146Y-5.0151
X7.146Y-5.0506
X7.146Y-5.0877
T3
X4.752Y-4.8573
X4.752Y-4.9573
X4.9207Y-5.1362
X4.9568Y-3.6731
X4.9568Y-3.7731
X5.0207Y-5.1362
X5.0568Y-3.6731
X5.0568Y-3.7731
X5.1207Y-5.1362
X5.1568Y-3.6731
X5.1568Y-3.7731
X5.2568Y-3.6731
X5.2568Y-3.7731
X5.2867Y-4.0305
X5.3568Y-3.6731
X5.3568Y-3.7731
X5.4568Y-3.6731
X5.4568Y-3.7731
X5.5568Y-3.6731
X5.5568Y-3.7731
X5.6568Y-3.6731
X5.6568Y-3.7731
X5.7568Y-3.6731
X5.7568Y-3.7731
X5.7591Y-4.0305
X5.8568Y-3.6731
X5.8568Y-3.7731
X5.952Y-4.0318
X5.9568Y-3.6731
X5.9568Y-3.7731
X6.0568Y-3.6731
X6.0568Y-3.7731
X6.1568Y-3.6731
X6.1568Y-3.7731
X6.2568Y-3.6731
X6.2568Y-3.7731
X6.3568Y-3.6731
X6.3568Y-3.7731
X6.4245Y-4.0318
X6.4568Y-3.6731
X6.4568Y-3.7731
X6.5568Y-3.6731
X6.5568Y-3.7731
X6.6568Y-3.6731
X6.6568Y-3.7731
X6.7568Y-3.6731
X6.7568Y-3.7731
X6.8568Y-3.6731
X6.8568Y-3.7731
T4
X5.3858Y-5.0124
X5.5236Y-5.0124
X5.6614Y-5.0124
X6.0512Y-5.0108
X6.189Y-5.0108
X6.3268Y-5.0108
X7.06Y-3.9744
X7.06Y-4.1122
X7.06Y-4.25
X7.06Y-4.3878
T5
X5.2867Y-4.5108
X5.5249Y-3.9537
X5.7611Y-4.5128
X5.952Y-4.5121
X6.1902Y-3.955
X6.4265Y-4.5141
T2
G00X4.6953Y-4.0515
M15
G01X4.6953Y-4.0239
M16
G05
G00X4.8705Y-4.2228
M15
G01X4.843Y-4.2228
M16
G05
G00X4.9571Y-4.0515
M15
G01X4.9571Y-4.0239
M16
G05
T0
M30
