%TF.GenerationSoftware,KiCad,Pcbnew,7.0.9*%
%TF.CreationDate,2023-12-08T16:08:36+02:00*%
%TF.ProjectId,Pi HAT,50692048-4154-42e6-9b69-6361645f7063,0.1.0*%
%TF.SameCoordinates,Original*%
%TF.FileFunction,Legend,Bot*%
%TF.FilePolarity,Positive*%
%FSLAX46Y46*%
G04 Gerber Fmt 4.6, Leading zero omitted, Abs format (unit mm)*
G04 Created by KiCad (PCBNEW 7.0.9) date 2023-12-08 16:08:36*
%MOMM*%
%LPD*%
G01*
G04 APERTURE LIST*
G04 Aperture macros list*
%AMFreePoly0*
4,1,19,0.550000,-0.750000,0.000000,-0.750000,0.000000,-0.744911,-0.071157,-0.744911,-0.207708,-0.704816,-0.327430,-0.627875,-0.420627,-0.520320,-0.479746,-0.390866,-0.500000,-0.250000,-0.500000,0.250000,-0.479746,0.390866,-0.420627,0.520320,-0.327430,0.627875,-0.207708,0.704816,-0.071157,0.744911,0.000000,0.744911,0.000000,0.750000,0.550000,0.750000,0.550000,-0.750000,0.550000,-0.750000,
$1*%
%AMFreePoly1*
4,1,19,0.000000,0.744911,0.071157,0.744911,0.207708,0.704816,0.327430,0.627875,0.420627,0.520320,0.479746,0.390866,0.500000,0.250000,0.500000,-0.250000,0.479746,-0.390866,0.420627,-0.520320,0.327430,-0.627875,0.207708,-0.704816,0.071157,-0.744911,0.000000,-0.744911,0.000000,-0.750000,-0.550000,-0.750000,-0.550000,0.750000,0.000000,0.750000,0.000000,0.744911,0.000000,0.744911,
$1*%
%AMFreePoly2*
4,1,19,0.500000,-0.750000,0.000000,-0.750000,0.000000,-0.744911,-0.071157,-0.744911,-0.207708,-0.704816,-0.327430,-0.627875,-0.420627,-0.520320,-0.479746,-0.390866,-0.500000,-0.250000,-0.500000,0.250000,-0.479746,0.390866,-0.420627,0.520320,-0.327430,0.627875,-0.207708,0.704816,-0.071157,0.744911,0.000000,0.744911,0.000000,0.750000,0.500000,0.750000,0.500000,-0.750000,0.500000,-0.750000,
$1*%
%AMFreePoly3*
4,1,19,0.000000,0.744911,0.071157,0.744911,0.207708,0.704816,0.327430,0.627875,0.420627,0.520320,0.479746,0.390866,0.500000,0.250000,0.500000,-0.250000,0.479746,-0.390866,0.420627,-0.520320,0.327430,-0.627875,0.207708,-0.704816,0.071157,-0.744911,0.000000,-0.744911,0.000000,-0.750000,-0.500000,-0.750000,-0.500000,0.750000,0.000000,0.750000,0.000000,0.744911,0.000000,0.744911,
$1*%
%AMFreePoly4*
4,1,6,1.000000,0.000000,0.500000,-0.750000,-0.500000,-0.750000,-0.500000,0.750000,0.500000,0.750000,1.000000,0.000000,1.000000,0.000000,$1*%
G04 Aperture macros list end*
%ADD10C,0.150000*%
%ADD11C,0.200000*%
%ADD12C,0.120000*%
%ADD13C,2.700000*%
%ADD14R,2.400000X2.400000*%
%ADD15C,2.400000*%
%ADD16R,1.700000X1.700000*%
%ADD17O,1.700000X1.700000*%
%ADD18C,3.000000*%
%ADD19C,2.500000*%
%ADD20FreePoly0,270.000000*%
%ADD21R,1.500000X1.000000*%
%ADD22FreePoly1,270.000000*%
%ADD23C,1.500000*%
%ADD24FreePoly2,270.000000*%
%ADD25FreePoly3,270.000000*%
%ADD26R,1.500000X1.500000*%
%ADD27FreePoly4,270.000000*%
%ADD28FreePoly4,90.000000*%
%ADD29FreePoly2,0.000000*%
%ADD30FreePoly3,0.000000*%
%ADD31FreePoly0,180.000000*%
%ADD32R,1.000000X1.500000*%
%ADD33FreePoly1,180.000000*%
G04 APERTURE END LIST*
D10*
X179710839Y-128268295D02*
X179710839Y-127468295D01*
X179710839Y-127468295D02*
X179520363Y-127468295D01*
X179520363Y-127468295D02*
X179406077Y-127506390D01*
X179406077Y-127506390D02*
X179329887Y-127582580D01*
X179329887Y-127582580D02*
X179291792Y-127658771D01*
X179291792Y-127658771D02*
X179253696Y-127811152D01*
X179253696Y-127811152D02*
X179253696Y-127925438D01*
X179253696Y-127925438D02*
X179291792Y-128077819D01*
X179291792Y-128077819D02*
X179329887Y-128154009D01*
X179329887Y-128154009D02*
X179406077Y-128230200D01*
X179406077Y-128230200D02*
X179520363Y-128268295D01*
X179520363Y-128268295D02*
X179710839Y-128268295D01*
X178606077Y-128230200D02*
X178682268Y-128268295D01*
X178682268Y-128268295D02*
X178834649Y-128268295D01*
X178834649Y-128268295D02*
X178910839Y-128230200D01*
X178910839Y-128230200D02*
X178948935Y-128154009D01*
X178948935Y-128154009D02*
X178948935Y-127849247D01*
X178948935Y-127849247D02*
X178910839Y-127773057D01*
X178910839Y-127773057D02*
X178834649Y-127734961D01*
X178834649Y-127734961D02*
X178682268Y-127734961D01*
X178682268Y-127734961D02*
X178606077Y-127773057D01*
X178606077Y-127773057D02*
X178567982Y-127849247D01*
X178567982Y-127849247D02*
X178567982Y-127925438D01*
X178567982Y-127925438D02*
X178948935Y-128001628D01*
X178339411Y-127734961D02*
X178034649Y-127734961D01*
X178225125Y-128268295D02*
X178225125Y-127582580D01*
X178225125Y-127582580D02*
X178187030Y-127506390D01*
X178187030Y-127506390D02*
X178110840Y-127468295D01*
X178110840Y-127468295D02*
X178034649Y-127468295D01*
X177425125Y-128268295D02*
X177425125Y-127849247D01*
X177425125Y-127849247D02*
X177463220Y-127773057D01*
X177463220Y-127773057D02*
X177539411Y-127734961D01*
X177539411Y-127734961D02*
X177691792Y-127734961D01*
X177691792Y-127734961D02*
X177767982Y-127773057D01*
X177425125Y-128230200D02*
X177501316Y-128268295D01*
X177501316Y-128268295D02*
X177691792Y-128268295D01*
X177691792Y-128268295D02*
X177767982Y-128230200D01*
X177767982Y-128230200D02*
X177806078Y-128154009D01*
X177806078Y-128154009D02*
X177806078Y-128077819D01*
X177806078Y-128077819D02*
X177767982Y-128001628D01*
X177767982Y-128001628D02*
X177691792Y-127963533D01*
X177691792Y-127963533D02*
X177501316Y-127963533D01*
X177501316Y-127963533D02*
X177425125Y-127925438D01*
X176701315Y-127734961D02*
X176701315Y-128268295D01*
X177044172Y-127734961D02*
X177044172Y-128154009D01*
X177044172Y-128154009D02*
X177006077Y-128230200D01*
X177006077Y-128230200D02*
X176929887Y-128268295D01*
X176929887Y-128268295D02*
X176815601Y-128268295D01*
X176815601Y-128268295D02*
X176739410Y-128230200D01*
X176739410Y-128230200D02*
X176701315Y-128192104D01*
X176206077Y-128268295D02*
X176282267Y-128230200D01*
X176282267Y-128230200D02*
X176320362Y-128154009D01*
X176320362Y-128154009D02*
X176320362Y-127468295D01*
X176015600Y-127734961D02*
X175710838Y-127734961D01*
X175901314Y-127468295D02*
X175901314Y-128154009D01*
X175901314Y-128154009D02*
X175863219Y-128230200D01*
X175863219Y-128230200D02*
X175787029Y-128268295D01*
X175787029Y-128268295D02*
X175710838Y-128268295D01*
X175444171Y-128192104D02*
X175406076Y-128230200D01*
X175406076Y-128230200D02*
X175444171Y-128268295D01*
X175444171Y-128268295D02*
X175482267Y-128230200D01*
X175482267Y-128230200D02*
X175444171Y-128192104D01*
X175444171Y-128192104D02*
X175444171Y-128268295D01*
X175444171Y-127773057D02*
X175406076Y-127811152D01*
X175406076Y-127811152D02*
X175444171Y-127849247D01*
X175444171Y-127849247D02*
X175482267Y-127811152D01*
X175482267Y-127811152D02*
X175444171Y-127773057D01*
X175444171Y-127773057D02*
X175444171Y-127849247D01*
X174034648Y-128268295D02*
X174491791Y-128268295D01*
X174263219Y-128268295D02*
X174263219Y-127468295D01*
X174263219Y-127468295D02*
X174339410Y-127582580D01*
X174339410Y-127582580D02*
X174415600Y-127658771D01*
X174415600Y-127658771D02*
X174491791Y-127696866D01*
X173539409Y-127468295D02*
X173463219Y-127468295D01*
X173463219Y-127468295D02*
X173387028Y-127506390D01*
X173387028Y-127506390D02*
X173348933Y-127544485D01*
X173348933Y-127544485D02*
X173310838Y-127620676D01*
X173310838Y-127620676D02*
X173272743Y-127773057D01*
X173272743Y-127773057D02*
X173272743Y-127963533D01*
X173272743Y-127963533D02*
X173310838Y-128115914D01*
X173310838Y-128115914D02*
X173348933Y-128192104D01*
X173348933Y-128192104D02*
X173387028Y-128230200D01*
X173387028Y-128230200D02*
X173463219Y-128268295D01*
X173463219Y-128268295D02*
X173539409Y-128268295D01*
X173539409Y-128268295D02*
X173615600Y-128230200D01*
X173615600Y-128230200D02*
X173653695Y-128192104D01*
X173653695Y-128192104D02*
X173691790Y-128115914D01*
X173691790Y-128115914D02*
X173729886Y-127963533D01*
X173729886Y-127963533D02*
X173729886Y-127773057D01*
X173729886Y-127773057D02*
X173691790Y-127620676D01*
X173691790Y-127620676D02*
X173653695Y-127544485D01*
X173653695Y-127544485D02*
X173615600Y-127506390D01*
X173615600Y-127506390D02*
X173539409Y-127468295D01*
X172967981Y-128230200D02*
X172853695Y-128268295D01*
X172853695Y-128268295D02*
X172663219Y-128268295D01*
X172663219Y-128268295D02*
X172587028Y-128230200D01*
X172587028Y-128230200D02*
X172548933Y-128192104D01*
X172548933Y-128192104D02*
X172510838Y-128115914D01*
X172510838Y-128115914D02*
X172510838Y-128039723D01*
X172510838Y-128039723D02*
X172548933Y-127963533D01*
X172548933Y-127963533D02*
X172587028Y-127925438D01*
X172587028Y-127925438D02*
X172663219Y-127887342D01*
X172663219Y-127887342D02*
X172815600Y-127849247D01*
X172815600Y-127849247D02*
X172891790Y-127811152D01*
X172891790Y-127811152D02*
X172929885Y-127773057D01*
X172929885Y-127773057D02*
X172967981Y-127696866D01*
X172967981Y-127696866D02*
X172967981Y-127620676D01*
X172967981Y-127620676D02*
X172929885Y-127544485D01*
X172929885Y-127544485D02*
X172891790Y-127506390D01*
X172891790Y-127506390D02*
X172815600Y-127468295D01*
X172815600Y-127468295D02*
X172625123Y-127468295D01*
X172625123Y-127468295D02*
X172510838Y-127506390D01*
X172167980Y-128268295D02*
X172167980Y-127468295D01*
X172167980Y-127468295D02*
X171863218Y-127468295D01*
X171863218Y-127468295D02*
X171787028Y-127506390D01*
X171787028Y-127506390D02*
X171748933Y-127544485D01*
X171748933Y-127544485D02*
X171710837Y-127620676D01*
X171710837Y-127620676D02*
X171710837Y-127734961D01*
X171710837Y-127734961D02*
X171748933Y-127811152D01*
X171748933Y-127811152D02*
X171787028Y-127849247D01*
X171787028Y-127849247D02*
X171863218Y-127887342D01*
X171863218Y-127887342D02*
X172167980Y-127887342D01*
X171406076Y-128230200D02*
X171291790Y-128268295D01*
X171291790Y-128268295D02*
X171101314Y-128268295D01*
X171101314Y-128268295D02*
X171025123Y-128230200D01*
X171025123Y-128230200D02*
X170987028Y-128192104D01*
X170987028Y-128192104D02*
X170948933Y-128115914D01*
X170948933Y-128115914D02*
X170948933Y-128039723D01*
X170948933Y-128039723D02*
X170987028Y-127963533D01*
X170987028Y-127963533D02*
X171025123Y-127925438D01*
X171025123Y-127925438D02*
X171101314Y-127887342D01*
X171101314Y-127887342D02*
X171253695Y-127849247D01*
X171253695Y-127849247D02*
X171329885Y-127811152D01*
X171329885Y-127811152D02*
X171367980Y-127773057D01*
X171367980Y-127773057D02*
X171406076Y-127696866D01*
X171406076Y-127696866D02*
X171406076Y-127620676D01*
X171406076Y-127620676D02*
X171367980Y-127544485D01*
X171367980Y-127544485D02*
X171329885Y-127506390D01*
X171329885Y-127506390D02*
X171253695Y-127468295D01*
X171253695Y-127468295D02*
X171063218Y-127468295D01*
X171063218Y-127468295D02*
X170948933Y-127506390D01*
X179444173Y-129137247D02*
X179329887Y-129175342D01*
X179329887Y-129175342D02*
X179291792Y-129213438D01*
X179291792Y-129213438D02*
X179253696Y-129289628D01*
X179253696Y-129289628D02*
X179253696Y-129403914D01*
X179253696Y-129403914D02*
X179291792Y-129480104D01*
X179291792Y-129480104D02*
X179329887Y-129518200D01*
X179329887Y-129518200D02*
X179406077Y-129556295D01*
X179406077Y-129556295D02*
X179710839Y-129556295D01*
X179710839Y-129556295D02*
X179710839Y-128756295D01*
X179710839Y-128756295D02*
X179444173Y-128756295D01*
X179444173Y-128756295D02*
X179367982Y-128794390D01*
X179367982Y-128794390D02*
X179329887Y-128832485D01*
X179329887Y-128832485D02*
X179291792Y-128908676D01*
X179291792Y-128908676D02*
X179291792Y-128984866D01*
X179291792Y-128984866D02*
X179329887Y-129061057D01*
X179329887Y-129061057D02*
X179367982Y-129099152D01*
X179367982Y-129099152D02*
X179444173Y-129137247D01*
X179444173Y-129137247D02*
X179710839Y-129137247D01*
X178910839Y-129556295D02*
X178910839Y-129022961D01*
X178910839Y-129175342D02*
X178872744Y-129099152D01*
X178872744Y-129099152D02*
X178834649Y-129061057D01*
X178834649Y-129061057D02*
X178758458Y-129022961D01*
X178758458Y-129022961D02*
X178682268Y-129022961D01*
X178415601Y-129556295D02*
X178415601Y-129022961D01*
X178415601Y-128756295D02*
X178453697Y-128794390D01*
X178453697Y-128794390D02*
X178415601Y-128832485D01*
X178415601Y-128832485D02*
X178377506Y-128794390D01*
X178377506Y-128794390D02*
X178415601Y-128756295D01*
X178415601Y-128756295D02*
X178415601Y-128832485D01*
X177691792Y-129556295D02*
X177691792Y-128756295D01*
X177691792Y-129518200D02*
X177767983Y-129556295D01*
X177767983Y-129556295D02*
X177920364Y-129556295D01*
X177920364Y-129556295D02*
X177996554Y-129518200D01*
X177996554Y-129518200D02*
X178034649Y-129480104D01*
X178034649Y-129480104D02*
X178072745Y-129403914D01*
X178072745Y-129403914D02*
X178072745Y-129175342D01*
X178072745Y-129175342D02*
X178034649Y-129099152D01*
X178034649Y-129099152D02*
X177996554Y-129061057D01*
X177996554Y-129061057D02*
X177920364Y-129022961D01*
X177920364Y-129022961D02*
X177767983Y-129022961D01*
X177767983Y-129022961D02*
X177691792Y-129061057D01*
X176967982Y-129022961D02*
X176967982Y-129670580D01*
X176967982Y-129670580D02*
X177006077Y-129746771D01*
X177006077Y-129746771D02*
X177044173Y-129784866D01*
X177044173Y-129784866D02*
X177120363Y-129822961D01*
X177120363Y-129822961D02*
X177234649Y-129822961D01*
X177234649Y-129822961D02*
X177310839Y-129784866D01*
X176967982Y-129518200D02*
X177044173Y-129556295D01*
X177044173Y-129556295D02*
X177196554Y-129556295D01*
X177196554Y-129556295D02*
X177272744Y-129518200D01*
X177272744Y-129518200D02*
X177310839Y-129480104D01*
X177310839Y-129480104D02*
X177348935Y-129403914D01*
X177348935Y-129403914D02*
X177348935Y-129175342D01*
X177348935Y-129175342D02*
X177310839Y-129099152D01*
X177310839Y-129099152D02*
X177272744Y-129061057D01*
X177272744Y-129061057D02*
X177196554Y-129022961D01*
X177196554Y-129022961D02*
X177044173Y-129022961D01*
X177044173Y-129022961D02*
X176967982Y-129061057D01*
X176282267Y-129518200D02*
X176358458Y-129556295D01*
X176358458Y-129556295D02*
X176510839Y-129556295D01*
X176510839Y-129556295D02*
X176587029Y-129518200D01*
X176587029Y-129518200D02*
X176625125Y-129442009D01*
X176625125Y-129442009D02*
X176625125Y-129137247D01*
X176625125Y-129137247D02*
X176587029Y-129061057D01*
X176587029Y-129061057D02*
X176510839Y-129022961D01*
X176510839Y-129022961D02*
X176358458Y-129022961D01*
X176358458Y-129022961D02*
X176282267Y-129061057D01*
X176282267Y-129061057D02*
X176244172Y-129137247D01*
X176244172Y-129137247D02*
X176244172Y-129213438D01*
X176244172Y-129213438D02*
X176625125Y-129289628D01*
X175406077Y-129022961D02*
X175101315Y-129022961D01*
X175291791Y-129556295D02*
X175291791Y-128870580D01*
X175291791Y-128870580D02*
X175253696Y-128794390D01*
X175253696Y-128794390D02*
X175177506Y-128756295D01*
X175177506Y-128756295D02*
X175101315Y-128756295D01*
X174720363Y-129556295D02*
X174796553Y-129518200D01*
X174796553Y-129518200D02*
X174834648Y-129480104D01*
X174834648Y-129480104D02*
X174872744Y-129403914D01*
X174872744Y-129403914D02*
X174872744Y-129175342D01*
X174872744Y-129175342D02*
X174834648Y-129099152D01*
X174834648Y-129099152D02*
X174796553Y-129061057D01*
X174796553Y-129061057D02*
X174720363Y-129022961D01*
X174720363Y-129022961D02*
X174606077Y-129022961D01*
X174606077Y-129022961D02*
X174529886Y-129061057D01*
X174529886Y-129061057D02*
X174491791Y-129099152D01*
X174491791Y-129099152D02*
X174453696Y-129175342D01*
X174453696Y-129175342D02*
X174453696Y-129403914D01*
X174453696Y-129403914D02*
X174491791Y-129480104D01*
X174491791Y-129480104D02*
X174529886Y-129518200D01*
X174529886Y-129518200D02*
X174606077Y-129556295D01*
X174606077Y-129556295D02*
X174720363Y-129556295D01*
X174110838Y-129556295D02*
X174110838Y-129022961D01*
X174110838Y-129175342D02*
X174072743Y-129099152D01*
X174072743Y-129099152D02*
X174034648Y-129061057D01*
X174034648Y-129061057D02*
X173958457Y-129022961D01*
X173958457Y-129022961D02*
X173882267Y-129022961D01*
X179596554Y-130387152D02*
X179672744Y-130349057D01*
X179672744Y-130349057D02*
X179710839Y-130310961D01*
X179710839Y-130310961D02*
X179748935Y-130234771D01*
X179748935Y-130234771D02*
X179748935Y-130196676D01*
X179748935Y-130196676D02*
X179710839Y-130120485D01*
X179710839Y-130120485D02*
X179672744Y-130082390D01*
X179672744Y-130082390D02*
X179596554Y-130044295D01*
X179596554Y-130044295D02*
X179444173Y-130044295D01*
X179444173Y-130044295D02*
X179367982Y-130082390D01*
X179367982Y-130082390D02*
X179329887Y-130120485D01*
X179329887Y-130120485D02*
X179291792Y-130196676D01*
X179291792Y-130196676D02*
X179291792Y-130234771D01*
X179291792Y-130234771D02*
X179329887Y-130310961D01*
X179329887Y-130310961D02*
X179367982Y-130349057D01*
X179367982Y-130349057D02*
X179444173Y-130387152D01*
X179444173Y-130387152D02*
X179596554Y-130387152D01*
X179596554Y-130387152D02*
X179672744Y-130425247D01*
X179672744Y-130425247D02*
X179710839Y-130463342D01*
X179710839Y-130463342D02*
X179748935Y-130539533D01*
X179748935Y-130539533D02*
X179748935Y-130691914D01*
X179748935Y-130691914D02*
X179710839Y-130768104D01*
X179710839Y-130768104D02*
X179672744Y-130806200D01*
X179672744Y-130806200D02*
X179596554Y-130844295D01*
X179596554Y-130844295D02*
X179444173Y-130844295D01*
X179444173Y-130844295D02*
X179367982Y-130806200D01*
X179367982Y-130806200D02*
X179329887Y-130768104D01*
X179329887Y-130768104D02*
X179291792Y-130691914D01*
X179291792Y-130691914D02*
X179291792Y-130539533D01*
X179291792Y-130539533D02*
X179329887Y-130463342D01*
X179329887Y-130463342D02*
X179367982Y-130425247D01*
X179367982Y-130425247D02*
X179444173Y-130387152D01*
X178796553Y-130044295D02*
X178720363Y-130044295D01*
X178720363Y-130044295D02*
X178644172Y-130082390D01*
X178644172Y-130082390D02*
X178606077Y-130120485D01*
X178606077Y-130120485D02*
X178567982Y-130196676D01*
X178567982Y-130196676D02*
X178529887Y-130349057D01*
X178529887Y-130349057D02*
X178529887Y-130539533D01*
X178529887Y-130539533D02*
X178567982Y-130691914D01*
X178567982Y-130691914D02*
X178606077Y-130768104D01*
X178606077Y-130768104D02*
X178644172Y-130806200D01*
X178644172Y-130806200D02*
X178720363Y-130844295D01*
X178720363Y-130844295D02*
X178796553Y-130844295D01*
X178796553Y-130844295D02*
X178872744Y-130806200D01*
X178872744Y-130806200D02*
X178910839Y-130768104D01*
X178910839Y-130768104D02*
X178948934Y-130691914D01*
X178948934Y-130691914D02*
X178987030Y-130539533D01*
X178987030Y-130539533D02*
X178987030Y-130349057D01*
X178987030Y-130349057D02*
X178948934Y-130196676D01*
X178948934Y-130196676D02*
X178910839Y-130120485D01*
X178910839Y-130120485D02*
X178872744Y-130082390D01*
X178872744Y-130082390D02*
X178796553Y-130044295D01*
X178225125Y-130806200D02*
X178110839Y-130844295D01*
X178110839Y-130844295D02*
X177920363Y-130844295D01*
X177920363Y-130844295D02*
X177844172Y-130806200D01*
X177844172Y-130806200D02*
X177806077Y-130768104D01*
X177806077Y-130768104D02*
X177767982Y-130691914D01*
X177767982Y-130691914D02*
X177767982Y-130615723D01*
X177767982Y-130615723D02*
X177806077Y-130539533D01*
X177806077Y-130539533D02*
X177844172Y-130501438D01*
X177844172Y-130501438D02*
X177920363Y-130463342D01*
X177920363Y-130463342D02*
X178072744Y-130425247D01*
X178072744Y-130425247D02*
X178148934Y-130387152D01*
X178148934Y-130387152D02*
X178187029Y-130349057D01*
X178187029Y-130349057D02*
X178225125Y-130272866D01*
X178225125Y-130272866D02*
X178225125Y-130196676D01*
X178225125Y-130196676D02*
X178187029Y-130120485D01*
X178187029Y-130120485D02*
X178148934Y-130082390D01*
X178148934Y-130082390D02*
X178072744Y-130044295D01*
X178072744Y-130044295D02*
X177882267Y-130044295D01*
X177882267Y-130044295D02*
X177767982Y-130082390D01*
X177425124Y-130844295D02*
X177425124Y-130044295D01*
X177425124Y-130044295D02*
X177120362Y-130044295D01*
X177120362Y-130044295D02*
X177044172Y-130082390D01*
X177044172Y-130082390D02*
X177006077Y-130120485D01*
X177006077Y-130120485D02*
X176967981Y-130196676D01*
X176967981Y-130196676D02*
X176967981Y-130310961D01*
X176967981Y-130310961D02*
X177006077Y-130387152D01*
X177006077Y-130387152D02*
X177044172Y-130425247D01*
X177044172Y-130425247D02*
X177120362Y-130463342D01*
X177120362Y-130463342D02*
X177425124Y-130463342D01*
X176663220Y-130806200D02*
X176548934Y-130844295D01*
X176548934Y-130844295D02*
X176358458Y-130844295D01*
X176358458Y-130844295D02*
X176282267Y-130806200D01*
X176282267Y-130806200D02*
X176244172Y-130768104D01*
X176244172Y-130768104D02*
X176206077Y-130691914D01*
X176206077Y-130691914D02*
X176206077Y-130615723D01*
X176206077Y-130615723D02*
X176244172Y-130539533D01*
X176244172Y-130539533D02*
X176282267Y-130501438D01*
X176282267Y-130501438D02*
X176358458Y-130463342D01*
X176358458Y-130463342D02*
X176510839Y-130425247D01*
X176510839Y-130425247D02*
X176587029Y-130387152D01*
X176587029Y-130387152D02*
X176625124Y-130349057D01*
X176625124Y-130349057D02*
X176663220Y-130272866D01*
X176663220Y-130272866D02*
X176663220Y-130196676D01*
X176663220Y-130196676D02*
X176625124Y-130120485D01*
X176625124Y-130120485D02*
X176587029Y-130082390D01*
X176587029Y-130082390D02*
X176510839Y-130044295D01*
X176510839Y-130044295D02*
X176320362Y-130044295D01*
X176320362Y-130044295D02*
X176206077Y-130082390D01*
X175101314Y-130044295D02*
X174948933Y-130044295D01*
X174948933Y-130044295D02*
X174872743Y-130082390D01*
X174872743Y-130082390D02*
X174796552Y-130158580D01*
X174796552Y-130158580D02*
X174758457Y-130310961D01*
X174758457Y-130310961D02*
X174758457Y-130577628D01*
X174758457Y-130577628D02*
X174796552Y-130730009D01*
X174796552Y-130730009D02*
X174872743Y-130806200D01*
X174872743Y-130806200D02*
X174948933Y-130844295D01*
X174948933Y-130844295D02*
X175101314Y-130844295D01*
X175101314Y-130844295D02*
X175177505Y-130806200D01*
X175177505Y-130806200D02*
X175253695Y-130730009D01*
X175253695Y-130730009D02*
X175291791Y-130577628D01*
X175291791Y-130577628D02*
X175291791Y-130310961D01*
X175291791Y-130310961D02*
X175253695Y-130158580D01*
X175253695Y-130158580D02*
X175177505Y-130082390D01*
X175177505Y-130082390D02*
X175101314Y-130044295D01*
X174415600Y-130844295D02*
X174415600Y-130044295D01*
X174415600Y-130044295D02*
X174225124Y-130044295D01*
X174225124Y-130044295D02*
X174110838Y-130082390D01*
X174110838Y-130082390D02*
X174034648Y-130158580D01*
X174034648Y-130158580D02*
X173996553Y-130234771D01*
X173996553Y-130234771D02*
X173958457Y-130387152D01*
X173958457Y-130387152D02*
X173958457Y-130501438D01*
X173958457Y-130501438D02*
X173996553Y-130653819D01*
X173996553Y-130653819D02*
X174034648Y-130730009D01*
X174034648Y-130730009D02*
X174110838Y-130806200D01*
X174110838Y-130806200D02*
X174225124Y-130844295D01*
X174225124Y-130844295D02*
X174415600Y-130844295D01*
X173158457Y-130844295D02*
X173425124Y-130463342D01*
X173615600Y-130844295D02*
X173615600Y-130044295D01*
X173615600Y-130044295D02*
X173310838Y-130044295D01*
X173310838Y-130044295D02*
X173234648Y-130082390D01*
X173234648Y-130082390D02*
X173196553Y-130120485D01*
X173196553Y-130120485D02*
X173158457Y-130196676D01*
X173158457Y-130196676D02*
X173158457Y-130310961D01*
X173158457Y-130310961D02*
X173196553Y-130387152D01*
X173196553Y-130387152D02*
X173234648Y-130425247D01*
X173234648Y-130425247D02*
X173310838Y-130463342D01*
X173310838Y-130463342D02*
X173615600Y-130463342D01*
X179810839Y-123168295D02*
X179810839Y-122368295D01*
X179810839Y-122368295D02*
X179620363Y-122368295D01*
X179620363Y-122368295D02*
X179506077Y-122406390D01*
X179506077Y-122406390D02*
X179429887Y-122482580D01*
X179429887Y-122482580D02*
X179391792Y-122558771D01*
X179391792Y-122558771D02*
X179353696Y-122711152D01*
X179353696Y-122711152D02*
X179353696Y-122825438D01*
X179353696Y-122825438D02*
X179391792Y-122977819D01*
X179391792Y-122977819D02*
X179429887Y-123054009D01*
X179429887Y-123054009D02*
X179506077Y-123130200D01*
X179506077Y-123130200D02*
X179620363Y-123168295D01*
X179620363Y-123168295D02*
X179810839Y-123168295D01*
X178706077Y-123130200D02*
X178782268Y-123168295D01*
X178782268Y-123168295D02*
X178934649Y-123168295D01*
X178934649Y-123168295D02*
X179010839Y-123130200D01*
X179010839Y-123130200D02*
X179048935Y-123054009D01*
X179048935Y-123054009D02*
X179048935Y-122749247D01*
X179048935Y-122749247D02*
X179010839Y-122673057D01*
X179010839Y-122673057D02*
X178934649Y-122634961D01*
X178934649Y-122634961D02*
X178782268Y-122634961D01*
X178782268Y-122634961D02*
X178706077Y-122673057D01*
X178706077Y-122673057D02*
X178667982Y-122749247D01*
X178667982Y-122749247D02*
X178667982Y-122825438D01*
X178667982Y-122825438D02*
X179048935Y-122901628D01*
X178439411Y-122634961D02*
X178134649Y-122634961D01*
X178325125Y-123168295D02*
X178325125Y-122482580D01*
X178325125Y-122482580D02*
X178287030Y-122406390D01*
X178287030Y-122406390D02*
X178210840Y-122368295D01*
X178210840Y-122368295D02*
X178134649Y-122368295D01*
X177525125Y-123168295D02*
X177525125Y-122749247D01*
X177525125Y-122749247D02*
X177563220Y-122673057D01*
X177563220Y-122673057D02*
X177639411Y-122634961D01*
X177639411Y-122634961D02*
X177791792Y-122634961D01*
X177791792Y-122634961D02*
X177867982Y-122673057D01*
X177525125Y-123130200D02*
X177601316Y-123168295D01*
X177601316Y-123168295D02*
X177791792Y-123168295D01*
X177791792Y-123168295D02*
X177867982Y-123130200D01*
X177867982Y-123130200D02*
X177906078Y-123054009D01*
X177906078Y-123054009D02*
X177906078Y-122977819D01*
X177906078Y-122977819D02*
X177867982Y-122901628D01*
X177867982Y-122901628D02*
X177791792Y-122863533D01*
X177791792Y-122863533D02*
X177601316Y-122863533D01*
X177601316Y-122863533D02*
X177525125Y-122825438D01*
X176801315Y-122634961D02*
X176801315Y-123168295D01*
X177144172Y-122634961D02*
X177144172Y-123054009D01*
X177144172Y-123054009D02*
X177106077Y-123130200D01*
X177106077Y-123130200D02*
X177029887Y-123168295D01*
X177029887Y-123168295D02*
X176915601Y-123168295D01*
X176915601Y-123168295D02*
X176839410Y-123130200D01*
X176839410Y-123130200D02*
X176801315Y-123092104D01*
X176306077Y-123168295D02*
X176382267Y-123130200D01*
X176382267Y-123130200D02*
X176420362Y-123054009D01*
X176420362Y-123054009D02*
X176420362Y-122368295D01*
X176115600Y-122634961D02*
X175810838Y-122634961D01*
X176001314Y-122368295D02*
X176001314Y-123054009D01*
X176001314Y-123054009D02*
X175963219Y-123130200D01*
X175963219Y-123130200D02*
X175887029Y-123168295D01*
X175887029Y-123168295D02*
X175810838Y-123168295D01*
X175544171Y-123092104D02*
X175506076Y-123130200D01*
X175506076Y-123130200D02*
X175544171Y-123168295D01*
X175544171Y-123168295D02*
X175582267Y-123130200D01*
X175582267Y-123130200D02*
X175544171Y-123092104D01*
X175544171Y-123092104D02*
X175544171Y-123168295D01*
X175544171Y-122673057D02*
X175506076Y-122711152D01*
X175506076Y-122711152D02*
X175544171Y-122749247D01*
X175544171Y-122749247D02*
X175582267Y-122711152D01*
X175582267Y-122711152D02*
X175544171Y-122673057D01*
X175544171Y-122673057D02*
X175544171Y-122749247D01*
X174553695Y-123168295D02*
X174553695Y-122368295D01*
X174553695Y-122749247D02*
X174096552Y-122749247D01*
X174096552Y-123168295D02*
X174096552Y-122368295D01*
X173791791Y-122368295D02*
X173258457Y-123168295D01*
X173258457Y-122368295D02*
X173791791Y-123168295D01*
X173029886Y-122368295D02*
X172496552Y-122368295D01*
X172496552Y-122368295D02*
X172839410Y-123168295D01*
X171772743Y-123168295D02*
X172229886Y-123168295D01*
X172001314Y-123168295D02*
X172001314Y-122368295D01*
X172001314Y-122368295D02*
X172077505Y-122482580D01*
X172077505Y-122482580D02*
X172153695Y-122558771D01*
X172153695Y-122558771D02*
X172229886Y-122596866D01*
X171010838Y-123168295D02*
X171467981Y-123168295D01*
X171239409Y-123168295D02*
X171239409Y-122368295D01*
X171239409Y-122368295D02*
X171315600Y-122482580D01*
X171315600Y-122482580D02*
X171391790Y-122558771D01*
X171391790Y-122558771D02*
X171467981Y-122596866D01*
X179544173Y-124037247D02*
X179429887Y-124075342D01*
X179429887Y-124075342D02*
X179391792Y-124113438D01*
X179391792Y-124113438D02*
X179353696Y-124189628D01*
X179353696Y-124189628D02*
X179353696Y-124303914D01*
X179353696Y-124303914D02*
X179391792Y-124380104D01*
X179391792Y-124380104D02*
X179429887Y-124418200D01*
X179429887Y-124418200D02*
X179506077Y-124456295D01*
X179506077Y-124456295D02*
X179810839Y-124456295D01*
X179810839Y-124456295D02*
X179810839Y-123656295D01*
X179810839Y-123656295D02*
X179544173Y-123656295D01*
X179544173Y-123656295D02*
X179467982Y-123694390D01*
X179467982Y-123694390D02*
X179429887Y-123732485D01*
X179429887Y-123732485D02*
X179391792Y-123808676D01*
X179391792Y-123808676D02*
X179391792Y-123884866D01*
X179391792Y-123884866D02*
X179429887Y-123961057D01*
X179429887Y-123961057D02*
X179467982Y-123999152D01*
X179467982Y-123999152D02*
X179544173Y-124037247D01*
X179544173Y-124037247D02*
X179810839Y-124037247D01*
X179010839Y-124456295D02*
X179010839Y-123922961D01*
X179010839Y-124075342D02*
X178972744Y-123999152D01*
X178972744Y-123999152D02*
X178934649Y-123961057D01*
X178934649Y-123961057D02*
X178858458Y-123922961D01*
X178858458Y-123922961D02*
X178782268Y-123922961D01*
X178210839Y-124418200D02*
X178287030Y-124456295D01*
X178287030Y-124456295D02*
X178439411Y-124456295D01*
X178439411Y-124456295D02*
X178515601Y-124418200D01*
X178515601Y-124418200D02*
X178553697Y-124342009D01*
X178553697Y-124342009D02*
X178553697Y-124037247D01*
X178553697Y-124037247D02*
X178515601Y-123961057D01*
X178515601Y-123961057D02*
X178439411Y-123922961D01*
X178439411Y-123922961D02*
X178287030Y-123922961D01*
X178287030Y-123922961D02*
X178210839Y-123961057D01*
X178210839Y-123961057D02*
X178172744Y-124037247D01*
X178172744Y-124037247D02*
X178172744Y-124113438D01*
X178172744Y-124113438D02*
X178553697Y-124189628D01*
X177487030Y-124456295D02*
X177487030Y-124037247D01*
X177487030Y-124037247D02*
X177525125Y-123961057D01*
X177525125Y-123961057D02*
X177601316Y-123922961D01*
X177601316Y-123922961D02*
X177753697Y-123922961D01*
X177753697Y-123922961D02*
X177829887Y-123961057D01*
X177487030Y-124418200D02*
X177563221Y-124456295D01*
X177563221Y-124456295D02*
X177753697Y-124456295D01*
X177753697Y-124456295D02*
X177829887Y-124418200D01*
X177829887Y-124418200D02*
X177867983Y-124342009D01*
X177867983Y-124342009D02*
X177867983Y-124265819D01*
X177867983Y-124265819D02*
X177829887Y-124189628D01*
X177829887Y-124189628D02*
X177753697Y-124151533D01*
X177753697Y-124151533D02*
X177563221Y-124151533D01*
X177563221Y-124151533D02*
X177487030Y-124113438D01*
X177106077Y-124456295D02*
X177106077Y-123656295D01*
X177029887Y-124151533D02*
X176801315Y-124456295D01*
X176801315Y-123922961D02*
X177106077Y-124227723D01*
X175506077Y-124456295D02*
X175506077Y-124037247D01*
X175506077Y-124037247D02*
X175544172Y-123961057D01*
X175544172Y-123961057D02*
X175620363Y-123922961D01*
X175620363Y-123922961D02*
X175772744Y-123922961D01*
X175772744Y-123922961D02*
X175848934Y-123961057D01*
X175506077Y-124418200D02*
X175582268Y-124456295D01*
X175582268Y-124456295D02*
X175772744Y-124456295D01*
X175772744Y-124456295D02*
X175848934Y-124418200D01*
X175848934Y-124418200D02*
X175887030Y-124342009D01*
X175887030Y-124342009D02*
X175887030Y-124265819D01*
X175887030Y-124265819D02*
X175848934Y-124189628D01*
X175848934Y-124189628D02*
X175772744Y-124151533D01*
X175772744Y-124151533D02*
X175582268Y-124151533D01*
X175582268Y-124151533D02*
X175506077Y-124113438D01*
X175125124Y-123922961D02*
X175125124Y-124456295D01*
X175125124Y-123999152D02*
X175087029Y-123961057D01*
X175087029Y-123961057D02*
X175010839Y-123922961D01*
X175010839Y-123922961D02*
X174896553Y-123922961D01*
X174896553Y-123922961D02*
X174820362Y-123961057D01*
X174820362Y-123961057D02*
X174782267Y-124037247D01*
X174782267Y-124037247D02*
X174782267Y-124456295D01*
X174058457Y-124456295D02*
X174058457Y-123656295D01*
X174058457Y-124418200D02*
X174134648Y-124456295D01*
X174134648Y-124456295D02*
X174287029Y-124456295D01*
X174287029Y-124456295D02*
X174363219Y-124418200D01*
X174363219Y-124418200D02*
X174401314Y-124380104D01*
X174401314Y-124380104D02*
X174439410Y-124303914D01*
X174439410Y-124303914D02*
X174439410Y-124075342D01*
X174439410Y-124075342D02*
X174401314Y-123999152D01*
X174401314Y-123999152D02*
X174363219Y-123961057D01*
X174363219Y-123961057D02*
X174287029Y-123922961D01*
X174287029Y-123922961D02*
X174134648Y-123922961D01*
X174134648Y-123922961D02*
X174058457Y-123961057D01*
X173067980Y-124456295D02*
X173067980Y-123656295D01*
X173067980Y-123961057D02*
X172991790Y-123922961D01*
X172991790Y-123922961D02*
X172839409Y-123922961D01*
X172839409Y-123922961D02*
X172763218Y-123961057D01*
X172763218Y-123961057D02*
X172725123Y-123999152D01*
X172725123Y-123999152D02*
X172687028Y-124075342D01*
X172687028Y-124075342D02*
X172687028Y-124303914D01*
X172687028Y-124303914D02*
X172725123Y-124380104D01*
X172725123Y-124380104D02*
X172763218Y-124418200D01*
X172763218Y-124418200D02*
X172839409Y-124456295D01*
X172839409Y-124456295D02*
X172991790Y-124456295D01*
X172991790Y-124456295D02*
X173067980Y-124418200D01*
X172344170Y-124456295D02*
X172344170Y-123922961D01*
X172344170Y-124075342D02*
X172306075Y-123999152D01*
X172306075Y-123999152D02*
X172267980Y-123961057D01*
X172267980Y-123961057D02*
X172191789Y-123922961D01*
X172191789Y-123922961D02*
X172115599Y-123922961D01*
X171848932Y-124456295D02*
X171848932Y-123922961D01*
X171848932Y-123656295D02*
X171887028Y-123694390D01*
X171887028Y-123694390D02*
X171848932Y-123732485D01*
X171848932Y-123732485D02*
X171810837Y-123694390D01*
X171810837Y-123694390D02*
X171848932Y-123656295D01*
X171848932Y-123656295D02*
X171848932Y-123732485D01*
X171125123Y-124456295D02*
X171125123Y-123656295D01*
X171125123Y-124418200D02*
X171201314Y-124456295D01*
X171201314Y-124456295D02*
X171353695Y-124456295D01*
X171353695Y-124456295D02*
X171429885Y-124418200D01*
X171429885Y-124418200D02*
X171467980Y-124380104D01*
X171467980Y-124380104D02*
X171506076Y-124303914D01*
X171506076Y-124303914D02*
X171506076Y-124075342D01*
X171506076Y-124075342D02*
X171467980Y-123999152D01*
X171467980Y-123999152D02*
X171429885Y-123961057D01*
X171429885Y-123961057D02*
X171353695Y-123922961D01*
X171353695Y-123922961D02*
X171201314Y-123922961D01*
X171201314Y-123922961D02*
X171125123Y-123961057D01*
X170401313Y-123922961D02*
X170401313Y-124570580D01*
X170401313Y-124570580D02*
X170439408Y-124646771D01*
X170439408Y-124646771D02*
X170477504Y-124684866D01*
X170477504Y-124684866D02*
X170553694Y-124722961D01*
X170553694Y-124722961D02*
X170667980Y-124722961D01*
X170667980Y-124722961D02*
X170744170Y-124684866D01*
X170401313Y-124418200D02*
X170477504Y-124456295D01*
X170477504Y-124456295D02*
X170629885Y-124456295D01*
X170629885Y-124456295D02*
X170706075Y-124418200D01*
X170706075Y-124418200D02*
X170744170Y-124380104D01*
X170744170Y-124380104D02*
X170782266Y-124303914D01*
X170782266Y-124303914D02*
X170782266Y-124075342D01*
X170782266Y-124075342D02*
X170744170Y-123999152D01*
X170744170Y-123999152D02*
X170706075Y-123961057D01*
X170706075Y-123961057D02*
X170629885Y-123922961D01*
X170629885Y-123922961D02*
X170477504Y-123922961D01*
X170477504Y-123922961D02*
X170401313Y-123961057D01*
X169715598Y-124418200D02*
X169791789Y-124456295D01*
X169791789Y-124456295D02*
X169944170Y-124456295D01*
X169944170Y-124456295D02*
X170020360Y-124418200D01*
X170020360Y-124418200D02*
X170058456Y-124342009D01*
X170058456Y-124342009D02*
X170058456Y-124037247D01*
X170058456Y-124037247D02*
X170020360Y-123961057D01*
X170020360Y-123961057D02*
X169944170Y-123922961D01*
X169944170Y-123922961D02*
X169791789Y-123922961D01*
X169791789Y-123922961D02*
X169715598Y-123961057D01*
X169715598Y-123961057D02*
X169677503Y-124037247D01*
X169677503Y-124037247D02*
X169677503Y-124113438D01*
X169677503Y-124113438D02*
X170058456Y-124189628D01*
X179925125Y-125210961D02*
X179620363Y-125210961D01*
X179810839Y-124944295D02*
X179810839Y-125630009D01*
X179810839Y-125630009D02*
X179772744Y-125706200D01*
X179772744Y-125706200D02*
X179696554Y-125744295D01*
X179696554Y-125744295D02*
X179620363Y-125744295D01*
X179239411Y-125744295D02*
X179315601Y-125706200D01*
X179315601Y-125706200D02*
X179353696Y-125668104D01*
X179353696Y-125668104D02*
X179391792Y-125591914D01*
X179391792Y-125591914D02*
X179391792Y-125363342D01*
X179391792Y-125363342D02*
X179353696Y-125287152D01*
X179353696Y-125287152D02*
X179315601Y-125249057D01*
X179315601Y-125249057D02*
X179239411Y-125210961D01*
X179239411Y-125210961D02*
X179125125Y-125210961D01*
X179125125Y-125210961D02*
X179048934Y-125249057D01*
X179048934Y-125249057D02*
X179010839Y-125287152D01*
X179010839Y-125287152D02*
X178972744Y-125363342D01*
X178972744Y-125363342D02*
X178972744Y-125591914D01*
X178972744Y-125591914D02*
X179010839Y-125668104D01*
X179010839Y-125668104D02*
X179048934Y-125706200D01*
X179048934Y-125706200D02*
X179125125Y-125744295D01*
X179125125Y-125744295D02*
X179239411Y-125744295D01*
X177677505Y-125210961D02*
X177677505Y-125744295D01*
X178020362Y-125210961D02*
X178020362Y-125630009D01*
X178020362Y-125630009D02*
X177982267Y-125706200D01*
X177982267Y-125706200D02*
X177906077Y-125744295D01*
X177906077Y-125744295D02*
X177791791Y-125744295D01*
X177791791Y-125744295D02*
X177715600Y-125706200D01*
X177715600Y-125706200D02*
X177677505Y-125668104D01*
X177334648Y-125706200D02*
X177258457Y-125744295D01*
X177258457Y-125744295D02*
X177106076Y-125744295D01*
X177106076Y-125744295D02*
X177029886Y-125706200D01*
X177029886Y-125706200D02*
X176991790Y-125630009D01*
X176991790Y-125630009D02*
X176991790Y-125591914D01*
X176991790Y-125591914D02*
X177029886Y-125515723D01*
X177029886Y-125515723D02*
X177106076Y-125477628D01*
X177106076Y-125477628D02*
X177220362Y-125477628D01*
X177220362Y-125477628D02*
X177296552Y-125439533D01*
X177296552Y-125439533D02*
X177334648Y-125363342D01*
X177334648Y-125363342D02*
X177334648Y-125325247D01*
X177334648Y-125325247D02*
X177296552Y-125249057D01*
X177296552Y-125249057D02*
X177220362Y-125210961D01*
X177220362Y-125210961D02*
X177106076Y-125210961D01*
X177106076Y-125210961D02*
X177029886Y-125249057D01*
X176344171Y-125706200D02*
X176420362Y-125744295D01*
X176420362Y-125744295D02*
X176572743Y-125744295D01*
X176572743Y-125744295D02*
X176648933Y-125706200D01*
X176648933Y-125706200D02*
X176687029Y-125630009D01*
X176687029Y-125630009D02*
X176687029Y-125325247D01*
X176687029Y-125325247D02*
X176648933Y-125249057D01*
X176648933Y-125249057D02*
X176572743Y-125210961D01*
X176572743Y-125210961D02*
X176420362Y-125210961D01*
X176420362Y-125210961D02*
X176344171Y-125249057D01*
X176344171Y-125249057D02*
X176306076Y-125325247D01*
X176306076Y-125325247D02*
X176306076Y-125401438D01*
X176306076Y-125401438D02*
X176687029Y-125477628D01*
X175391791Y-125515723D02*
X175010838Y-125515723D01*
X175467981Y-125744295D02*
X175201314Y-124944295D01*
X175201314Y-124944295D02*
X174934648Y-125744295D01*
X174667981Y-125744295D02*
X174667981Y-124944295D01*
X174667981Y-124944295D02*
X174477505Y-124944295D01*
X174477505Y-124944295D02*
X174363219Y-124982390D01*
X174363219Y-124982390D02*
X174287029Y-125058580D01*
X174287029Y-125058580D02*
X174248934Y-125134771D01*
X174248934Y-125134771D02*
X174210838Y-125287152D01*
X174210838Y-125287152D02*
X174210838Y-125401438D01*
X174210838Y-125401438D02*
X174248934Y-125553819D01*
X174248934Y-125553819D02*
X174287029Y-125630009D01*
X174287029Y-125630009D02*
X174363219Y-125706200D01*
X174363219Y-125706200D02*
X174477505Y-125744295D01*
X174477505Y-125744295D02*
X174667981Y-125744295D01*
X173944172Y-124944295D02*
X173410838Y-124944295D01*
X173410838Y-124944295D02*
X173753696Y-125744295D01*
X173182267Y-124944295D02*
X172648933Y-124944295D01*
X172648933Y-124944295D02*
X172991791Y-125744295D01*
X172420362Y-124944295D02*
X171925124Y-124944295D01*
X171925124Y-124944295D02*
X172191790Y-125249057D01*
X172191790Y-125249057D02*
X172077505Y-125249057D01*
X172077505Y-125249057D02*
X172001314Y-125287152D01*
X172001314Y-125287152D02*
X171963219Y-125325247D01*
X171963219Y-125325247D02*
X171925124Y-125401438D01*
X171925124Y-125401438D02*
X171925124Y-125591914D01*
X171925124Y-125591914D02*
X171963219Y-125668104D01*
X171963219Y-125668104D02*
X172001314Y-125706200D01*
X172001314Y-125706200D02*
X172077505Y-125744295D01*
X172077505Y-125744295D02*
X172306076Y-125744295D01*
X172306076Y-125744295D02*
X172382267Y-125706200D01*
X172382267Y-125706200D02*
X172420362Y-125668104D01*
X171429885Y-124944295D02*
X171353695Y-124944295D01*
X171353695Y-124944295D02*
X171277504Y-124982390D01*
X171277504Y-124982390D02*
X171239409Y-125020485D01*
X171239409Y-125020485D02*
X171201314Y-125096676D01*
X171201314Y-125096676D02*
X171163219Y-125249057D01*
X171163219Y-125249057D02*
X171163219Y-125439533D01*
X171163219Y-125439533D02*
X171201314Y-125591914D01*
X171201314Y-125591914D02*
X171239409Y-125668104D01*
X171239409Y-125668104D02*
X171277504Y-125706200D01*
X171277504Y-125706200D02*
X171353695Y-125744295D01*
X171353695Y-125744295D02*
X171429885Y-125744295D01*
X171429885Y-125744295D02*
X171506076Y-125706200D01*
X171506076Y-125706200D02*
X171544171Y-125668104D01*
X171544171Y-125668104D02*
X171582266Y-125591914D01*
X171582266Y-125591914D02*
X171620362Y-125439533D01*
X171620362Y-125439533D02*
X171620362Y-125249057D01*
X171620362Y-125249057D02*
X171582266Y-125096676D01*
X171582266Y-125096676D02*
X171544171Y-125020485D01*
X171544171Y-125020485D02*
X171506076Y-124982390D01*
X171506076Y-124982390D02*
X171429885Y-124944295D01*
X174663220Y-109819819D02*
X174663220Y-109153152D01*
X174663220Y-109248390D02*
X174615601Y-109200771D01*
X174615601Y-109200771D02*
X174520363Y-109153152D01*
X174520363Y-109153152D02*
X174377506Y-109153152D01*
X174377506Y-109153152D02*
X174282268Y-109200771D01*
X174282268Y-109200771D02*
X174234649Y-109296009D01*
X174234649Y-109296009D02*
X174234649Y-109819819D01*
X174234649Y-109296009D02*
X174187030Y-109200771D01*
X174187030Y-109200771D02*
X174091792Y-109153152D01*
X174091792Y-109153152D02*
X173948935Y-109153152D01*
X173948935Y-109153152D02*
X173853696Y-109200771D01*
X173853696Y-109200771D02*
X173806077Y-109296009D01*
X173806077Y-109296009D02*
X173806077Y-109819819D01*
X173187030Y-109819819D02*
X173282268Y-109772200D01*
X173282268Y-109772200D02*
X173329887Y-109724580D01*
X173329887Y-109724580D02*
X173377506Y-109629342D01*
X173377506Y-109629342D02*
X173377506Y-109343628D01*
X173377506Y-109343628D02*
X173329887Y-109248390D01*
X173329887Y-109248390D02*
X173282268Y-109200771D01*
X173282268Y-109200771D02*
X173187030Y-109153152D01*
X173187030Y-109153152D02*
X173044173Y-109153152D01*
X173044173Y-109153152D02*
X172948935Y-109200771D01*
X172948935Y-109200771D02*
X172901316Y-109248390D01*
X172901316Y-109248390D02*
X172853697Y-109343628D01*
X172853697Y-109343628D02*
X172853697Y-109629342D01*
X172853697Y-109629342D02*
X172901316Y-109724580D01*
X172901316Y-109724580D02*
X172948935Y-109772200D01*
X172948935Y-109772200D02*
X173044173Y-109819819D01*
X173044173Y-109819819D02*
X173187030Y-109819819D01*
X172472744Y-109772200D02*
X172377506Y-109819819D01*
X172377506Y-109819819D02*
X172187030Y-109819819D01*
X172187030Y-109819819D02*
X172091792Y-109772200D01*
X172091792Y-109772200D02*
X172044173Y-109676961D01*
X172044173Y-109676961D02*
X172044173Y-109629342D01*
X172044173Y-109629342D02*
X172091792Y-109534104D01*
X172091792Y-109534104D02*
X172187030Y-109486485D01*
X172187030Y-109486485D02*
X172329887Y-109486485D01*
X172329887Y-109486485D02*
X172425125Y-109438866D01*
X172425125Y-109438866D02*
X172472744Y-109343628D01*
X172472744Y-109343628D02*
X172472744Y-109296009D01*
X172472744Y-109296009D02*
X172425125Y-109200771D01*
X172425125Y-109200771D02*
X172329887Y-109153152D01*
X172329887Y-109153152D02*
X172187030Y-109153152D01*
X172187030Y-109153152D02*
X172091792Y-109200771D01*
X171615601Y-109819819D02*
X171615601Y-109153152D01*
X171615601Y-108819819D02*
X171663220Y-108867438D01*
X171663220Y-108867438D02*
X171615601Y-108915057D01*
X171615601Y-108915057D02*
X171567982Y-108867438D01*
X171567982Y-108867438D02*
X171615601Y-108819819D01*
X171615601Y-108819819D02*
X171615601Y-108915057D01*
X168810839Y-104622200D02*
X168715601Y-104669819D01*
X168715601Y-104669819D02*
X168525125Y-104669819D01*
X168525125Y-104669819D02*
X168429887Y-104622200D01*
X168429887Y-104622200D02*
X168382268Y-104526961D01*
X168382268Y-104526961D02*
X168382268Y-104479342D01*
X168382268Y-104479342D02*
X168429887Y-104384104D01*
X168429887Y-104384104D02*
X168525125Y-104336485D01*
X168525125Y-104336485D02*
X168667982Y-104336485D01*
X168667982Y-104336485D02*
X168763220Y-104288866D01*
X168763220Y-104288866D02*
X168810839Y-104193628D01*
X168810839Y-104193628D02*
X168810839Y-104146009D01*
X168810839Y-104146009D02*
X168763220Y-104050771D01*
X168763220Y-104050771D02*
X168667982Y-104003152D01*
X168667982Y-104003152D02*
X168525125Y-104003152D01*
X168525125Y-104003152D02*
X168429887Y-104050771D01*
X167525125Y-104622200D02*
X167620363Y-104669819D01*
X167620363Y-104669819D02*
X167810839Y-104669819D01*
X167810839Y-104669819D02*
X167906077Y-104622200D01*
X167906077Y-104622200D02*
X167953696Y-104574580D01*
X167953696Y-104574580D02*
X168001315Y-104479342D01*
X168001315Y-104479342D02*
X168001315Y-104193628D01*
X168001315Y-104193628D02*
X167953696Y-104098390D01*
X167953696Y-104098390D02*
X167906077Y-104050771D01*
X167906077Y-104050771D02*
X167810839Y-104003152D01*
X167810839Y-104003152D02*
X167620363Y-104003152D01*
X167620363Y-104003152D02*
X167525125Y-104050771D01*
X167096553Y-104669819D02*
X167096553Y-103669819D01*
X167001315Y-104288866D02*
X166715601Y-104669819D01*
X166715601Y-104003152D02*
X167096553Y-104384104D01*
X176513220Y-105119819D02*
X176513220Y-104453152D01*
X176513220Y-104548390D02*
X176465601Y-104500771D01*
X176465601Y-104500771D02*
X176370363Y-104453152D01*
X176370363Y-104453152D02*
X176227506Y-104453152D01*
X176227506Y-104453152D02*
X176132268Y-104500771D01*
X176132268Y-104500771D02*
X176084649Y-104596009D01*
X176084649Y-104596009D02*
X176084649Y-105119819D01*
X176084649Y-104596009D02*
X176037030Y-104500771D01*
X176037030Y-104500771D02*
X175941792Y-104453152D01*
X175941792Y-104453152D02*
X175798935Y-104453152D01*
X175798935Y-104453152D02*
X175703696Y-104500771D01*
X175703696Y-104500771D02*
X175656077Y-104596009D01*
X175656077Y-104596009D02*
X175656077Y-105119819D01*
X175179887Y-105119819D02*
X175179887Y-104453152D01*
X175179887Y-104119819D02*
X175227506Y-104167438D01*
X175227506Y-104167438D02*
X175179887Y-104215057D01*
X175179887Y-104215057D02*
X175132268Y-104167438D01*
X175132268Y-104167438D02*
X175179887Y-104119819D01*
X175179887Y-104119819D02*
X175179887Y-104215057D01*
X174751316Y-105072200D02*
X174656078Y-105119819D01*
X174656078Y-105119819D02*
X174465602Y-105119819D01*
X174465602Y-105119819D02*
X174370364Y-105072200D01*
X174370364Y-105072200D02*
X174322745Y-104976961D01*
X174322745Y-104976961D02*
X174322745Y-104929342D01*
X174322745Y-104929342D02*
X174370364Y-104834104D01*
X174370364Y-104834104D02*
X174465602Y-104786485D01*
X174465602Y-104786485D02*
X174608459Y-104786485D01*
X174608459Y-104786485D02*
X174703697Y-104738866D01*
X174703697Y-104738866D02*
X174751316Y-104643628D01*
X174751316Y-104643628D02*
X174751316Y-104596009D01*
X174751316Y-104596009D02*
X174703697Y-104500771D01*
X174703697Y-104500771D02*
X174608459Y-104453152D01*
X174608459Y-104453152D02*
X174465602Y-104453152D01*
X174465602Y-104453152D02*
X174370364Y-104500771D01*
X173751316Y-105119819D02*
X173846554Y-105072200D01*
X173846554Y-105072200D02*
X173894173Y-105024580D01*
X173894173Y-105024580D02*
X173941792Y-104929342D01*
X173941792Y-104929342D02*
X173941792Y-104643628D01*
X173941792Y-104643628D02*
X173894173Y-104548390D01*
X173894173Y-104548390D02*
X173846554Y-104500771D01*
X173846554Y-104500771D02*
X173751316Y-104453152D01*
X173751316Y-104453152D02*
X173608459Y-104453152D01*
X173608459Y-104453152D02*
X173513221Y-104500771D01*
X173513221Y-104500771D02*
X173465602Y-104548390D01*
X173465602Y-104548390D02*
X173417983Y-104643628D01*
X173417983Y-104643628D02*
X173417983Y-104929342D01*
X173417983Y-104929342D02*
X173465602Y-105024580D01*
X173465602Y-105024580D02*
X173513221Y-105072200D01*
X173513221Y-105072200D02*
X173608459Y-105119819D01*
X173608459Y-105119819D02*
X173751316Y-105119819D01*
X173913220Y-101224580D02*
X173865601Y-101272200D01*
X173865601Y-101272200D02*
X173913220Y-101319819D01*
X173913220Y-101319819D02*
X173960839Y-101272200D01*
X173960839Y-101272200D02*
X173913220Y-101224580D01*
X173913220Y-101224580D02*
X173913220Y-101319819D01*
X173913220Y-100938866D02*
X173960839Y-100367438D01*
X173960839Y-100367438D02*
X173913220Y-100319819D01*
X173913220Y-100319819D02*
X173865601Y-100367438D01*
X173865601Y-100367438D02*
X173913220Y-100938866D01*
X173913220Y-100938866D02*
X173913220Y-100319819D01*
X173008459Y-101272200D02*
X173103697Y-101319819D01*
X173103697Y-101319819D02*
X173294173Y-101319819D01*
X173294173Y-101319819D02*
X173389411Y-101272200D01*
X173389411Y-101272200D02*
X173437030Y-101224580D01*
X173437030Y-101224580D02*
X173484649Y-101129342D01*
X173484649Y-101129342D02*
X173484649Y-100843628D01*
X173484649Y-100843628D02*
X173437030Y-100748390D01*
X173437030Y-100748390D02*
X173389411Y-100700771D01*
X173389411Y-100700771D02*
X173294173Y-100653152D01*
X173294173Y-100653152D02*
X173103697Y-100653152D01*
X173103697Y-100653152D02*
X173008459Y-100700771D01*
X172627506Y-101272200D02*
X172532268Y-101319819D01*
X172532268Y-101319819D02*
X172341792Y-101319819D01*
X172341792Y-101319819D02*
X172246554Y-101272200D01*
X172246554Y-101272200D02*
X172198935Y-101176961D01*
X172198935Y-101176961D02*
X172198935Y-101129342D01*
X172198935Y-101129342D02*
X172246554Y-101034104D01*
X172246554Y-101034104D02*
X172341792Y-100986485D01*
X172341792Y-100986485D02*
X172484649Y-100986485D01*
X172484649Y-100986485D02*
X172579887Y-100938866D01*
X172579887Y-100938866D02*
X172627506Y-100843628D01*
X172627506Y-100843628D02*
X172627506Y-100796009D01*
X172627506Y-100796009D02*
X172579887Y-100700771D01*
X172579887Y-100700771D02*
X172484649Y-100653152D01*
X172484649Y-100653152D02*
X172341792Y-100653152D01*
X172341792Y-100653152D02*
X172246554Y-100700771D01*
X161960839Y-106322961D02*
X161960839Y-107122961D01*
X161960839Y-106361057D02*
X161884649Y-106322961D01*
X161884649Y-106322961D02*
X161732268Y-106322961D01*
X161732268Y-106322961D02*
X161656077Y-106361057D01*
X161656077Y-106361057D02*
X161617982Y-106399152D01*
X161617982Y-106399152D02*
X161579887Y-106475342D01*
X161579887Y-106475342D02*
X161579887Y-106703914D01*
X161579887Y-106703914D02*
X161617982Y-106780104D01*
X161617982Y-106780104D02*
X161656077Y-106818200D01*
X161656077Y-106818200D02*
X161732268Y-106856295D01*
X161732268Y-106856295D02*
X161884649Y-106856295D01*
X161884649Y-106856295D02*
X161960839Y-106818200D01*
X160665601Y-106018200D02*
X161351315Y-107046771D01*
X160056077Y-106322961D02*
X160056077Y-106856295D01*
X160398934Y-106322961D02*
X160398934Y-106742009D01*
X160398934Y-106742009D02*
X160360839Y-106818200D01*
X160360839Y-106818200D02*
X160284649Y-106856295D01*
X160284649Y-106856295D02*
X160170363Y-106856295D01*
X160170363Y-106856295D02*
X160094172Y-106818200D01*
X160094172Y-106818200D02*
X160056077Y-106780104D01*
X161960839Y-108068104D02*
X161922744Y-108106200D01*
X161922744Y-108106200D02*
X161960839Y-108144295D01*
X161960839Y-108144295D02*
X161998935Y-108106200D01*
X161998935Y-108106200D02*
X161960839Y-108068104D01*
X161960839Y-108068104D02*
X161960839Y-108144295D01*
X161960839Y-107839533D02*
X161998935Y-107382390D01*
X161998935Y-107382390D02*
X161960839Y-107344295D01*
X161960839Y-107344295D02*
X161922744Y-107382390D01*
X161922744Y-107382390D02*
X161960839Y-107839533D01*
X161960839Y-107839533D02*
X161960839Y-107344295D01*
X161122744Y-108144295D02*
X161389411Y-107763342D01*
X161579887Y-108144295D02*
X161579887Y-107344295D01*
X161579887Y-107344295D02*
X161275125Y-107344295D01*
X161275125Y-107344295D02*
X161198935Y-107382390D01*
X161198935Y-107382390D02*
X161160840Y-107420485D01*
X161160840Y-107420485D02*
X161122744Y-107496676D01*
X161122744Y-107496676D02*
X161122744Y-107610961D01*
X161122744Y-107610961D02*
X161160840Y-107687152D01*
X161160840Y-107687152D02*
X161198935Y-107725247D01*
X161198935Y-107725247D02*
X161275125Y-107763342D01*
X161275125Y-107763342D02*
X161579887Y-107763342D01*
X160817983Y-108106200D02*
X160703697Y-108144295D01*
X160703697Y-108144295D02*
X160513221Y-108144295D01*
X160513221Y-108144295D02*
X160437030Y-108106200D01*
X160437030Y-108106200D02*
X160398935Y-108068104D01*
X160398935Y-108068104D02*
X160360840Y-107991914D01*
X160360840Y-107991914D02*
X160360840Y-107915723D01*
X160360840Y-107915723D02*
X160398935Y-107839533D01*
X160398935Y-107839533D02*
X160437030Y-107801438D01*
X160437030Y-107801438D02*
X160513221Y-107763342D01*
X160513221Y-107763342D02*
X160665602Y-107725247D01*
X160665602Y-107725247D02*
X160741792Y-107687152D01*
X160741792Y-107687152D02*
X160779887Y-107649057D01*
X160779887Y-107649057D02*
X160817983Y-107572866D01*
X160817983Y-107572866D02*
X160817983Y-107496676D01*
X160817983Y-107496676D02*
X160779887Y-107420485D01*
X160779887Y-107420485D02*
X160741792Y-107382390D01*
X160741792Y-107382390D02*
X160665602Y-107344295D01*
X160665602Y-107344295D02*
X160475125Y-107344295D01*
X160475125Y-107344295D02*
X160360840Y-107382390D01*
X160132268Y-107344295D02*
X159675125Y-107344295D01*
X159903697Y-108144295D02*
X159903697Y-107344295D01*
D11*
X161064286Y-120537219D02*
X161397619Y-120061028D01*
X161635714Y-120537219D02*
X161635714Y-119537219D01*
X161635714Y-119537219D02*
X161254762Y-119537219D01*
X161254762Y-119537219D02*
X161159524Y-119584838D01*
X161159524Y-119584838D02*
X161111905Y-119632457D01*
X161111905Y-119632457D02*
X161064286Y-119727695D01*
X161064286Y-119727695D02*
X161064286Y-119870552D01*
X161064286Y-119870552D02*
X161111905Y-119965790D01*
X161111905Y-119965790D02*
X161159524Y-120013409D01*
X161159524Y-120013409D02*
X161254762Y-120061028D01*
X161254762Y-120061028D02*
X161635714Y-120061028D01*
X160635714Y-120537219D02*
X160635714Y-119537219D01*
X160635714Y-119537219D02*
X160254762Y-119537219D01*
X160254762Y-119537219D02*
X160159524Y-119584838D01*
X160159524Y-119584838D02*
X160111905Y-119632457D01*
X160111905Y-119632457D02*
X160064286Y-119727695D01*
X160064286Y-119727695D02*
X160064286Y-119870552D01*
X160064286Y-119870552D02*
X160111905Y-119965790D01*
X160111905Y-119965790D02*
X160159524Y-120013409D01*
X160159524Y-120013409D02*
X160254762Y-120061028D01*
X160254762Y-120061028D02*
X160635714Y-120061028D01*
X159635714Y-120537219D02*
X159635714Y-119870552D01*
X159635714Y-119537219D02*
X159683333Y-119584838D01*
X159683333Y-119584838D02*
X159635714Y-119632457D01*
X159635714Y-119632457D02*
X159588095Y-119584838D01*
X159588095Y-119584838D02*
X159635714Y-119537219D01*
X159635714Y-119537219D02*
X159635714Y-119632457D01*
X158969048Y-119537219D02*
X158873810Y-119537219D01*
X158873810Y-119537219D02*
X158778572Y-119584838D01*
X158778572Y-119584838D02*
X158730953Y-119632457D01*
X158730953Y-119632457D02*
X158683334Y-119727695D01*
X158683334Y-119727695D02*
X158635715Y-119918171D01*
X158635715Y-119918171D02*
X158635715Y-120156266D01*
X158635715Y-120156266D02*
X158683334Y-120346742D01*
X158683334Y-120346742D02*
X158730953Y-120441980D01*
X158730953Y-120441980D02*
X158778572Y-120489600D01*
X158778572Y-120489600D02*
X158873810Y-120537219D01*
X158873810Y-120537219D02*
X158969048Y-120537219D01*
X158969048Y-120537219D02*
X159064286Y-120489600D01*
X159064286Y-120489600D02*
X159111905Y-120441980D01*
X159111905Y-120441980D02*
X159159524Y-120346742D01*
X159159524Y-120346742D02*
X159207143Y-120156266D01*
X159207143Y-120156266D02*
X159207143Y-119918171D01*
X159207143Y-119918171D02*
X159159524Y-119727695D01*
X159159524Y-119727695D02*
X159111905Y-119632457D01*
X159111905Y-119632457D02*
X159064286Y-119584838D01*
X159064286Y-119584838D02*
X158969048Y-119537219D01*
X157445238Y-120537219D02*
X157445238Y-119537219D01*
X156969048Y-119870552D02*
X156969048Y-120537219D01*
X156969048Y-119965790D02*
X156921429Y-119918171D01*
X156921429Y-119918171D02*
X156826191Y-119870552D01*
X156826191Y-119870552D02*
X156683334Y-119870552D01*
X156683334Y-119870552D02*
X156588096Y-119918171D01*
X156588096Y-119918171D02*
X156540477Y-120013409D01*
X156540477Y-120013409D02*
X156540477Y-120537219D01*
X156111905Y-120489600D02*
X156016667Y-120537219D01*
X156016667Y-120537219D02*
X155826191Y-120537219D01*
X155826191Y-120537219D02*
X155730953Y-120489600D01*
X155730953Y-120489600D02*
X155683334Y-120394361D01*
X155683334Y-120394361D02*
X155683334Y-120346742D01*
X155683334Y-120346742D02*
X155730953Y-120251504D01*
X155730953Y-120251504D02*
X155826191Y-120203885D01*
X155826191Y-120203885D02*
X155969048Y-120203885D01*
X155969048Y-120203885D02*
X156064286Y-120156266D01*
X156064286Y-120156266D02*
X156111905Y-120061028D01*
X156111905Y-120061028D02*
X156111905Y-120013409D01*
X156111905Y-120013409D02*
X156064286Y-119918171D01*
X156064286Y-119918171D02*
X155969048Y-119870552D01*
X155969048Y-119870552D02*
X155826191Y-119870552D01*
X155826191Y-119870552D02*
X155730953Y-119918171D01*
X155397619Y-119870552D02*
X155016667Y-119870552D01*
X155254762Y-119537219D02*
X155254762Y-120394361D01*
X155254762Y-120394361D02*
X155207143Y-120489600D01*
X155207143Y-120489600D02*
X155111905Y-120537219D01*
X155111905Y-120537219D02*
X155016667Y-120537219D01*
X154683333Y-120537219D02*
X154683333Y-119870552D01*
X154683333Y-120061028D02*
X154635714Y-119965790D01*
X154635714Y-119965790D02*
X154588095Y-119918171D01*
X154588095Y-119918171D02*
X154492857Y-119870552D01*
X154492857Y-119870552D02*
X154397619Y-119870552D01*
X153635714Y-119870552D02*
X153635714Y-120537219D01*
X154064285Y-119870552D02*
X154064285Y-120394361D01*
X154064285Y-120394361D02*
X154016666Y-120489600D01*
X154016666Y-120489600D02*
X153921428Y-120537219D01*
X153921428Y-120537219D02*
X153778571Y-120537219D01*
X153778571Y-120537219D02*
X153683333Y-120489600D01*
X153683333Y-120489600D02*
X153635714Y-120441980D01*
X153159523Y-120537219D02*
X153159523Y-119870552D01*
X153159523Y-119965790D02*
X153111904Y-119918171D01*
X153111904Y-119918171D02*
X153016666Y-119870552D01*
X153016666Y-119870552D02*
X152873809Y-119870552D01*
X152873809Y-119870552D02*
X152778571Y-119918171D01*
X152778571Y-119918171D02*
X152730952Y-120013409D01*
X152730952Y-120013409D02*
X152730952Y-120537219D01*
X152730952Y-120013409D02*
X152683333Y-119918171D01*
X152683333Y-119918171D02*
X152588095Y-119870552D01*
X152588095Y-119870552D02*
X152445238Y-119870552D01*
X152445238Y-119870552D02*
X152349999Y-119918171D01*
X152349999Y-119918171D02*
X152302380Y-120013409D01*
X152302380Y-120013409D02*
X152302380Y-120537219D01*
X151445238Y-120489600D02*
X151540476Y-120537219D01*
X151540476Y-120537219D02*
X151730952Y-120537219D01*
X151730952Y-120537219D02*
X151826190Y-120489600D01*
X151826190Y-120489600D02*
X151873809Y-120394361D01*
X151873809Y-120394361D02*
X151873809Y-120013409D01*
X151873809Y-120013409D02*
X151826190Y-119918171D01*
X151826190Y-119918171D02*
X151730952Y-119870552D01*
X151730952Y-119870552D02*
X151540476Y-119870552D01*
X151540476Y-119870552D02*
X151445238Y-119918171D01*
X151445238Y-119918171D02*
X151397619Y-120013409D01*
X151397619Y-120013409D02*
X151397619Y-120108647D01*
X151397619Y-120108647D02*
X151873809Y-120203885D01*
X150969047Y-119870552D02*
X150969047Y-120537219D01*
X150969047Y-119965790D02*
X150921428Y-119918171D01*
X150921428Y-119918171D02*
X150826190Y-119870552D01*
X150826190Y-119870552D02*
X150683333Y-119870552D01*
X150683333Y-119870552D02*
X150588095Y-119918171D01*
X150588095Y-119918171D02*
X150540476Y-120013409D01*
X150540476Y-120013409D02*
X150540476Y-120537219D01*
X150207142Y-119870552D02*
X149826190Y-119870552D01*
X150064285Y-119537219D02*
X150064285Y-120394361D01*
X150064285Y-120394361D02*
X150016666Y-120489600D01*
X150016666Y-120489600D02*
X149921428Y-120537219D01*
X149921428Y-120537219D02*
X149826190Y-120537219D01*
X149492856Y-120441980D02*
X149445237Y-120489600D01*
X149445237Y-120489600D02*
X149492856Y-120537219D01*
X149492856Y-120537219D02*
X149540475Y-120489600D01*
X149540475Y-120489600D02*
X149492856Y-120441980D01*
X149492856Y-120441980D02*
X149492856Y-120537219D01*
X148254761Y-120537219D02*
X148254761Y-119537219D01*
X148254761Y-120013409D02*
X147683333Y-120013409D01*
X147683333Y-120537219D02*
X147683333Y-119537219D01*
X147254761Y-120251504D02*
X146778571Y-120251504D01*
X147349999Y-120537219D02*
X147016666Y-119537219D01*
X147016666Y-119537219D02*
X146683333Y-120537219D01*
X146492856Y-119537219D02*
X145921428Y-119537219D01*
X146207142Y-120537219D02*
X146207142Y-119537219D01*
X155992856Y-121480552D02*
X155754761Y-122147219D01*
X155754761Y-122147219D02*
X155516666Y-121480552D01*
X154611904Y-122147219D02*
X155183332Y-122147219D01*
X154897618Y-122147219D02*
X154897618Y-121147219D01*
X154897618Y-121147219D02*
X154992856Y-121290076D01*
X154992856Y-121290076D02*
X155088094Y-121385314D01*
X155088094Y-121385314D02*
X155183332Y-121432933D01*
X154183332Y-122051980D02*
X154135713Y-122099600D01*
X154135713Y-122099600D02*
X154183332Y-122147219D01*
X154183332Y-122147219D02*
X154230951Y-122099600D01*
X154230951Y-122099600D02*
X154183332Y-122051980D01*
X154183332Y-122051980D02*
X154183332Y-122147219D01*
X153516666Y-121147219D02*
X153421428Y-121147219D01*
X153421428Y-121147219D02*
X153326190Y-121194838D01*
X153326190Y-121194838D02*
X153278571Y-121242457D01*
X153278571Y-121242457D02*
X153230952Y-121337695D01*
X153230952Y-121337695D02*
X153183333Y-121528171D01*
X153183333Y-121528171D02*
X153183333Y-121766266D01*
X153183333Y-121766266D02*
X153230952Y-121956742D01*
X153230952Y-121956742D02*
X153278571Y-122051980D01*
X153278571Y-122051980D02*
X153326190Y-122099600D01*
X153326190Y-122099600D02*
X153421428Y-122147219D01*
X153421428Y-122147219D02*
X153516666Y-122147219D01*
X153516666Y-122147219D02*
X153611904Y-122099600D01*
X153611904Y-122099600D02*
X153659523Y-122051980D01*
X153659523Y-122051980D02*
X153707142Y-121956742D01*
X153707142Y-121956742D02*
X153754761Y-121766266D01*
X153754761Y-121766266D02*
X153754761Y-121528171D01*
X153754761Y-121528171D02*
X153707142Y-121337695D01*
X153707142Y-121337695D02*
X153659523Y-121242457D01*
X153659523Y-121242457D02*
X153611904Y-121194838D01*
X153611904Y-121194838D02*
X153516666Y-121147219D01*
X152754761Y-122051980D02*
X152707142Y-122099600D01*
X152707142Y-122099600D02*
X152754761Y-122147219D01*
X152754761Y-122147219D02*
X152802380Y-122099600D01*
X152802380Y-122099600D02*
X152754761Y-122051980D01*
X152754761Y-122051980D02*
X152754761Y-122147219D01*
X152088095Y-121147219D02*
X151992857Y-121147219D01*
X151992857Y-121147219D02*
X151897619Y-121194838D01*
X151897619Y-121194838D02*
X151850000Y-121242457D01*
X151850000Y-121242457D02*
X151802381Y-121337695D01*
X151802381Y-121337695D02*
X151754762Y-121528171D01*
X151754762Y-121528171D02*
X151754762Y-121766266D01*
X151754762Y-121766266D02*
X151802381Y-121956742D01*
X151802381Y-121956742D02*
X151850000Y-122051980D01*
X151850000Y-122051980D02*
X151897619Y-122099600D01*
X151897619Y-122099600D02*
X151992857Y-122147219D01*
X151992857Y-122147219D02*
X152088095Y-122147219D01*
X152088095Y-122147219D02*
X152183333Y-122099600D01*
X152183333Y-122099600D02*
X152230952Y-122051980D01*
X152230952Y-122051980D02*
X152278571Y-121956742D01*
X152278571Y-121956742D02*
X152326190Y-121766266D01*
X152326190Y-121766266D02*
X152326190Y-121528171D01*
X152326190Y-121528171D02*
X152278571Y-121337695D01*
X152278571Y-121337695D02*
X152230952Y-121242457D01*
X152230952Y-121242457D02*
X152183333Y-121194838D01*
X152183333Y-121194838D02*
X152088095Y-121147219D01*
X159326190Y-123757219D02*
X159326190Y-122757219D01*
X159326190Y-122757219D02*
X158992857Y-123471504D01*
X158992857Y-123471504D02*
X158659524Y-122757219D01*
X158659524Y-122757219D02*
X158659524Y-123757219D01*
X158040476Y-123757219D02*
X158135714Y-123709600D01*
X158135714Y-123709600D02*
X158183333Y-123661980D01*
X158183333Y-123661980D02*
X158230952Y-123566742D01*
X158230952Y-123566742D02*
X158230952Y-123281028D01*
X158230952Y-123281028D02*
X158183333Y-123185790D01*
X158183333Y-123185790D02*
X158135714Y-123138171D01*
X158135714Y-123138171D02*
X158040476Y-123090552D01*
X158040476Y-123090552D02*
X157897619Y-123090552D01*
X157897619Y-123090552D02*
X157802381Y-123138171D01*
X157802381Y-123138171D02*
X157754762Y-123185790D01*
X157754762Y-123185790D02*
X157707143Y-123281028D01*
X157707143Y-123281028D02*
X157707143Y-123566742D01*
X157707143Y-123566742D02*
X157754762Y-123661980D01*
X157754762Y-123661980D02*
X157802381Y-123709600D01*
X157802381Y-123709600D02*
X157897619Y-123757219D01*
X157897619Y-123757219D02*
X158040476Y-123757219D01*
X157278571Y-123090552D02*
X157278571Y-123757219D01*
X157278571Y-123185790D02*
X157230952Y-123138171D01*
X157230952Y-123138171D02*
X157135714Y-123090552D01*
X157135714Y-123090552D02*
X156992857Y-123090552D01*
X156992857Y-123090552D02*
X156897619Y-123138171D01*
X156897619Y-123138171D02*
X156850000Y-123233409D01*
X156850000Y-123233409D02*
X156850000Y-123757219D01*
X156516666Y-123090552D02*
X156135714Y-123090552D01*
X156373809Y-122757219D02*
X156373809Y-123614361D01*
X156373809Y-123614361D02*
X156326190Y-123709600D01*
X156326190Y-123709600D02*
X156230952Y-123757219D01*
X156230952Y-123757219D02*
X156135714Y-123757219D01*
X155849999Y-123709600D02*
X155754761Y-123757219D01*
X155754761Y-123757219D02*
X155564285Y-123757219D01*
X155564285Y-123757219D02*
X155469047Y-123709600D01*
X155469047Y-123709600D02*
X155421428Y-123614361D01*
X155421428Y-123614361D02*
X155421428Y-123566742D01*
X155421428Y-123566742D02*
X155469047Y-123471504D01*
X155469047Y-123471504D02*
X155564285Y-123423885D01*
X155564285Y-123423885D02*
X155707142Y-123423885D01*
X155707142Y-123423885D02*
X155802380Y-123376266D01*
X155802380Y-123376266D02*
X155849999Y-123281028D01*
X155849999Y-123281028D02*
X155849999Y-123233409D01*
X155849999Y-123233409D02*
X155802380Y-123138171D01*
X155802380Y-123138171D02*
X155707142Y-123090552D01*
X155707142Y-123090552D02*
X155564285Y-123090552D01*
X155564285Y-123090552D02*
X155469047Y-123138171D01*
X155849999Y-122709600D02*
X155659523Y-122852457D01*
X155659523Y-122852457D02*
X155469047Y-122709600D01*
X154849999Y-123757219D02*
X154945237Y-123709600D01*
X154945237Y-123709600D02*
X154992856Y-123661980D01*
X154992856Y-123661980D02*
X155040475Y-123566742D01*
X155040475Y-123566742D02*
X155040475Y-123281028D01*
X155040475Y-123281028D02*
X154992856Y-123185790D01*
X154992856Y-123185790D02*
X154945237Y-123138171D01*
X154945237Y-123138171D02*
X154849999Y-123090552D01*
X154849999Y-123090552D02*
X154707142Y-123090552D01*
X154707142Y-123090552D02*
X154611904Y-123138171D01*
X154611904Y-123138171D02*
X154564285Y-123185790D01*
X154564285Y-123185790D02*
X154516666Y-123281028D01*
X154516666Y-123281028D02*
X154516666Y-123566742D01*
X154516666Y-123566742D02*
X154564285Y-123661980D01*
X154564285Y-123661980D02*
X154611904Y-123709600D01*
X154611904Y-123709600D02*
X154707142Y-123757219D01*
X154707142Y-123757219D02*
X154849999Y-123757219D01*
X153326189Y-123757219D02*
X153326189Y-122757219D01*
X153326189Y-122757219D02*
X152992856Y-123471504D01*
X152992856Y-123471504D02*
X152659523Y-122757219D01*
X152659523Y-122757219D02*
X152659523Y-123757219D01*
X152040475Y-123757219D02*
X152135713Y-123709600D01*
X152135713Y-123709600D02*
X152183332Y-123661980D01*
X152183332Y-123661980D02*
X152230951Y-123566742D01*
X152230951Y-123566742D02*
X152230951Y-123281028D01*
X152230951Y-123281028D02*
X152183332Y-123185790D01*
X152183332Y-123185790D02*
X152135713Y-123138171D01*
X152135713Y-123138171D02*
X152040475Y-123090552D01*
X152040475Y-123090552D02*
X151897618Y-123090552D01*
X151897618Y-123090552D02*
X151802380Y-123138171D01*
X151802380Y-123138171D02*
X151754761Y-123185790D01*
X151754761Y-123185790D02*
X151707142Y-123281028D01*
X151707142Y-123281028D02*
X151707142Y-123566742D01*
X151707142Y-123566742D02*
X151754761Y-123661980D01*
X151754761Y-123661980D02*
X151802380Y-123709600D01*
X151802380Y-123709600D02*
X151897618Y-123757219D01*
X151897618Y-123757219D02*
X152040475Y-123757219D01*
X151278570Y-123757219D02*
X151278570Y-122757219D01*
X151183332Y-123376266D02*
X150897618Y-123757219D01*
X150897618Y-123090552D02*
X151278570Y-123471504D01*
X150040475Y-123757219D02*
X150040475Y-123233409D01*
X150040475Y-123233409D02*
X150088094Y-123138171D01*
X150088094Y-123138171D02*
X150183332Y-123090552D01*
X150183332Y-123090552D02*
X150373808Y-123090552D01*
X150373808Y-123090552D02*
X150469046Y-123138171D01*
X150040475Y-123709600D02*
X150135713Y-123757219D01*
X150135713Y-123757219D02*
X150373808Y-123757219D01*
X150373808Y-123757219D02*
X150469046Y-123709600D01*
X150469046Y-123709600D02*
X150516665Y-123614361D01*
X150516665Y-123614361D02*
X150516665Y-123519123D01*
X150516665Y-123519123D02*
X150469046Y-123423885D01*
X150469046Y-123423885D02*
X150373808Y-123376266D01*
X150373808Y-123376266D02*
X150135713Y-123376266D01*
X150135713Y-123376266D02*
X150040475Y-123328647D01*
X149564284Y-123757219D02*
X149564284Y-122757219D01*
X149469046Y-123376266D02*
X149183332Y-123757219D01*
X149183332Y-123090552D02*
X149564284Y-123471504D01*
X148373808Y-123709600D02*
X148469046Y-123757219D01*
X148469046Y-123757219D02*
X148659522Y-123757219D01*
X148659522Y-123757219D02*
X148754760Y-123709600D01*
X148754760Y-123709600D02*
X148802379Y-123614361D01*
X148802379Y-123614361D02*
X148802379Y-123233409D01*
X148802379Y-123233409D02*
X148754760Y-123138171D01*
X148754760Y-123138171D02*
X148659522Y-123090552D01*
X148659522Y-123090552D02*
X148469046Y-123090552D01*
X148469046Y-123090552D02*
X148373808Y-123138171D01*
X148373808Y-123138171D02*
X148326189Y-123233409D01*
X148326189Y-123233409D02*
X148326189Y-123328647D01*
X148326189Y-123328647D02*
X148802379Y-123423885D01*
X158278571Y-124367219D02*
X158183333Y-124367219D01*
X158183333Y-124367219D02*
X158088095Y-124414838D01*
X158088095Y-124414838D02*
X158040476Y-124462457D01*
X158040476Y-124462457D02*
X157992857Y-124557695D01*
X157992857Y-124557695D02*
X157945238Y-124748171D01*
X157945238Y-124748171D02*
X157945238Y-124986266D01*
X157945238Y-124986266D02*
X157992857Y-125176742D01*
X157992857Y-125176742D02*
X158040476Y-125271980D01*
X158040476Y-125271980D02*
X158088095Y-125319600D01*
X158088095Y-125319600D02*
X158183333Y-125367219D01*
X158183333Y-125367219D02*
X158278571Y-125367219D01*
X158278571Y-125367219D02*
X158373809Y-125319600D01*
X158373809Y-125319600D02*
X158421428Y-125271980D01*
X158421428Y-125271980D02*
X158469047Y-125176742D01*
X158469047Y-125176742D02*
X158516666Y-124986266D01*
X158516666Y-124986266D02*
X158516666Y-124748171D01*
X158516666Y-124748171D02*
X158469047Y-124557695D01*
X158469047Y-124557695D02*
X158421428Y-124462457D01*
X158421428Y-124462457D02*
X158373809Y-124414838D01*
X158373809Y-124414838D02*
X158278571Y-124367219D01*
X157469047Y-125367219D02*
X157278571Y-125367219D01*
X157278571Y-125367219D02*
X157183333Y-125319600D01*
X157183333Y-125319600D02*
X157135714Y-125271980D01*
X157135714Y-125271980D02*
X157040476Y-125129123D01*
X157040476Y-125129123D02*
X156992857Y-124938647D01*
X156992857Y-124938647D02*
X156992857Y-124557695D01*
X156992857Y-124557695D02*
X157040476Y-124462457D01*
X157040476Y-124462457D02*
X157088095Y-124414838D01*
X157088095Y-124414838D02*
X157183333Y-124367219D01*
X157183333Y-124367219D02*
X157373809Y-124367219D01*
X157373809Y-124367219D02*
X157469047Y-124414838D01*
X157469047Y-124414838D02*
X157516666Y-124462457D01*
X157516666Y-124462457D02*
X157564285Y-124557695D01*
X157564285Y-124557695D02*
X157564285Y-124795790D01*
X157564285Y-124795790D02*
X157516666Y-124891028D01*
X157516666Y-124891028D02*
X157469047Y-124938647D01*
X157469047Y-124938647D02*
X157373809Y-124986266D01*
X157373809Y-124986266D02*
X157183333Y-124986266D01*
X157183333Y-124986266D02*
X157088095Y-124938647D01*
X157088095Y-124938647D02*
X157040476Y-124891028D01*
X157040476Y-124891028D02*
X156992857Y-124795790D01*
X155850000Y-124319600D02*
X156707142Y-125605314D01*
X154992857Y-125367219D02*
X155564285Y-125367219D01*
X155278571Y-125367219D02*
X155278571Y-124367219D01*
X155278571Y-124367219D02*
X155373809Y-124510076D01*
X155373809Y-124510076D02*
X155469047Y-124605314D01*
X155469047Y-124605314D02*
X155564285Y-124652933D01*
X154611904Y-124462457D02*
X154564285Y-124414838D01*
X154564285Y-124414838D02*
X154469047Y-124367219D01*
X154469047Y-124367219D02*
X154230952Y-124367219D01*
X154230952Y-124367219D02*
X154135714Y-124414838D01*
X154135714Y-124414838D02*
X154088095Y-124462457D01*
X154088095Y-124462457D02*
X154040476Y-124557695D01*
X154040476Y-124557695D02*
X154040476Y-124652933D01*
X154040476Y-124652933D02*
X154088095Y-124795790D01*
X154088095Y-124795790D02*
X154659523Y-125367219D01*
X154659523Y-125367219D02*
X154040476Y-125367219D01*
X152897619Y-124319600D02*
X153754761Y-125605314D01*
X152611904Y-124462457D02*
X152564285Y-124414838D01*
X152564285Y-124414838D02*
X152469047Y-124367219D01*
X152469047Y-124367219D02*
X152230952Y-124367219D01*
X152230952Y-124367219D02*
X152135714Y-124414838D01*
X152135714Y-124414838D02*
X152088095Y-124462457D01*
X152088095Y-124462457D02*
X152040476Y-124557695D01*
X152040476Y-124557695D02*
X152040476Y-124652933D01*
X152040476Y-124652933D02*
X152088095Y-124795790D01*
X152088095Y-124795790D02*
X152659523Y-125367219D01*
X152659523Y-125367219D02*
X152040476Y-125367219D01*
X151421428Y-124367219D02*
X151326190Y-124367219D01*
X151326190Y-124367219D02*
X151230952Y-124414838D01*
X151230952Y-124414838D02*
X151183333Y-124462457D01*
X151183333Y-124462457D02*
X151135714Y-124557695D01*
X151135714Y-124557695D02*
X151088095Y-124748171D01*
X151088095Y-124748171D02*
X151088095Y-124986266D01*
X151088095Y-124986266D02*
X151135714Y-125176742D01*
X151135714Y-125176742D02*
X151183333Y-125271980D01*
X151183333Y-125271980D02*
X151230952Y-125319600D01*
X151230952Y-125319600D02*
X151326190Y-125367219D01*
X151326190Y-125367219D02*
X151421428Y-125367219D01*
X151421428Y-125367219D02*
X151516666Y-125319600D01*
X151516666Y-125319600D02*
X151564285Y-125271980D01*
X151564285Y-125271980D02*
X151611904Y-125176742D01*
X151611904Y-125176742D02*
X151659523Y-124986266D01*
X151659523Y-124986266D02*
X151659523Y-124748171D01*
X151659523Y-124748171D02*
X151611904Y-124557695D01*
X151611904Y-124557695D02*
X151564285Y-124462457D01*
X151564285Y-124462457D02*
X151516666Y-124414838D01*
X151516666Y-124414838D02*
X151421428Y-124367219D01*
X150707142Y-124462457D02*
X150659523Y-124414838D01*
X150659523Y-124414838D02*
X150564285Y-124367219D01*
X150564285Y-124367219D02*
X150326190Y-124367219D01*
X150326190Y-124367219D02*
X150230952Y-124414838D01*
X150230952Y-124414838D02*
X150183333Y-124462457D01*
X150183333Y-124462457D02*
X150135714Y-124557695D01*
X150135714Y-124557695D02*
X150135714Y-124652933D01*
X150135714Y-124652933D02*
X150183333Y-124795790D01*
X150183333Y-124795790D02*
X150754761Y-125367219D01*
X150754761Y-125367219D02*
X150135714Y-125367219D01*
X149802380Y-124367219D02*
X149183333Y-124367219D01*
X149183333Y-124367219D02*
X149516666Y-124748171D01*
X149516666Y-124748171D02*
X149373809Y-124748171D01*
X149373809Y-124748171D02*
X149278571Y-124795790D01*
X149278571Y-124795790D02*
X149230952Y-124843409D01*
X149230952Y-124843409D02*
X149183333Y-124938647D01*
X149183333Y-124938647D02*
X149183333Y-125176742D01*
X149183333Y-125176742D02*
X149230952Y-125271980D01*
X149230952Y-125271980D02*
X149278571Y-125319600D01*
X149278571Y-125319600D02*
X149373809Y-125367219D01*
X149373809Y-125367219D02*
X149659523Y-125367219D01*
X149659523Y-125367219D02*
X149754761Y-125319600D01*
X149754761Y-125319600D02*
X149802380Y-125271980D01*
D10*
X164887319Y-116940476D02*
X165601604Y-116940476D01*
X165601604Y-116940476D02*
X165744461Y-116892857D01*
X165744461Y-116892857D02*
X165839700Y-116797619D01*
X165839700Y-116797619D02*
X165887319Y-116654762D01*
X165887319Y-116654762D02*
X165887319Y-116559524D01*
X165887319Y-117416667D02*
X164887319Y-117416667D01*
X164887319Y-117416667D02*
X164887319Y-117797619D01*
X164887319Y-117797619D02*
X164934938Y-117892857D01*
X164934938Y-117892857D02*
X164982557Y-117940476D01*
X164982557Y-117940476D02*
X165077795Y-117988095D01*
X165077795Y-117988095D02*
X165220652Y-117988095D01*
X165220652Y-117988095D02*
X165315890Y-117940476D01*
X165315890Y-117940476D02*
X165363509Y-117892857D01*
X165363509Y-117892857D02*
X165411128Y-117797619D01*
X165411128Y-117797619D02*
X165411128Y-117416667D01*
X165887319Y-118940476D02*
X165887319Y-118369048D01*
X165887319Y-118654762D02*
X164887319Y-118654762D01*
X164887319Y-118654762D02*
X165030176Y-118559524D01*
X165030176Y-118559524D02*
X165125414Y-118464286D01*
X165125414Y-118464286D02*
X165173033Y-118369048D01*
X164982557Y-119321429D02*
X164934938Y-119369048D01*
X164934938Y-119369048D02*
X164887319Y-119464286D01*
X164887319Y-119464286D02*
X164887319Y-119702381D01*
X164887319Y-119702381D02*
X164934938Y-119797619D01*
X164934938Y-119797619D02*
X164982557Y-119845238D01*
X164982557Y-119845238D02*
X165077795Y-119892857D01*
X165077795Y-119892857D02*
X165173033Y-119892857D01*
X165173033Y-119892857D02*
X165315890Y-119845238D01*
X165315890Y-119845238D02*
X165887319Y-119273810D01*
X165887319Y-119273810D02*
X165887319Y-119892857D01*
X162533333Y-109054819D02*
X162533333Y-109769104D01*
X162533333Y-109769104D02*
X162580952Y-109911961D01*
X162580952Y-109911961D02*
X162676190Y-110007200D01*
X162676190Y-110007200D02*
X162819047Y-110054819D01*
X162819047Y-110054819D02*
X162914285Y-110054819D01*
X162057142Y-110054819D02*
X162057142Y-109054819D01*
X162057142Y-109054819D02*
X161676190Y-109054819D01*
X161676190Y-109054819D02*
X161580952Y-109102438D01*
X161580952Y-109102438D02*
X161533333Y-109150057D01*
X161533333Y-109150057D02*
X161485714Y-109245295D01*
X161485714Y-109245295D02*
X161485714Y-109388152D01*
X161485714Y-109388152D02*
X161533333Y-109483390D01*
X161533333Y-109483390D02*
X161580952Y-109531009D01*
X161580952Y-109531009D02*
X161676190Y-109578628D01*
X161676190Y-109578628D02*
X162057142Y-109578628D01*
X160914285Y-109483390D02*
X161009523Y-109435771D01*
X161009523Y-109435771D02*
X161057142Y-109388152D01*
X161057142Y-109388152D02*
X161104761Y-109292914D01*
X161104761Y-109292914D02*
X161104761Y-109245295D01*
X161104761Y-109245295D02*
X161057142Y-109150057D01*
X161057142Y-109150057D02*
X161009523Y-109102438D01*
X161009523Y-109102438D02*
X160914285Y-109054819D01*
X160914285Y-109054819D02*
X160723809Y-109054819D01*
X160723809Y-109054819D02*
X160628571Y-109102438D01*
X160628571Y-109102438D02*
X160580952Y-109150057D01*
X160580952Y-109150057D02*
X160533333Y-109245295D01*
X160533333Y-109245295D02*
X160533333Y-109292914D01*
X160533333Y-109292914D02*
X160580952Y-109388152D01*
X160580952Y-109388152D02*
X160628571Y-109435771D01*
X160628571Y-109435771D02*
X160723809Y-109483390D01*
X160723809Y-109483390D02*
X160914285Y-109483390D01*
X160914285Y-109483390D02*
X161009523Y-109531009D01*
X161009523Y-109531009D02*
X161057142Y-109578628D01*
X161057142Y-109578628D02*
X161104761Y-109673866D01*
X161104761Y-109673866D02*
X161104761Y-109864342D01*
X161104761Y-109864342D02*
X161057142Y-109959580D01*
X161057142Y-109959580D02*
X161009523Y-110007200D01*
X161009523Y-110007200D02*
X160914285Y-110054819D01*
X160914285Y-110054819D02*
X160723809Y-110054819D01*
X160723809Y-110054819D02*
X160628571Y-110007200D01*
X160628571Y-110007200D02*
X160580952Y-109959580D01*
X160580952Y-109959580D02*
X160533333Y-109864342D01*
X160533333Y-109864342D02*
X160533333Y-109673866D01*
X160533333Y-109673866D02*
X160580952Y-109578628D01*
X160580952Y-109578628D02*
X160628571Y-109531009D01*
X160628571Y-109531009D02*
X160723809Y-109483390D01*
X148908419Y-106253066D02*
X149622704Y-106253066D01*
X149622704Y-106253066D02*
X149765561Y-106205447D01*
X149765561Y-106205447D02*
X149860800Y-106110209D01*
X149860800Y-106110209D02*
X149908419Y-105967352D01*
X149908419Y-105967352D02*
X149908419Y-105872114D01*
X149908419Y-106729257D02*
X148908419Y-106729257D01*
X148908419Y-106729257D02*
X148908419Y-107110209D01*
X148908419Y-107110209D02*
X148956038Y-107205447D01*
X148956038Y-107205447D02*
X149003657Y-107253066D01*
X149003657Y-107253066D02*
X149098895Y-107300685D01*
X149098895Y-107300685D02*
X149241752Y-107300685D01*
X149241752Y-107300685D02*
X149336990Y-107253066D01*
X149336990Y-107253066D02*
X149384609Y-107205447D01*
X149384609Y-107205447D02*
X149432228Y-107110209D01*
X149432228Y-107110209D02*
X149432228Y-106729257D01*
X148908419Y-107634019D02*
X148908419Y-108253066D01*
X148908419Y-108253066D02*
X149289371Y-107919733D01*
X149289371Y-107919733D02*
X149289371Y-108062590D01*
X149289371Y-108062590D02*
X149336990Y-108157828D01*
X149336990Y-108157828D02*
X149384609Y-108205447D01*
X149384609Y-108205447D02*
X149479847Y-108253066D01*
X149479847Y-108253066D02*
X149717942Y-108253066D01*
X149717942Y-108253066D02*
X149813180Y-108205447D01*
X149813180Y-108205447D02*
X149860800Y-108157828D01*
X149860800Y-108157828D02*
X149908419Y-108062590D01*
X149908419Y-108062590D02*
X149908419Y-107776876D01*
X149908419Y-107776876D02*
X149860800Y-107681638D01*
X149860800Y-107681638D02*
X149813180Y-107634019D01*
X131287733Y-125489619D02*
X131287733Y-126203904D01*
X131287733Y-126203904D02*
X131335352Y-126346761D01*
X131335352Y-126346761D02*
X131430590Y-126442000D01*
X131430590Y-126442000D02*
X131573447Y-126489619D01*
X131573447Y-126489619D02*
X131668685Y-126489619D01*
X130811542Y-126489619D02*
X130811542Y-125489619D01*
X130811542Y-125489619D02*
X130430590Y-125489619D01*
X130430590Y-125489619D02*
X130335352Y-125537238D01*
X130335352Y-125537238D02*
X130287733Y-125584857D01*
X130287733Y-125584857D02*
X130240114Y-125680095D01*
X130240114Y-125680095D02*
X130240114Y-125822952D01*
X130240114Y-125822952D02*
X130287733Y-125918190D01*
X130287733Y-125918190D02*
X130335352Y-125965809D01*
X130335352Y-125965809D02*
X130430590Y-126013428D01*
X130430590Y-126013428D02*
X130811542Y-126013428D01*
X129335352Y-125489619D02*
X129811542Y-125489619D01*
X129811542Y-125489619D02*
X129859161Y-125965809D01*
X129859161Y-125965809D02*
X129811542Y-125918190D01*
X129811542Y-125918190D02*
X129716304Y-125870571D01*
X129716304Y-125870571D02*
X129478209Y-125870571D01*
X129478209Y-125870571D02*
X129382971Y-125918190D01*
X129382971Y-125918190D02*
X129335352Y-125965809D01*
X129335352Y-125965809D02*
X129287733Y-126061047D01*
X129287733Y-126061047D02*
X129287733Y-126299142D01*
X129287733Y-126299142D02*
X129335352Y-126394380D01*
X129335352Y-126394380D02*
X129382971Y-126442000D01*
X129382971Y-126442000D02*
X129478209Y-126489619D01*
X129478209Y-126489619D02*
X129716304Y-126489619D01*
X129716304Y-126489619D02*
X129811542Y-126442000D01*
X129811542Y-126442000D02*
X129859161Y-126394380D01*
X166504819Y-127290476D02*
X167219104Y-127290476D01*
X167219104Y-127290476D02*
X167361961Y-127242857D01*
X167361961Y-127242857D02*
X167457200Y-127147619D01*
X167457200Y-127147619D02*
X167504819Y-127004762D01*
X167504819Y-127004762D02*
X167504819Y-126909524D01*
X167504819Y-127766667D02*
X166504819Y-127766667D01*
X166504819Y-127766667D02*
X166504819Y-128147619D01*
X166504819Y-128147619D02*
X166552438Y-128242857D01*
X166552438Y-128242857D02*
X166600057Y-128290476D01*
X166600057Y-128290476D02*
X166695295Y-128338095D01*
X166695295Y-128338095D02*
X166838152Y-128338095D01*
X166838152Y-128338095D02*
X166933390Y-128290476D01*
X166933390Y-128290476D02*
X166981009Y-128242857D01*
X166981009Y-128242857D02*
X167028628Y-128147619D01*
X167028628Y-128147619D02*
X167028628Y-127766667D01*
X167504819Y-129290476D02*
X167504819Y-128719048D01*
X167504819Y-129004762D02*
X166504819Y-129004762D01*
X166504819Y-129004762D02*
X166647676Y-128909524D01*
X166647676Y-128909524D02*
X166742914Y-128814286D01*
X166742914Y-128814286D02*
X166790533Y-128719048D01*
X166504819Y-129909524D02*
X166504819Y-130004762D01*
X166504819Y-130004762D02*
X166552438Y-130100000D01*
X166552438Y-130100000D02*
X166600057Y-130147619D01*
X166600057Y-130147619D02*
X166695295Y-130195238D01*
X166695295Y-130195238D02*
X166885771Y-130242857D01*
X166885771Y-130242857D02*
X167123866Y-130242857D01*
X167123866Y-130242857D02*
X167314342Y-130195238D01*
X167314342Y-130195238D02*
X167409580Y-130147619D01*
X167409580Y-130147619D02*
X167457200Y-130100000D01*
X167457200Y-130100000D02*
X167504819Y-130004762D01*
X167504819Y-130004762D02*
X167504819Y-129909524D01*
X167504819Y-129909524D02*
X167457200Y-129814286D01*
X167457200Y-129814286D02*
X167409580Y-129766667D01*
X167409580Y-129766667D02*
X167314342Y-129719048D01*
X167314342Y-129719048D02*
X167123866Y-129671429D01*
X167123866Y-129671429D02*
X166885771Y-129671429D01*
X166885771Y-129671429D02*
X166695295Y-129719048D01*
X166695295Y-129719048D02*
X166600057Y-129766667D01*
X166600057Y-129766667D02*
X166552438Y-129814286D01*
X166552438Y-129814286D02*
X166504819Y-129909524D01*
X155410819Y-109453466D02*
X156125104Y-109453466D01*
X156125104Y-109453466D02*
X156267961Y-109405847D01*
X156267961Y-109405847D02*
X156363200Y-109310609D01*
X156363200Y-109310609D02*
X156410819Y-109167752D01*
X156410819Y-109167752D02*
X156410819Y-109072514D01*
X156410819Y-109929657D02*
X155410819Y-109929657D01*
X155410819Y-109929657D02*
X155410819Y-110310609D01*
X155410819Y-110310609D02*
X155458438Y-110405847D01*
X155458438Y-110405847D02*
X155506057Y-110453466D01*
X155506057Y-110453466D02*
X155601295Y-110501085D01*
X155601295Y-110501085D02*
X155744152Y-110501085D01*
X155744152Y-110501085D02*
X155839390Y-110453466D01*
X155839390Y-110453466D02*
X155887009Y-110405847D01*
X155887009Y-110405847D02*
X155934628Y-110310609D01*
X155934628Y-110310609D02*
X155934628Y-109929657D01*
X156410819Y-111453466D02*
X156410819Y-110882038D01*
X156410819Y-111167752D02*
X155410819Y-111167752D01*
X155410819Y-111167752D02*
X155553676Y-111072514D01*
X155553676Y-111072514D02*
X155648914Y-110977276D01*
X155648914Y-110977276D02*
X155696533Y-110882038D01*
X122586819Y-94234666D02*
X123301104Y-94234666D01*
X123301104Y-94234666D02*
X123443961Y-94187047D01*
X123443961Y-94187047D02*
X123539200Y-94091809D01*
X123539200Y-94091809D02*
X123586819Y-93948952D01*
X123586819Y-93948952D02*
X123586819Y-93853714D01*
X122586819Y-94615619D02*
X122586819Y-95282285D01*
X122586819Y-95282285D02*
X123586819Y-94853714D01*
X173623123Y-120460419D02*
X173623123Y-121174704D01*
X173623123Y-121174704D02*
X173670742Y-121317561D01*
X173670742Y-121317561D02*
X173765980Y-121412800D01*
X173765980Y-121412800D02*
X173908837Y-121460419D01*
X173908837Y-121460419D02*
X174004075Y-121460419D01*
X173146932Y-121460419D02*
X173146932Y-120460419D01*
X173146932Y-120460419D02*
X172765980Y-120460419D01*
X172765980Y-120460419D02*
X172670742Y-120508038D01*
X172670742Y-120508038D02*
X172623123Y-120555657D01*
X172623123Y-120555657D02*
X172575504Y-120650895D01*
X172575504Y-120650895D02*
X172575504Y-120793752D01*
X172575504Y-120793752D02*
X172623123Y-120888990D01*
X172623123Y-120888990D02*
X172670742Y-120936609D01*
X172670742Y-120936609D02*
X172765980Y-120984228D01*
X172765980Y-120984228D02*
X173146932Y-120984228D01*
X171623123Y-121460419D02*
X172194551Y-121460419D01*
X171908837Y-121460419D02*
X171908837Y-120460419D01*
X171908837Y-120460419D02*
X172004075Y-120603276D01*
X172004075Y-120603276D02*
X172099313Y-120698514D01*
X172099313Y-120698514D02*
X172194551Y-120746133D01*
X170670742Y-121460419D02*
X171242170Y-121460419D01*
X170956456Y-121460419D02*
X170956456Y-120460419D01*
X170956456Y-120460419D02*
X171051694Y-120603276D01*
X171051694Y-120603276D02*
X171146932Y-120698514D01*
X171146932Y-120698514D02*
X171242170Y-120746133D01*
X124779819Y-123541666D02*
X125494104Y-123541666D01*
X125494104Y-123541666D02*
X125636961Y-123494047D01*
X125636961Y-123494047D02*
X125732200Y-123398809D01*
X125732200Y-123398809D02*
X125779819Y-123255952D01*
X125779819Y-123255952D02*
X125779819Y-123160714D01*
X125779819Y-124017857D02*
X124779819Y-124017857D01*
X124779819Y-124017857D02*
X124779819Y-124398809D01*
X124779819Y-124398809D02*
X124827438Y-124494047D01*
X124827438Y-124494047D02*
X124875057Y-124541666D01*
X124875057Y-124541666D02*
X124970295Y-124589285D01*
X124970295Y-124589285D02*
X125113152Y-124589285D01*
X125113152Y-124589285D02*
X125208390Y-124541666D01*
X125208390Y-124541666D02*
X125256009Y-124494047D01*
X125256009Y-124494047D02*
X125303628Y-124398809D01*
X125303628Y-124398809D02*
X125303628Y-124017857D01*
X124779819Y-124922619D02*
X124779819Y-125589285D01*
X124779819Y-125589285D02*
X125779819Y-125160714D01*
X174467733Y-114554819D02*
X174467733Y-115269104D01*
X174467733Y-115269104D02*
X174515352Y-115411961D01*
X174515352Y-115411961D02*
X174610590Y-115507200D01*
X174610590Y-115507200D02*
X174753447Y-115554819D01*
X174753447Y-115554819D02*
X174848685Y-115554819D01*
X173991542Y-115554819D02*
X173991542Y-114554819D01*
X173991542Y-114554819D02*
X173610590Y-114554819D01*
X173610590Y-114554819D02*
X173515352Y-114602438D01*
X173515352Y-114602438D02*
X173467733Y-114650057D01*
X173467733Y-114650057D02*
X173420114Y-114745295D01*
X173420114Y-114745295D02*
X173420114Y-114888152D01*
X173420114Y-114888152D02*
X173467733Y-114983390D01*
X173467733Y-114983390D02*
X173515352Y-115031009D01*
X173515352Y-115031009D02*
X173610590Y-115078628D01*
X173610590Y-115078628D02*
X173991542Y-115078628D01*
X172943923Y-115554819D02*
X172753447Y-115554819D01*
X172753447Y-115554819D02*
X172658209Y-115507200D01*
X172658209Y-115507200D02*
X172610590Y-115459580D01*
X172610590Y-115459580D02*
X172515352Y-115316723D01*
X172515352Y-115316723D02*
X172467733Y-115126247D01*
X172467733Y-115126247D02*
X172467733Y-114745295D01*
X172467733Y-114745295D02*
X172515352Y-114650057D01*
X172515352Y-114650057D02*
X172562971Y-114602438D01*
X172562971Y-114602438D02*
X172658209Y-114554819D01*
X172658209Y-114554819D02*
X172848685Y-114554819D01*
X172848685Y-114554819D02*
X172943923Y-114602438D01*
X172943923Y-114602438D02*
X172991542Y-114650057D01*
X172991542Y-114650057D02*
X173039161Y-114745295D01*
X173039161Y-114745295D02*
X173039161Y-114983390D01*
X173039161Y-114983390D02*
X172991542Y-115078628D01*
X172991542Y-115078628D02*
X172943923Y-115126247D01*
X172943923Y-115126247D02*
X172848685Y-115173866D01*
X172848685Y-115173866D02*
X172658209Y-115173866D01*
X172658209Y-115173866D02*
X172562971Y-115126247D01*
X172562971Y-115126247D02*
X172515352Y-115078628D01*
X172515352Y-115078628D02*
X172467733Y-114983390D01*
X138545219Y-109910666D02*
X139259504Y-109910666D01*
X139259504Y-109910666D02*
X139402361Y-109863047D01*
X139402361Y-109863047D02*
X139497600Y-109767809D01*
X139497600Y-109767809D02*
X139545219Y-109624952D01*
X139545219Y-109624952D02*
X139545219Y-109529714D01*
X139545219Y-110386857D02*
X138545219Y-110386857D01*
X138545219Y-110386857D02*
X138545219Y-110767809D01*
X138545219Y-110767809D02*
X138592838Y-110863047D01*
X138592838Y-110863047D02*
X138640457Y-110910666D01*
X138640457Y-110910666D02*
X138735695Y-110958285D01*
X138735695Y-110958285D02*
X138878552Y-110958285D01*
X138878552Y-110958285D02*
X138973790Y-110910666D01*
X138973790Y-110910666D02*
X139021409Y-110863047D01*
X139021409Y-110863047D02*
X139069028Y-110767809D01*
X139069028Y-110767809D02*
X139069028Y-110386857D01*
X138640457Y-111339238D02*
X138592838Y-111386857D01*
X138592838Y-111386857D02*
X138545219Y-111482095D01*
X138545219Y-111482095D02*
X138545219Y-111720190D01*
X138545219Y-111720190D02*
X138592838Y-111815428D01*
X138592838Y-111815428D02*
X138640457Y-111863047D01*
X138640457Y-111863047D02*
X138735695Y-111910666D01*
X138735695Y-111910666D02*
X138830933Y-111910666D01*
X138830933Y-111910666D02*
X138973790Y-111863047D01*
X138973790Y-111863047D02*
X139545219Y-111291619D01*
X139545219Y-111291619D02*
X139545219Y-111910666D01*
X132045819Y-107929466D02*
X132760104Y-107929466D01*
X132760104Y-107929466D02*
X132902961Y-107881847D01*
X132902961Y-107881847D02*
X132998200Y-107786609D01*
X132998200Y-107786609D02*
X133045819Y-107643752D01*
X133045819Y-107643752D02*
X133045819Y-107548514D01*
X133045819Y-108405657D02*
X132045819Y-108405657D01*
X132045819Y-108405657D02*
X132045819Y-108786609D01*
X132045819Y-108786609D02*
X132093438Y-108881847D01*
X132093438Y-108881847D02*
X132141057Y-108929466D01*
X132141057Y-108929466D02*
X132236295Y-108977085D01*
X132236295Y-108977085D02*
X132379152Y-108977085D01*
X132379152Y-108977085D02*
X132474390Y-108929466D01*
X132474390Y-108929466D02*
X132522009Y-108881847D01*
X132522009Y-108881847D02*
X132569628Y-108786609D01*
X132569628Y-108786609D02*
X132569628Y-108405657D01*
X132379152Y-109834228D02*
X133045819Y-109834228D01*
X131998200Y-109596133D02*
X132712485Y-109358038D01*
X132712485Y-109358038D02*
X132712485Y-109977085D01*
X125754819Y-109516666D02*
X126469104Y-109516666D01*
X126469104Y-109516666D02*
X126611961Y-109469047D01*
X126611961Y-109469047D02*
X126707200Y-109373809D01*
X126707200Y-109373809D02*
X126754819Y-109230952D01*
X126754819Y-109230952D02*
X126754819Y-109135714D01*
X126754819Y-109992857D02*
X125754819Y-109992857D01*
X125754819Y-109992857D02*
X125754819Y-110373809D01*
X125754819Y-110373809D02*
X125802438Y-110469047D01*
X125802438Y-110469047D02*
X125850057Y-110516666D01*
X125850057Y-110516666D02*
X125945295Y-110564285D01*
X125945295Y-110564285D02*
X126088152Y-110564285D01*
X126088152Y-110564285D02*
X126183390Y-110516666D01*
X126183390Y-110516666D02*
X126231009Y-110469047D01*
X126231009Y-110469047D02*
X126278628Y-110373809D01*
X126278628Y-110373809D02*
X126278628Y-109992857D01*
X125754819Y-111421428D02*
X125754819Y-111230952D01*
X125754819Y-111230952D02*
X125802438Y-111135714D01*
X125802438Y-111135714D02*
X125850057Y-111088095D01*
X125850057Y-111088095D02*
X125992914Y-110992857D01*
X125992914Y-110992857D02*
X126183390Y-110945238D01*
X126183390Y-110945238D02*
X126564342Y-110945238D01*
X126564342Y-110945238D02*
X126659580Y-110992857D01*
X126659580Y-110992857D02*
X126707200Y-111040476D01*
X126707200Y-111040476D02*
X126754819Y-111135714D01*
X126754819Y-111135714D02*
X126754819Y-111326190D01*
X126754819Y-111326190D02*
X126707200Y-111421428D01*
X126707200Y-111421428D02*
X126659580Y-111469047D01*
X126659580Y-111469047D02*
X126564342Y-111516666D01*
X126564342Y-111516666D02*
X126326247Y-111516666D01*
X126326247Y-111516666D02*
X126231009Y-111469047D01*
X126231009Y-111469047D02*
X126183390Y-111421428D01*
X126183390Y-111421428D02*
X126135771Y-111326190D01*
X126135771Y-111326190D02*
X126135771Y-111135714D01*
X126135771Y-111135714D02*
X126183390Y-111040476D01*
X126183390Y-111040476D02*
X126231009Y-110992857D01*
X126231009Y-110992857D02*
X126326247Y-110945238D01*
D12*
%TO.C,JP12*%
X167532500Y-116200000D02*
X166932500Y-116200000D01*
X168732500Y-116750000D02*
X168732500Y-117350000D01*
X166232500Y-116850000D02*
X166232500Y-119650000D01*
X168432500Y-117050000D02*
X168732500Y-116750000D01*
X168432500Y-117050000D02*
X168732500Y-117350000D01*
X168232500Y-119650000D02*
X168232500Y-116850000D01*
X166932500Y-120300000D02*
X167532500Y-120300000D01*
X168232500Y-116900000D02*
G75*
G03*
X167532500Y-116200000I-699999J1D01*
G01*
X166932500Y-116200000D02*
G75*
G03*
X166232500Y-116900000I-1J-699999D01*
G01*
X167532500Y-120300000D02*
G75*
G03*
X168232500Y-119600000I0J700000D01*
G01*
X166232500Y-119600000D02*
G75*
G03*
X166932500Y-120300000I700000J0D01*
G01*
%TO.C,TP7*%
X171333200Y-109474000D02*
G75*
G03*
X171333200Y-109474000I-950000J0D01*
G01*
%TO.C,JP8*%
X163850000Y-105750000D02*
X163250000Y-105750000D01*
X162550000Y-106450000D02*
X162550000Y-107850000D01*
X164550000Y-107850000D02*
X164550000Y-106450000D01*
X163250000Y-108550000D02*
X163850000Y-108550000D01*
X164550000Y-106450000D02*
G75*
G03*
X163850000Y-105750000I-699999J1D01*
G01*
X163250000Y-105750000D02*
G75*
G03*
X162550000Y-106450000I-1J-699999D01*
G01*
X163850000Y-108550000D02*
G75*
G03*
X164550000Y-107850000I0J700000D01*
G01*
X162550000Y-107850000D02*
G75*
G03*
X163250000Y-108550000I700000J0D01*
G01*
%TO.C,TP6*%
X171841200Y-101041200D02*
G75*
G03*
X171841200Y-101041200I-950000J0D01*
G01*
%TO.C,JP3*%
X152277500Y-106100000D02*
X150327500Y-106100000D01*
X150327500Y-106100000D02*
X150327500Y-111600000D01*
X152277500Y-111600000D02*
X152277500Y-106100000D01*
X150327500Y-111600000D02*
X152277500Y-111600000D01*
%TO.C,JP5*%
X128851200Y-127411200D02*
X128851200Y-128011200D01*
X129551200Y-128711200D02*
X130951200Y-128711200D01*
X130951200Y-126711200D02*
X129551200Y-126711200D01*
X131651200Y-128011200D02*
X131651200Y-127411200D01*
X129551200Y-126711200D02*
G75*
G03*
X128851200Y-127411200I-1J-699999D01*
G01*
X128851200Y-128011200D02*
G75*
G03*
X129551200Y-128711200I699999J-1D01*
G01*
X131651200Y-127411200D02*
G75*
G03*
X130951200Y-126711200I-700000J0D01*
G01*
X130951200Y-128711200D02*
G75*
G03*
X131651200Y-128011200I0J700000D01*
G01*
%TO.C,JP10*%
X169150000Y-127200000D02*
X168550000Y-127200000D01*
X167850000Y-127900000D02*
X167850000Y-129300000D01*
X169850000Y-129300000D02*
X169850000Y-127900000D01*
X168550000Y-130000000D02*
X169150000Y-130000000D01*
X169850000Y-127900000D02*
G75*
G03*
X169150000Y-127200000I-699999J1D01*
G01*
X168550000Y-127200000D02*
G75*
G03*
X167850000Y-127900000I-1J-699999D01*
G01*
X169150000Y-130000000D02*
G75*
G03*
X169850000Y-129300000I0J700000D01*
G01*
X167850000Y-129300000D02*
G75*
G03*
X168550000Y-130000000I700000J0D01*
G01*
%TO.C,JP1*%
X154934000Y-106089000D02*
X152984000Y-106089000D01*
X152984000Y-106089000D02*
X152984000Y-111589000D01*
X154934000Y-111589000D02*
X154934000Y-106089000D01*
X152984000Y-111589000D02*
X154934000Y-111589000D01*
%TO.C,TP8*%
X173060400Y-104749600D02*
G75*
G03*
X173060400Y-104749600I-950000J0D01*
G01*
%TO.C,J7*%
X175492000Y-91968000D02*
X175492000Y-97168000D01*
X124572000Y-91968000D02*
X175492000Y-91968000D01*
X124572000Y-91968000D02*
X124572000Y-94568000D01*
X127172000Y-94568000D02*
X127172000Y-97168000D01*
X124572000Y-94568000D02*
X127172000Y-94568000D01*
X124572000Y-95838000D02*
X124572000Y-97168000D01*
X127172000Y-97168000D02*
X175492000Y-97168000D01*
X124572000Y-97168000D02*
X125902000Y-97168000D01*
%TO.C,JP11*%
X175075000Y-119500000D02*
X175075000Y-118900000D01*
X174425000Y-118200000D02*
X171625000Y-118200000D01*
X171625000Y-120200000D02*
X174425000Y-120200000D01*
X170975000Y-118900000D02*
X170975000Y-119500000D01*
X174375000Y-120200000D02*
G75*
G03*
X175075000Y-119500000I1J699999D01*
G01*
X175075000Y-118900000D02*
G75*
G03*
X174375000Y-118200000I-699999J1D01*
G01*
X170975000Y-119500000D02*
G75*
G03*
X171675000Y-120200000I700000J0D01*
G01*
X171675000Y-118200000D02*
G75*
G03*
X170975000Y-118900000I0J-700000D01*
G01*
%TO.C,JP7*%
X122600000Y-127850000D02*
X124550000Y-127850000D01*
X124550000Y-127850000D02*
X124550000Y-122350000D01*
X122050000Y-126800000D02*
X122050000Y-126200000D01*
X122350000Y-126500000D02*
X122050000Y-126800000D01*
X122050000Y-126200000D02*
X122350000Y-126500000D01*
X122600000Y-122350000D02*
X122600000Y-127850000D01*
X124550000Y-122350000D02*
X122600000Y-122350000D01*
%TO.C,JP9*%
X175075000Y-117200000D02*
X175075000Y-116600000D01*
X174425000Y-115900000D02*
X171625000Y-115900000D01*
X171625000Y-117900000D02*
X174425000Y-117900000D01*
X170975000Y-116600000D02*
X170975000Y-117200000D01*
X174375000Y-117900000D02*
G75*
G03*
X175075000Y-117200000I1J699999D01*
G01*
X175075000Y-116600000D02*
G75*
G03*
X174375000Y-115900000I-699999J1D01*
G01*
X170975000Y-117200000D02*
G75*
G03*
X171675000Y-117900000I700000J0D01*
G01*
X171675000Y-115900000D02*
G75*
G03*
X170975000Y-116600000I0J-700000D01*
G01*
%TO.C,JP2*%
X138000000Y-106080000D02*
X136050000Y-106080000D01*
X136050000Y-106080000D02*
X136050000Y-111580000D01*
X138000000Y-111580000D02*
X138000000Y-106080000D01*
X136050000Y-111580000D02*
X138000000Y-111580000D01*
%TO.C,TP5*%
X166354800Y-104292400D02*
G75*
G03*
X166354800Y-104292400I-950000J0D01*
G01*
%TO.C,JP4*%
X135316000Y-106089000D02*
X133366000Y-106089000D01*
X133366000Y-106089000D02*
X133366000Y-111589000D01*
X135316000Y-111589000D02*
X135316000Y-106089000D01*
X133366000Y-111589000D02*
X135316000Y-111589000D01*
%TO.C,JP6*%
X128400000Y-108950000D02*
X127800000Y-108950000D01*
X127100000Y-109650000D02*
X127100000Y-111050000D01*
X129100000Y-111050000D02*
X129100000Y-109650000D01*
X127800000Y-111750000D02*
X128400000Y-111750000D01*
X129100000Y-109650000D02*
G75*
G03*
X128400000Y-108950000I-699999J1D01*
G01*
X127800000Y-108950000D02*
G75*
G03*
X127100000Y-109650000I-1J-699999D01*
G01*
X128400000Y-111750000D02*
G75*
G03*
X129100000Y-111050000I0J700000D01*
G01*
X127100000Y-111050000D02*
G75*
G03*
X127800000Y-111750000I700000J0D01*
G01*
%TD*%
%LPC*%
D13*
%TO.C,H1*%
X121032000Y-94568000D03*
%TD*%
%TO.C,H2*%
X179032000Y-94568000D03*
%TD*%
%TO.C,H3*%
X179032000Y-117568000D03*
%TD*%
%TO.C,H4*%
X121032000Y-117568000D03*
%TD*%
D14*
%TO.C,J1*%
X179324000Y-111450000D03*
D15*
X179324000Y-107950000D03*
X179324000Y-104450000D03*
X179324000Y-100950000D03*
%TD*%
D16*
%TO.C,J9*%
X124985000Y-130460000D03*
D17*
X127525000Y-130460000D03*
X130065000Y-130460000D03*
%TD*%
D18*
%TO.C,K1*%
X140332000Y-100424605D03*
D19*
X134282000Y-102374605D03*
D18*
X134282000Y-114574605D03*
X146332000Y-114624605D03*
D19*
X146282000Y-102374605D03*
%TD*%
D18*
%TO.C,K2*%
X157232000Y-100457000D03*
D19*
X151182000Y-102407000D03*
D18*
X151182000Y-114607000D03*
X163232000Y-114657000D03*
D19*
X163182000Y-102407000D03*
%TD*%
D16*
%TO.C,J11*%
X120700000Y-123375000D03*
D17*
X120700000Y-125915000D03*
%TD*%
D14*
%TO.C,J5*%
X153700000Y-127275000D03*
D15*
X157200000Y-127275000D03*
X160700000Y-127275000D03*
%TD*%
D14*
%TO.C,J6*%
X136800000Y-127315000D03*
D15*
X140300000Y-127315000D03*
X143800000Y-127315000D03*
%TD*%
D18*
%TO.C,J4*%
X125911000Y-102558000D03*
X119261000Y-102558000D03*
X123361000Y-107258000D03*
%TD*%
D20*
%TO.C,JP12*%
X167232500Y-116950000D03*
D21*
X167232500Y-118250000D03*
D22*
X167232500Y-119550000D03*
%TD*%
D23*
%TO.C,TP7*%
X170383200Y-109474000D03*
%TD*%
D24*
%TO.C,JP8*%
X163550000Y-106500000D03*
D25*
X163550000Y-107800000D03*
%TD*%
D23*
%TO.C,TP6*%
X170891200Y-101041200D03*
%TD*%
D26*
%TO.C,JP3*%
X151327500Y-107650000D03*
X151327500Y-110050000D03*
D27*
X151327500Y-106850000D03*
D28*
X151327500Y-110850000D03*
%TD*%
D29*
%TO.C,JP5*%
X129601200Y-127711200D03*
D30*
X130901200Y-127711200D03*
%TD*%
D24*
%TO.C,JP10*%
X168850000Y-127950000D03*
D25*
X168850000Y-129250000D03*
%TD*%
D26*
%TO.C,JP1*%
X153984000Y-107639000D03*
X153984000Y-110039000D03*
D27*
X153984000Y-106839000D03*
D28*
X153984000Y-110839000D03*
%TD*%
D23*
%TO.C,TP8*%
X172110400Y-104749600D03*
%TD*%
D16*
%TO.C,J7*%
X125902000Y-95838000D03*
D17*
X125902000Y-93298000D03*
X128442000Y-95838000D03*
X128442000Y-93298000D03*
X130982000Y-95838000D03*
X130982000Y-93298000D03*
X133522000Y-95838000D03*
X133522000Y-93298000D03*
X136062000Y-95838000D03*
X136062000Y-93298000D03*
X138602000Y-95838000D03*
X138602000Y-93298000D03*
X141142000Y-95838000D03*
X141142000Y-93298000D03*
X143682000Y-95838000D03*
X143682000Y-93298000D03*
X146222000Y-95838000D03*
X146222000Y-93298000D03*
X148762000Y-95838000D03*
X148762000Y-93298000D03*
X151302000Y-95838000D03*
X151302000Y-93298000D03*
X153842000Y-95838000D03*
X153842000Y-93298000D03*
X156382000Y-95838000D03*
X156382000Y-93298000D03*
X158922000Y-95838000D03*
X158922000Y-93298000D03*
X161462000Y-95838000D03*
X161462000Y-93298000D03*
X164002000Y-95838000D03*
X164002000Y-93298000D03*
X166542000Y-95838000D03*
X166542000Y-93298000D03*
X169082000Y-95838000D03*
X169082000Y-93298000D03*
X171622000Y-95838000D03*
X171622000Y-93298000D03*
X174162000Y-95838000D03*
X174162000Y-93298000D03*
%TD*%
D31*
%TO.C,JP11*%
X174325000Y-119200000D03*
D32*
X173025000Y-119200000D03*
D33*
X171725000Y-119200000D03*
%TD*%
D26*
%TO.C,JP7*%
X123550000Y-126300000D03*
X123550000Y-123900000D03*
D28*
X123550000Y-127100000D03*
D27*
X123550000Y-123100000D03*
%TD*%
D31*
%TO.C,JP9*%
X174325000Y-116900000D03*
D32*
X173025000Y-116900000D03*
D33*
X171725000Y-116900000D03*
%TD*%
D26*
%TO.C,JP2*%
X137050000Y-107630000D03*
X137050000Y-110030000D03*
D27*
X137050000Y-106830000D03*
D28*
X137050000Y-110830000D03*
%TD*%
D23*
%TO.C,TP5*%
X165404800Y-104292400D03*
%TD*%
D26*
%TO.C,JP4*%
X134366000Y-107639000D03*
X134366000Y-110039000D03*
D27*
X134366000Y-106839000D03*
D28*
X134366000Y-110839000D03*
%TD*%
D24*
%TO.C,JP6*%
X128100000Y-109700000D03*
D25*
X128100000Y-111000000D03*
%TD*%
%LPD*%
M02*
